<svg xmlns="http://www.w3.org/2000/svg" width="24" height="17" viewBox="0 0 24 17" fill="none">
    <path d="M7.72153 11.2991H20.2372C20.3886 11.2983 20.5355 11.2576 20.6554 11.1834C20.7753 11.1092 20.8616 11.0054 20.9011 10.8881L23.6613 2.9791C23.6917 2.89438 23.6972 2.80518 23.6776 2.71844C23.6579 2.63171 23.6136 2.54979 23.5479 2.4791C23.4844 2.40978 23.4015 2.35342 23.3059 2.31451C23.2103 2.27561 23.1046 2.25525 22.9974 2.2551H6.13091L5.63268 0.437103C5.60022 0.312684 5.51563 0.200941 5.39301 0.120514C5.2704 0.0400867 5.11715 -0.00415362 4.95882 -0.00488281H0.822227C0.640864 0.00124686 0.469467 0.0633855 0.343839 0.168579C0.218211 0.273773 0.148071 0.413868 0.148071 0.559601C0.148071 0.705334 0.218211 0.845429 0.343839 0.950623C0.469467 1.05582 0.640864 1.11799 0.822227 1.12411H4.40951C4.49671 1.44612 6.77613 9.82409 6.90069 10.3021C6.52832 10.4372 6.21259 10.6559 5.99158 10.9318C5.77056 11.2077 5.65371 11.5291 5.6551 11.8571C5.65197 12.0779 5.70304 12.297 5.80539 12.5019C5.90774 12.7068 6.05936 12.8935 6.25159 13.0514C6.44383 13.2092 6.67292 13.3351 6.92577 13.4219C7.17862 13.5087 7.45029 13.5546 7.72526 13.5571H20.2372C20.4238 13.5571 20.6028 13.4976 20.7348 13.3916C20.8668 13.2857 20.9409 13.1419 20.9409 12.9921C20.9409 12.8422 20.8668 12.6985 20.7348 12.5926C20.6028 12.4866 20.4238 12.4271 20.2372 12.4271H7.73025C7.54888 12.421 7.37749 12.3588 7.25186 12.2536C7.12623 12.1484 7.05609 12.0083 7.05609 11.8626C7.05609 11.7169 7.12623 11.5768 7.25186 11.4716C7.37749 11.3664 7.54888 11.3042 7.73025 11.2981L7.72153 11.2991ZM22.0831 3.3891L19.7165 10.1681H8.27706L6.43608 3.3891H22.0831Z" fill="#202834"/>
    <path d="M7.03402 15.2541C7.04187 15.5816 7.17003 15.8999 7.40241 16.1692C7.6348 16.4384 7.96106 16.6466 8.34025 16.7676C8.71945 16.8885 9.13469 16.9168 9.53388 16.849C9.93306 16.7812 10.2984 16.6203 10.5841 16.3864C10.8697 16.1525 11.063 15.8561 11.1396 15.5343C11.2162 15.2126 11.1728 14.8798 11.0147 14.5778C10.8566 14.2758 10.591 14.018 10.2511 13.8368C9.9112 13.6556 9.51221 13.5589 9.10418 13.5591C8.54984 13.5638 8.0205 13.745 7.63237 14.0628C7.24424 14.3806 7.02904 14.809 7.03402 15.2541ZM9.10418 14.6891C9.24393 14.6869 9.38131 14.7182 9.49883 14.7789C9.61635 14.8396 9.70868 14.9271 9.76406 15.0301C9.81943 15.1331 9.83534 15.2471 9.80975 15.3574C9.78416 15.4677 9.71824 15.5694 9.62038 15.6495C9.52253 15.7297 9.39717 15.7846 9.2603 15.8073C9.12342 15.83 8.98123 15.8195 8.85183 15.777C8.72244 15.7346 8.6117 15.6622 8.53375 15.5691C8.4558 15.476 8.41416 15.3663 8.41413 15.2541C8.41247 15.1056 8.48416 14.9627 8.6135 14.8566C8.74284 14.7505 8.91929 14.6909 9.10418 14.6891Z" fill="#202834"/>
    <path d="M16.7882 15.2541C16.7963 15.5813 16.9245 15.8993 17.1569 16.1683C17.3892 16.4372 17.7153 16.6451 18.0942 16.7658C18.4731 16.8866 18.888 16.9148 19.2868 16.847C19.6856 16.7792 20.0507 16.6184 20.3361 16.3847C20.6215 16.151 20.8146 15.8548 20.8912 15.5334C20.9678 15.2119 20.9245 14.8794 20.7667 14.5777C20.6088 14.2759 20.3436 14.0182 20.0041 13.837C19.6646 13.6558 19.266 13.5591 18.8583 13.5591C18.304 13.5638 17.7746 13.745 17.3865 14.0628C16.9984 14.3806 16.7832 14.809 16.7882 15.2541ZM18.8583 14.6891C18.9981 14.6869 19.1355 14.7182 19.253 14.7789C19.3705 14.8396 19.4628 14.9271 19.5182 15.0301C19.5736 15.1331 19.5895 15.2471 19.5639 15.3574C19.5383 15.4677 19.4724 15.5694 19.3745 15.6495C19.2767 15.7297 19.1513 15.7846 19.0144 15.8073C18.8776 15.83 18.7354 15.8195 18.606 15.777C18.4766 15.7346 18.3659 15.6622 18.2879 15.5691C18.21 15.476 18.1683 15.3663 18.1683 15.2541C18.1673 15.1805 18.1844 15.1076 18.2185 15.0393C18.2527 14.9711 18.3032 14.9089 18.3673 14.8563C18.4314 14.8038 18.5077 14.7618 18.592 14.733C18.6762 14.7041 18.7667 14.6898 18.8583 14.6891Z" fill="#202834"/>
</svg>