<svg xmlns="http://www.w3.org/2000/svg" width="27" height="25" viewBox="0 0 27 25" fill="none">
    <path d="M25.989 0.0698242H1.98901C1.43673 0.0698242 0.989014 0.517539 0.989014 1.06982V23.0698C0.989014 23.6221 1.43673 24.0698 1.98901 24.0698H25.989C26.5413 24.0698 26.989 23.6221 26.989 23.0698V1.06982C26.989 0.517539 26.5413 0.0698242 25.989 0.0698242Z" fill="#0A9A73"/>

    <!-- Ãcone de check, agora centralizado dentro do viewBox do SVG maior -->
    <svg xmlns="http://www.w3.org/2000/svg" width="12" height="8" viewBox="0 0 12 8" fill="none" x="30%" y="30%" >
        <path d="M11.6631 1.3297L4.56906 7.9227C4.53814 7.95081 4.49785 7.96638 4.45606 7.96638C4.41427 7.96638 4.37398 7.95081 4.34306 7.9227L0.316059 4.1817C0.301303 4.16847 0.289501 4.15229 0.281421 4.1342C0.273341 4.1161 0.269165 4.09651 0.269165 4.0767C0.269165 4.05688 0.273341 4.03729 0.281421 4.0192C0.289501 4.00111 0.301303 3.98492 0.316059 3.9717L1.29506 3.0627C1.32608 3.0348 1.36633 3.01936 1.40806 3.01936C1.44978 3.01936 1.49003 3.0348 1.52106 3.0627L4.45606 5.7897L10.4561 0.215697C10.4871 0.187799 10.5273 0.172363 10.5691 0.172363C10.6108 0.172363 10.651 0.187799 10.6821 0.215697L11.6611 1.1247C11.6751 1.13774 11.6864 1.15352 11.6942 1.17107C11.7019 1.18862 11.7061 1.20757 11.7062 1.22677C11.7064 1.24596 11.7027 1.26499 11.6953 1.28269C11.6878 1.30039 11.6769 1.31638 11.6631 1.3297Z" fill="white"/>
    </svg>
</svg>
