<svg width="45" height="45" viewBox="0 0 45 45" fill="none" xmlns="http://www.w3.org/2000/svg">
<path d="M8.86401 2.04602C13.1713 0.783335 17.6265 0.0953594 22.114 0C26.8543 0.108079 31.5635 0.795194 36.137 2.04602C39.601 3.40402 41.748 5.09901 42.955 8.86401C44.22 13.1195 44.9082 17.5254 45.001 21.964C44.8903 26.754 44.2033 31.5131 42.955 36.1389C41.748 39.9039 39.45 41.448 36.137 42.957C31.8959 44.2488 27.494 44.9368 23.061 45.001C18.2648 44.8667 13.5 44.1801 8.86099 42.955C5.24599 41.597 3.099 40.055 2.043 36.137C0.801296 31.3953 0.115685 26.5252 0 21.625C0.0873712 17.2972 0.775631 13.0024 2.04501 8.86401C3.40001 4.94701 5.55101 3.10102 8.86401 2.04602Z" fill="#0A9A73"/>
<path d="M12.779 22.455C12.9924 21.1383 13.4854 19.8826 14.2249 18.7724C14.9644 17.6622 15.9332 16.7233 17.066 16.019C18.6686 15.0105 20.5297 14.4894 22.423 14.519L21.723 13.837C21.6456 13.7629 21.584 13.6739 21.5419 13.5753C21.4999 13.4768 21.4782 13.3707 21.4782 13.2635C21.4782 13.1564 21.4999 13.0503 21.5419 12.9518C21.584 12.8532 21.6456 12.7642 21.723 12.69C21.8821 12.5373 22.094 12.452 22.3145 12.452C22.535 12.452 22.747 12.5373 22.906 12.69L25.286 14.997C25.3863 15.0645 25.4703 15.1535 25.5317 15.2576C25.5932 15.3617 25.6306 15.4781 25.6412 15.5985C25.6519 15.7189 25.6355 15.8402 25.5932 15.9534C25.551 16.0667 25.4839 16.169 25.397 16.2531L22.903 18.665C22.744 18.8178 22.532 18.903 22.3115 18.903C22.091 18.903 21.8791 18.8178 21.72 18.665C21.6426 18.5909 21.581 18.5019 21.5389 18.4033C21.4969 18.3048 21.4752 18.1987 21.4752 18.0916C21.4752 17.9844 21.4969 17.8783 21.5389 17.7798C21.581 17.6812 21.6426 17.5922 21.72 17.518L23.102 16.178C21.3082 15.9985 19.5056 16.4207 17.978 17.3781C17.0419 17.9601 16.2413 18.7359 15.63 19.6532C15.0187 20.5705 14.6109 21.608 14.434 22.696C14.3968 22.9121 14.2758 23.1047 14.0974 23.232C13.9189 23.3594 13.6974 23.4111 13.481 23.376C13.3743 23.3621 13.2713 23.3272 13.1781 23.2733C13.0849 23.2194 13.0033 23.1475 12.938 23.0619C12.8727 22.9763 12.8251 22.8785 12.7978 22.7744C12.7705 22.6702 12.7641 22.5617 12.779 22.455ZM25.206 31.065C24.1555 31.4614 23.0347 31.6378 21.9131 31.5833C20.7916 31.5288 19.6932 31.2445 18.686 30.748C17.087 29.9659 15.8037 28.6602 15.049 27.048L16.935 27.538C17.147 27.595 17.3728 27.5667 17.5642 27.4592C17.7556 27.3518 17.8973 27.1737 17.959 26.963C17.9867 26.8589 17.9933 26.7502 17.9784 26.6435C17.9634 26.5368 17.9274 26.4341 17.8722 26.3415C17.8171 26.2489 17.744 26.1682 17.6572 26.1043C17.5705 26.0403 17.4718 25.9943 17.367 25.969L13.967 25.0851C13.8502 25.0537 13.728 25.0476 13.6087 25.0673C13.4894 25.087 13.3756 25.132 13.275 25.1992C13.1745 25.2664 13.0894 25.3544 13.0256 25.4571C12.9618 25.5599 12.9207 25.6751 12.905 25.795L12.029 28.965C12.0014 29.0692 11.9948 29.1778 12.0097 29.2846C12.0246 29.3913 12.0607 29.494 12.1159 29.5866C12.171 29.6792 12.2441 29.7598 12.3309 29.8238C12.4176 29.8877 12.5163 29.9337 12.621 29.959C12.8329 30.016 13.0586 29.9879 13.25 29.8806C13.4413 29.7734 13.5831 29.5955 13.645 29.385L13.904 28.45C14.8425 30.0722 16.2431 31.3777 17.927 32.2C19.1459 32.8007 20.4751 33.1447 21.8323 33.2106C23.1895 33.2765 24.5458 33.0629 25.817 32.583C25.9184 32.5469 26.0115 32.4907 26.0907 32.4177C26.1698 32.3447 26.2334 32.2565 26.2777 32.1584C26.3219 32.0603 26.3459 31.9542 26.3482 31.8466C26.3505 31.739 26.3311 31.632 26.291 31.532C26.2066 31.3282 26.046 31.1654 25.8434 31.0782C25.6408 30.991 25.4121 30.9863 25.206 31.065ZM32.594 28.958C32.5323 28.7475 32.3906 28.5694 32.1992 28.4621C32.0077 28.3548 31.7819 28.3268 31.57 28.384L30.606 28.634C31.5776 27.0611 32.0436 25.228 31.941 23.382C31.8654 22.0538 31.5048 20.7574 30.8836 19.581C30.2624 18.4045 29.3953 17.3755 28.341 16.564C28.1665 16.4297 27.9468 16.3681 27.7278 16.3919C27.5089 16.4158 27.3076 16.5233 27.166 16.692C27.0974 16.7745 27.0462 16.87 27.0155 16.9727C26.9848 17.0755 26.9753 17.1835 26.9876 17.2901C26.9998 17.3966 27.0335 17.4996 27.0867 17.5928C27.1399 17.6859 27.2115 17.7673 27.297 17.832C28.1685 18.5028 28.8854 19.3534 29.3989 20.3259C29.9124 21.2984 30.2105 22.3701 30.273 23.468C30.3658 25.2247 29.8404 26.9584 28.788 28.368L28.282 26.538C28.2201 26.3276 28.0783 26.1497 27.887 26.0425C27.6956 25.9352 27.4699 25.9071 27.258 25.9641C27.1533 25.9894 27.0546 26.0353 26.9679 26.0993C26.8811 26.1632 26.808 26.2439 26.7529 26.3365C26.6977 26.4291 26.6616 26.5317 26.6467 26.6385C26.6318 26.7452 26.6384 26.8539 26.666 26.958L27.578 30.258C27.6123 30.3755 27.6715 30.4842 27.7515 30.5768C27.8315 30.6694 27.9306 30.7436 28.0419 30.7945C28.1532 30.8453 28.2741 30.8716 28.3965 30.8716C28.5189 30.8715 28.6398 30.845 28.751 30.794L32.005 29.948C32.1084 29.9223 32.2056 29.8765 32.2911 29.8131C32.3767 29.7498 32.4489 29.6701 32.5036 29.5788C32.5583 29.4875 32.5945 29.3863 32.61 29.2809C32.6255 29.1756 32.6201 29.0683 32.594 28.965V28.958Z" fill="white"/>
</svg>
