<svg width="45" height="46" viewBox="0 0 45 46" fill="none" xmlns="http://www.w3.org/2000/svg">
<path d="M8.86401 2.21887C13.1713 0.956187 17.6265 0.268211 22.114 0.172852C26.8543 0.28093 31.5635 0.968046 36.137 2.21887C39.601 3.57687 41.748 5.27186 42.955 9.03687C44.22 13.2923 44.9082 17.6983 45.001 22.1368C44.8903 26.9268 44.2033 31.686 42.955 36.3118C41.748 40.0768 39.45 41.6209 36.137 43.1299C31.8959 44.4216 27.494 45.1096 23.061 45.1738C18.2648 45.0395 13.5 44.353 8.86099 43.1278C5.24599 41.7698 3.099 40.2278 2.043 36.3098C0.801296 31.5681 0.115685 26.6981 0 21.7979C0.0873712 17.47 0.775631 13.1753 2.04501 9.03687C3.40001 5.11987 5.55101 3.27387 8.86401 2.21887Z" fill="#0A9A73"/>
<path d="M22.776 25.4818C21.7889 25.4829 20.815 25.2549 19.931 24.8159L13.506 21.6098C13.056 21.4049 12.6747 21.0745 12.4078 20.6583C12.1409 20.2421 11.9998 19.7578 12.0012 19.2633C12.0027 18.7689 12.1468 18.2854 12.4162 17.8708C12.6855 17.4562 13.0688 17.1281 13.52 16.9258L19.961 13.7559C20.8377 13.3278 21.8004 13.1053 22.776 13.1053C23.7516 13.1053 24.7143 13.3278 25.591 13.7559L32.032 16.9258C32.4832 17.128 32.8665 17.456 33.136 17.8705C33.4055 18.2851 33.5496 18.7686 33.5512 19.263C33.5528 19.7574 33.4117 20.2418 33.1449 20.6581C32.8781 21.0743 32.4969 21.4048 32.047 21.6098L25.622 24.8159C24.7375 25.2549 23.7634 25.4828 22.776 25.4818ZM22.776 14.6708C22.0734 14.6703 21.38 14.8307 20.749 15.1398L14.308 18.3098C14.1228 18.3924 13.9654 18.5267 13.8548 18.6966C13.7442 18.8664 13.685 19.0647 13.6843 19.2674C13.6837 19.4701 13.7416 19.6687 13.8512 19.8393C13.9608 20.0099 14.1173 20.1451 14.302 20.2289L20.727 23.4348C21.3642 23.7505 22.0658 23.9148 22.777 23.9148C23.4882 23.9148 24.1897 23.7505 24.827 23.4348L31.252 20.2289C31.4366 20.1451 31.5932 20.0099 31.7027 19.8393C31.8123 19.6687 31.8703 19.4701 31.8696 19.2674C31.869 19.0647 31.8098 18.8664 31.6992 18.6966C31.5885 18.5267 31.4311 18.3924 31.246 18.3098L24.805 15.1398C24.1731 14.8315 23.479 14.6721 22.776 14.6739V14.6708ZM25.622 31.9028L33.108 28.1668C33.2033 28.1234 33.2885 28.0607 33.3582 27.9825C33.428 27.9044 33.4807 27.8126 33.513 27.713C33.5454 27.6134 33.5567 27.5082 33.5461 27.404C33.5356 27.2998 33.5036 27.199 33.452 27.1078C33.3368 26.9214 33.1559 26.7851 32.945 26.7256C32.7341 26.6662 32.5085 26.688 32.313 26.7868L24.826 30.5229C24.1889 30.8391 23.4872 31.0036 22.776 31.0036C22.0647 31.0036 21.3631 30.8391 20.726 30.5229L13.239 26.8228C13.0431 26.7247 12.8174 26.7036 12.6067 26.7638C12.396 26.8239 12.2155 26.961 12.101 27.1479C12.0499 27.2393 12.0183 27.3403 12.0083 27.4446C11.9983 27.5489 12.0101 27.6541 12.0429 27.7536C12.0757 27.853 12.1289 27.9446 12.1989 28.0225C12.269 28.1003 12.3545 28.1628 12.45 28.2058L19.934 31.9059C20.8185 32.3441 21.7923 32.5722 22.7795 32.5722C23.7666 32.5722 24.7405 32.3441 25.625 31.9059L25.622 31.9028ZM25.622 28.3778L33.108 24.6429C33.2033 24.5992 33.2886 24.5363 33.3583 24.4579C33.4281 24.3796 33.4808 24.2877 33.5131 24.1879C33.5455 24.0882 33.5567 23.9828 33.5462 23.8785C33.5357 23.7741 33.5036 23.6731 33.452 23.5818C33.337 23.3953 33.156 23.2588 32.945 23.1995C32.7339 23.1402 32.5083 23.1625 32.313 23.2618L24.826 26.9978C24.1888 27.3137 23.4872 27.478 22.776 27.478C22.0648 27.478 21.3632 27.3137 20.726 26.9978L13.239 23.2979C13.0431 23.1997 12.8174 23.1786 12.6067 23.2388C12.396 23.2989 12.2155 23.436 12.101 23.6228C12.0498 23.7144 12.0183 23.8156 12.0082 23.92C11.9982 24.0245 12.01 24.1298 12.0428 24.2295C12.0756 24.3291 12.1287 24.4208 12.1988 24.4989C12.2689 24.5769 12.3544 24.6396 12.45 24.6829L19.931 28.3738C20.8153 28.8128 21.7892 29.0412 22.7765 29.0412C23.7638 29.0412 24.7376 28.8128 25.622 28.3738V28.3778Z" fill="white"/>
</svg>
