<svg width="45" height="46" viewBox="0 0 45 46" fill="none" xmlns="http://www.w3.org/2000/svg">
    <path d="M8.86401 2.21887C13.1713 0.956187 17.6265 0.268211 22.114 0.172852C26.8543 0.28093 31.5635 0.968046 36.137 2.21887C39.601 3.57687 41.748 5.27186 42.955 9.03687C44.22 13.2923 44.9082 17.6983 45.001 22.1368C44.8903 26.9268 44.2033 31.686 42.955 36.3118C41.748 40.0768 39.45 41.6209 36.137 43.1299C31.8959 44.4216 27.494 45.1096 23.061 45.1738C18.2648 45.0395 13.5 44.353 8.86099 43.1278C5.24599 41.7698 3.099 40.2278 2.043 36.3098C0.801296 31.5681 0.115685 26.6981 0 21.7979C0.0873712 17.47 0.775631 13.1753 2.04501 9.03687C3.40001 5.11987 5.55101 3.27387 8.86401 2.21887Z"
          fill="#0A9A73"/>
    <path d="M32.9 21.5668C32.7834 21.5671 32.6672 21.5812 32.554 21.6088L31.222 19.3258C31.415 19.1104 31.5419 18.844 31.5877 18.5584C31.6335 18.2728 31.5962 17.9801 31.4803 17.7151C31.3643 17.4501 31.1747 17.2241 30.9338 17.0639C30.693 16.9038 30.4112 16.8163 30.122 16.8118C29.8021 16.8135 29.4913 16.9181 29.2354 17.1101C28.9795 17.302 28.7922 17.5712 28.701 17.8778H25.981C25.8898 17.5712 25.7024 17.302 25.4466 17.1101C25.1907 16.9181 24.8799 16.8135 24.56 16.8118C24.4499 16.8119 24.3403 16.8243 24.233 16.8488L22.9 14.5798C23.0945 14.3645 23.2229 14.0977 23.2695 13.8113C23.3162 13.5249 23.2793 13.2311 23.1632 12.9652C23.047 12.6993 22.8567 12.4725 22.6149 12.3121C22.3731 12.1517 22.0901 12.0644 21.8 12.0608C21.4806 12.0623 21.1702 12.1663 20.9144 12.3575C20.6585 12.5487 20.4709 12.8169 20.379 13.1228H17.665C17.5633 12.7788 17.3405 12.4833 17.0378 12.2909C16.735 12.0985 16.3729 12.0222 16.0182 12.0763C15.6636 12.1303 15.3406 12.311 15.1089 12.5848C14.8772 12.8587 14.7526 13.2071 14.758 13.5658C14.7581 13.9449 14.9009 14.3102 15.158 14.5888L13.836 16.8558C13.7227 16.8282 13.6066 16.8141 13.49 16.8138C13.0908 16.8138 12.708 16.9724 12.4258 17.2546C12.1435 17.5369 11.985 17.9196 11.985 18.3188C11.985 18.7179 12.1435 19.1008 12.4258 19.383C12.708 19.6652 13.0908 19.8238 13.49 19.8238C13.6066 19.8235 13.7227 19.8094 13.836 19.7818L15.159 22.0508C14.9036 22.3301 14.7619 22.6948 14.7619 23.0733C14.7619 23.4518 14.9036 23.8165 15.159 24.0958L13.838 26.3608C13.7247 26.3332 13.6086 26.3191 13.492 26.3188C13.0928 26.3188 12.71 26.4774 12.4278 26.7596C12.1455 27.0419 11.987 27.4246 11.987 27.8238C11.987 28.2229 12.1455 28.6058 12.4278 28.888C12.71 29.1702 13.0928 29.3288 13.492 29.3288C13.6086 29.3285 13.7247 29.3144 13.838 29.2868L15.16 31.5538C14.9631 31.7681 14.8325 32.0348 14.7838 32.3216C14.7351 32.6085 14.7705 32.9033 14.8856 33.1706C15.0007 33.4378 15.1907 33.666 15.4326 33.8277C15.6745 33.9894 15.958 34.0776 16.249 34.0818C16.5683 34.0801 16.8787 33.9761 17.1345 33.7849C17.3903 33.5938 17.578 33.3256 17.67 33.0198H20.386C20.4876 33.3638 20.7104 33.6593 21.0132 33.8517C21.3159 34.0441 21.6781 34.1204 22.0327 34.0663C22.3873 34.0123 22.7104 33.8316 22.9421 33.5578C23.1738 33.284 23.2984 32.9355 23.293 32.5768C23.2938 32.2022 23.1551 31.8408 22.904 31.5628L24.232 29.2858C24.3468 29.3142 24.4647 29.3286 24.583 29.3288C24.9016 29.3263 25.2111 29.2219 25.4661 29.0308C25.7211 28.8397 25.9082 28.5719 26 28.2668H28.721C28.7889 28.4795 28.9038 28.6742 29.0572 28.8365C29.2106 28.9988 29.3985 29.1246 29.6071 29.2044C29.8157 29.2842 30.0395 29.3161 30.262 29.2977C30.4846 29.2793 30.7002 29.2111 30.8928 29.0981C31.0854 28.9852 31.2501 28.8303 31.3748 28.645C31.4995 28.4597 31.5809 28.2488 31.6129 28.0278C31.645 27.8068 31.627 27.5814 31.5602 27.3683C31.4934 27.1552 31.3795 26.9599 31.227 26.7968L32.547 24.5348C32.6602 24.5625 32.7764 24.5766 32.893 24.5768C33.2921 24.5768 33.6749 24.4182 33.9572 24.136C34.2394 23.8537 34.398 23.471 34.398 23.0718C34.398 22.6727 34.2394 22.2898 33.9572 22.0076C33.6749 21.7254 33.2921 21.5668 32.893 21.5668H32.9ZM30.149 26.3198C29.8297 26.3214 29.5193 26.4255 29.2635 26.6167C29.0077 26.8078 28.82 27.076 28.728 27.3818H26C25.908 27.076 25.7203 26.8078 25.4645 26.6167C25.2087 26.4255 24.8983 26.3214 24.579 26.3198C24.4607 26.32 24.3428 26.3344 24.228 26.3628L22.901 24.0878C23.1514 23.8094 23.29 23.4482 23.29 23.0738C23.29 22.6993 23.1514 22.3381 22.901 22.0598L24.229 19.7848C24.3353 19.8088 24.444 19.8208 24.553 19.8208C24.8716 19.8191 25.1813 19.7153 25.4367 19.5248C25.6921 19.3342 25.8797 19.0668 25.972 18.7618H28.7C28.7924 19.067 28.9801 19.3344 29.2357 19.525C29.4912 19.7156 29.8012 19.8193 30.12 19.8208C30.238 19.8206 30.3555 19.8062 30.47 19.7778L31.801 22.0588C31.5514 22.337 31.4133 22.6975 31.4133 23.0713C31.4133 23.445 31.5514 23.8056 31.801 24.0838L30.475 26.3558C30.3667 26.3316 30.256 26.3195 30.145 26.3198H30.149ZM21.81 31.0728C21.4908 31.0745 21.1806 31.1786 20.925 31.3698C20.6693 31.561 20.4818 31.8291 20.39 32.1348H17.664C17.5576 31.7727 17.3168 31.4649 16.9909 31.2745C16.665 31.0842 16.2787 31.0256 15.911 31.1108L14.585 28.8368C14.8346 28.5586 14.9727 28.1981 14.9727 27.8243C14.9727 27.4506 14.8346 27.09 14.585 26.8118L15.91 24.5368C16.0194 24.5627 16.1315 24.5758 16.244 24.5758C16.5639 24.5743 16.8749 24.47 17.1309 24.2782C17.387 24.0865 17.5746 23.8174 17.666 23.5108H20.385C20.4765 23.8173 20.6642 24.0863 20.9202 24.278C21.1762 24.4698 21.4871 24.5742 21.807 24.5758C21.9236 24.5756 22.0397 24.5615 22.153 24.5338L23.482 26.8118C23.2343 27.0895 23.0974 27.4487 23.0974 27.8208C23.0974 28.1929 23.2343 28.5521 23.482 28.8298L22.152 31.1098C22.0386 31.0834 21.9224 31.0706 21.806 31.0718L21.81 31.0728ZM14.585 17.3058L15.911 15.0368C16.0198 15.0625 16.1312 15.0756 16.243 15.0758C16.5623 15.0743 16.8728 14.9703 17.1286 14.7791C17.3844 14.5879 17.5721 14.3197 17.664 14.0138H20.386C20.4778 14.3195 20.6653 14.5877 20.921 14.7788C21.1766 14.97 21.4868 15.0741 21.806 15.0758C21.9219 15.0757 22.0373 15.0619 22.15 15.0348L23.468 17.2938C23.2095 17.5735 23.0659 17.9404 23.0659 18.3213C23.0659 18.7022 23.2095 19.0691 23.468 19.3488L22.146 21.6148C22.0337 21.5877 21.9185 21.5739 21.803 21.5738C21.4843 21.5755 21.1746 21.6793 20.9193 21.8698C20.6639 22.0604 20.4763 22.3278 20.384 22.6328H17.663C17.5706 22.3277 17.3829 22.0602 17.1273 21.8696C16.8717 21.679 16.5618 21.5753 16.243 21.5738C16.1316 21.5737 16.0205 21.5864 15.912 21.6118L14.584 19.3358C14.8336 19.0576 14.9717 18.6971 14.9717 18.3233C14.9717 17.9496 14.8336 17.589 14.584 17.3108L14.585 17.3058ZM22.419 23.0738C22.4174 23.1945 22.3802 23.312 22.312 23.4116C22.2438 23.5112 22.1477 23.5884 22.0357 23.6335C21.9237 23.6786 21.8009 23.6896 21.6828 23.665C21.5646 23.6405 21.4563 23.5816 21.3715 23.4957C21.2867 23.4098 21.2292 23.3008 21.2062 23.1823C21.1833 23.0638 21.1958 22.9411 21.2424 22.8298C21.2889 22.7184 21.3674 22.6233 21.4678 22.5564C21.5683 22.4895 21.6863 22.4538 21.807 22.4538C21.9705 22.4551 22.1267 22.5213 22.2415 22.6377C22.3562 22.7541 22.4201 22.9113 22.419 23.0748V23.0738ZM15.632 23.0738C15.6336 22.9531 15.6708 22.8356 15.739 22.736C15.8072 22.6364 15.9033 22.5592 16.0153 22.5141C16.1272 22.469 16.25 22.458 16.3682 22.4825C16.4864 22.5071 16.5947 22.566 16.6795 22.6519C16.7643 22.7378 16.8218 22.8468 16.8447 22.9653C16.8677 23.0838 16.8551 23.2064 16.8086 23.3178C16.762 23.4292 16.6836 23.5243 16.5831 23.5912C16.4827 23.6581 16.3647 23.6938 16.244 23.6938C16.0809 23.6925 15.9249 23.6266 15.8102 23.5106C15.6955 23.3946 15.6315 23.2379 15.632 23.0748V23.0738ZM30.117 17.6948C30.24 17.6932 30.3607 17.7282 30.4637 17.7954C30.5667 17.8626 30.6474 17.959 30.6956 18.0722C30.7437 18.1854 30.7571 18.3103 30.734 18.4312C30.7109 18.552 30.6524 18.6632 30.5659 18.7506C30.4794 18.8381 30.3688 18.8979 30.2483 18.9224C30.1278 18.9468 30.0027 18.9349 29.8889 18.888C29.7752 18.8412 29.6779 18.7616 29.6096 18.6593C29.5412 18.5571 29.5048 18.4368 29.505 18.3138C29.5045 18.1508 29.5686 17.9942 29.6833 17.8783C29.798 17.7625 29.954 17.6969 30.117 17.6958V17.6948ZM25.166 18.3138C25.1646 18.4345 25.1275 18.5522 25.0595 18.6519C24.9914 18.7516 24.8953 18.829 24.7834 18.8742C24.6714 18.9195 24.5486 18.9306 24.4304 18.9062C24.3121 18.8818 24.2037 18.823 24.1188 18.7371C24.0339 18.6512 23.9763 18.5422 23.9533 18.4236C23.9302 18.3051 23.9428 18.1824 23.9893 18.071C24.0358 17.9596 24.1142 17.8644 24.2147 17.7975C24.3152 17.7305 24.4332 17.6948 24.554 17.6948C24.7173 17.6961 24.8734 17.7621 24.9881 17.8783C25.1028 17.9945 25.1668 18.1505 25.166 18.3138ZM21.806 12.9448C21.9289 12.9432 22.0496 12.9782 22.1526 13.0454C22.2556 13.1125 22.3363 13.2088 22.3845 13.3219C22.4326 13.4351 22.446 13.56 22.423 13.6808C22.4 13.8016 22.3416 13.9128 22.2552 14.0003C22.1688 14.0878 22.0584 14.1477 21.9379 14.1722C21.8174 14.1968 21.6924 14.185 21.5786 14.1383C21.4648 14.0917 21.3675 14.0122 21.2991 13.9101C21.2306 13.8079 21.194 13.6878 21.194 13.5648C21.1935 13.4017 21.2575 13.245 21.3722 13.129C21.4869 13.013 21.6429 12.9471 21.806 12.9458V12.9448ZM16.243 12.9448C16.3659 12.9432 16.4866 12.9782 16.5896 13.0454C16.6926 13.1125 16.7733 13.2088 16.8215 13.3219C16.8696 13.4351 16.883 13.56 16.86 13.6808C16.837 13.8016 16.7786 13.9128 16.6922 14.0003C16.6058 14.0878 16.4954 14.1477 16.3749 14.1722C16.2544 14.1968 16.1294 14.185 16.0156 14.1383C15.9018 14.0917 15.8045 14.0122 15.7361 13.9101C15.6676 13.8079 15.631 13.6878 15.631 13.5648C15.6306 13.4839 15.6461 13.4037 15.6767 13.3288C15.7073 13.2539 15.7524 13.1858 15.8093 13.1283C15.8662 13.0708 15.9339 13.0252 16.0085 12.9938C16.0831 12.9625 16.1631 12.9462 16.244 12.9458L16.243 12.9448ZM12.874 18.3188C12.8754 18.1981 12.9124 18.0804 12.9805 17.9807C13.0486 17.881 13.1446 17.8036 13.2566 17.7584C13.3685 17.7131 13.4914 17.702 13.6096 17.7264C13.7279 17.7508 13.8363 17.8096 13.9211 17.8955C14.006 17.9814 14.0636 18.0904 14.0867 18.209C14.1097 18.3275 14.0972 18.4502 14.0507 18.5616C14.0042 18.673 13.9257 18.7682 13.8253 18.8351C13.7248 18.9021 13.6067 18.9378 13.486 18.9378C13.3229 18.9365 13.1669 18.8706 13.0522 18.7546C12.9375 18.6386 12.8735 18.4819 12.874 18.3188ZM12.874 27.8248C12.8756 27.7041 12.9128 27.5866 12.981 27.487C13.0492 27.3874 13.1453 27.3102 13.2573 27.2651C13.3692 27.22 13.492 27.209 13.6102 27.2336C13.7284 27.2581 13.8367 27.317 13.9215 27.4029C14.0063 27.4888 14.0638 27.5978 14.0867 27.7163C14.1097 27.8348 14.0971 27.9575 14.0506 28.0688C14.004 28.1802 13.9256 28.2753 13.8251 28.3422C13.7247 28.4091 13.6067 28.4448 13.486 28.4448C13.3225 28.4435 13.1663 28.3773 13.0515 28.2609C12.9368 28.1445 12.8729 27.9873 12.874 27.8238V27.8248ZM16.243 33.1978C16.12 33.1994 15.9994 33.1644 15.8964 33.0972C15.7934 33.0301 15.7127 32.9338 15.6645 32.8207C15.6164 32.7075 15.6029 32.5826 15.6259 32.4618C15.649 32.341 15.7074 32.2298 15.7937 32.1423C15.8801 32.0548 15.9906 31.9949 16.1111 31.9704C16.2315 31.9458 16.3566 31.9576 16.4704 32.0043C16.5841 32.051 16.6814 32.1304 16.7499 32.2325C16.8184 32.3346 16.855 32.4548 16.855 32.5778C16.8555 32.7407 16.7916 32.8973 16.6771 33.0133C16.5626 33.1292 16.4069 33.1952 16.244 33.1968L16.243 33.1978ZM21.806 33.1978C21.683 33.1994 21.5624 33.1644 21.4594 33.0972C21.3564 33.0301 21.2757 32.9338 21.2275 32.8207C21.1794 32.7075 21.1659 32.5826 21.1889 32.4618C21.212 32.341 21.2704 32.2298 21.3567 32.1423C21.4431 32.0548 21.5536 31.9949 21.6741 31.9704C21.7945 31.9458 21.9196 31.9576 22.0334 32.0043C22.1471 32.051 22.2444 32.1304 22.3129 32.2325C22.3814 32.3346 22.418 32.4548 22.418 32.5778C22.4185 32.7409 22.3544 32.8976 22.2397 33.0136C22.1251 33.1296 21.9691 33.1965 21.806 33.1978ZM24.582 28.4448C24.459 28.4464 24.3384 28.4114 24.2354 28.3442C24.1324 28.2771 24.0517 28.1808 24.0035 28.0677C23.9554 27.9545 23.9419 27.8296 23.9649 27.7088C23.988 27.588 24.0464 27.4768 24.1327 27.3893C24.2191 27.3018 24.3296 27.242 24.4501 27.2174C24.5705 27.1928 24.6956 27.2046 24.8094 27.2513C24.9231 27.298 25.0204 27.3774 25.0889 27.4795C25.1574 27.5816 25.194 27.7018 25.194 27.8248C25.1945 27.9878 25.1306 28.1443 25.0161 28.2603C24.9016 28.3762 24.7459 28.4422 24.583 28.4438L24.582 28.4448ZM30.145 28.4448C30.022 28.4464 29.9014 28.4114 29.7984 28.3442C29.6954 28.2771 29.6147 28.1808 29.5665 28.0677C29.5184 27.9545 29.5049 27.8296 29.5279 27.7088C29.551 27.588 29.6094 27.4768 29.6957 27.3893C29.7821 27.3018 29.8926 27.242 30.0131 27.2174C30.1335 27.1928 30.2586 27.2046 30.3724 27.2513C30.4861 27.298 30.5834 27.3774 30.6519 27.4795C30.7204 27.5816 30.757 27.7018 30.757 27.8248C30.7575 27.9879 30.6934 28.1446 30.5787 28.2606C30.4641 28.3766 30.3081 28.4425 30.145 28.4438V28.4448ZM32.896 23.6918C32.773 23.6934 32.6523 23.6584 32.5493 23.5912C32.4462 23.524 32.3655 23.4276 32.3174 23.3144C32.2693 23.2012 32.2559 23.0763 32.279 22.9554C32.3021 22.8346 32.3606 22.7234 32.4471 22.636C32.5336 22.5485 32.6441 22.4887 32.7647 22.4642C32.8852 22.4398 33.0103 22.4517 33.1241 22.4986C33.2378 22.5454 33.335 22.625 33.4034 22.7273C33.4718 22.8295 33.5082 22.9498 33.508 23.0728C33.5083 23.2351 33.4446 23.3909 33.3308 23.5066C33.217 23.6222 33.0622 23.6884 32.9 23.6908L32.896 23.6918Z"
          fill="white"/>
</svg>
