<svg width="45" height="45" viewBox="0 0 45 45" fill="none" xmlns="http://www.w3.org/2000/svg">
<path d="M8.86401 2.04602C13.1713 0.783335 17.6265 0.0953594 22.114 0C26.8543 0.108079 31.5635 0.795194 36.137 2.04602C39.601 3.40402 41.748 5.09901 42.955 8.86401C44.22 13.1195 44.9082 17.5254 45.001 21.964C44.8903 26.754 44.2033 31.5131 42.955 36.1389C41.748 39.9039 39.45 41.448 36.137 42.957C31.8959 44.2488 27.494 44.9368 23.061 45.001C18.2648 44.8667 13.5 44.1801 8.86099 42.955C5.24599 41.597 3.099 40.055 2.043 36.137C0.801296 31.3953 0.115685 26.5252 0 21.625C0.0873712 17.2972 0.775631 13.0024 2.04501 8.86401C3.40001 4.94701 5.55101 3.10102 8.86401 2.04602Z" fill="#0A9A73"/>
<path d="M19.248 29.19C17.997 29.2031 16.7705 28.8441 15.724 28.1587C14.6775 27.4732 13.8583 26.4922 13.3705 25.3402C12.8827 24.1882 12.7483 22.9173 12.9843 21.6888C13.2203 20.4602 13.8161 19.3296 14.696 18.4403C15.576 17.5511 16.7003 16.9434 17.9263 16.6945C19.1523 16.4456 20.4246 16.5667 21.5816 17.0424C22.7386 17.518 23.7282 18.3268 24.4246 19.366C25.121 20.4053 25.4929 21.628 25.493 22.879C25.4999 24.5435 24.8463 26.1427 23.6755 27.3259C22.5047 28.509 20.9124 29.1794 19.248 29.19ZM19.248 17.311C18.1444 17.2997 17.0623 17.6166 16.1392 18.2215C15.2161 18.8265 14.4935 19.6921 14.0634 20.7085C13.6332 21.7248 13.5147 22.8461 13.7231 23.9299C13.9315 25.0137 14.4572 26.0112 15.2336 26.7956C16.01 27.58 17.002 28.116 18.0836 28.3355C19.1652 28.555 20.2876 28.4481 21.3084 28.0284C22.3291 27.6087 23.2021 26.8951 23.8165 25.9783C24.4309 25.0614 24.7589 23.9827 24.759 22.879C24.7648 21.4104 24.1879 19.9994 23.1548 18.9555C22.1216 17.9117 20.7166 17.3203 19.248 17.311Z" fill="white"/>
<path d="M19.2479 34.758C17.5835 34.7474 15.9912 34.077 14.8204 32.8939C13.6496 31.7107 12.996 30.1115 13.0029 28.447C13.0003 28.3971 13.0079 28.3472 13.0252 28.3004C13.0425 28.2535 13.0691 28.2107 13.1035 28.1745C13.1379 28.1382 13.1793 28.1094 13.2252 28.0897C13.2711 28.07 13.3205 28.0598 13.3704 28.0598C13.4204 28.0598 13.4698 28.07 13.5157 28.0897C13.5616 28.1094 13.603 28.1382 13.6373 28.1745C13.6717 28.2107 13.6984 28.2535 13.7157 28.3004C13.733 28.3472 13.7405 28.3971 13.7379 28.447C13.7281 29.1769 13.8634 29.9015 14.1359 30.5786C14.4084 31.2558 14.8127 31.8721 15.3254 32.3918C15.8381 32.9114 16.4489 33.324 17.1223 33.6056C17.7958 33.8872 18.5185 34.0322 19.2484 34.0322C19.9784 34.0322 20.7011 33.8872 21.3745 33.6056C22.048 33.324 22.6588 32.9114 23.1715 32.3918C23.6841 31.8721 24.0885 31.2558 24.361 30.5786C24.6335 29.9015 24.7688 29.1769 24.7589 28.447C24.7589 28.3497 24.7976 28.2563 24.8664 28.1875C24.9353 28.1187 25.0286 28.08 25.1259 28.08C25.2233 28.08 25.3166 28.1187 25.3854 28.1875C25.4543 28.2563 25.4929 28.3497 25.4929 28.447C25.4999 30.1115 24.8462 31.7107 23.6755 32.8939C22.5047 34.077 20.9124 34.7474 19.2479 34.758Z" fill="white"/>
<path d="M19.2479 33.644C17.5836 33.6336 15.9913 32.9635 14.8205 31.7805C13.6497 30.5975 12.996 28.9983 13.0029 27.334C13.0003 27.2841 13.0079 27.2342 13.0252 27.1873C13.0425 27.1405 13.0691 27.0977 13.1035 27.0614C13.1379 27.0252 13.1793 26.9964 13.2252 26.9767C13.2711 26.9569 13.3205 26.9468 13.3704 26.9468C13.4204 26.9468 13.4698 26.9569 13.5157 26.9767C13.5616 26.9964 13.603 27.0252 13.6373 27.0614C13.6717 27.0977 13.6984 27.1405 13.7157 27.1873C13.733 27.2342 13.7405 27.2841 13.7379 27.334C13.7281 28.0638 13.8634 28.7884 14.1359 29.4656C14.4084 30.1428 14.8127 30.7591 15.3254 31.2787C15.8381 31.7983 16.4489 32.2109 17.1223 32.4926C17.7958 32.7742 18.5185 32.9192 19.2484 32.9192C19.9784 32.9192 20.7011 32.7742 21.3745 32.4926C22.048 32.2109 22.6588 31.7983 23.1715 31.2787C23.6841 30.7591 24.0885 30.1428 24.361 29.4656C24.6335 28.7884 24.7688 28.0638 24.7589 27.334C24.7589 27.2366 24.7976 27.1433 24.8664 27.0745C24.9353 27.0056 25.0286 26.967 25.1259 26.967C25.2233 26.967 25.3166 27.0056 25.3854 27.0745C25.4543 27.1433 25.4929 27.2366 25.4929 27.334C25.4999 28.9983 24.8462 30.5975 23.6754 31.7805C22.5046 32.9635 20.9123 33.6336 19.2479 33.644Z" fill="white"/>
<path d="M19.248 28.0761C18.2172 28.0874 17.2062 27.792 16.3436 27.2276C15.481 26.6631 14.8057 25.855 14.4033 24.9058C14.001 23.9567 13.8899 22.9094 14.084 21.897C14.2782 20.8846 14.7689 19.9527 15.4938 19.2197C16.2187 18.4868 17.1451 17.9859 18.1554 17.7806C19.1656 17.5753 20.214 17.6749 21.1675 18.0667C22.121 18.4585 22.9366 19.1249 23.5105 19.9813C24.0844 20.8376 24.3909 21.8452 24.391 22.8761C24.3974 24.2473 23.8594 25.565 22.8951 26.5399C21.9309 27.5149 20.6192 28.0673 19.248 28.0761ZM19.248 18.4251C18.3649 18.4157 17.4989 18.6691 16.7601 19.153C16.0213 19.6369 15.443 20.3294 15.0986 21.1426C14.7543 21.9559 14.6594 22.8531 14.826 23.7204C14.9926 24.5877 15.4133 25.3859 16.0345 26.0136C16.6557 26.6413 17.4495 27.0702 18.315 27.2458C19.1805 27.4215 20.0787 27.3359 20.8955 27C21.7123 26.6641 22.4108 26.093 22.9023 25.3592C23.3938 24.6255 23.6561 23.7622 23.656 22.8791C23.6608 21.7043 23.1993 20.5756 22.373 19.7406C21.5466 18.9056 20.4227 18.4325 19.248 18.4251Z" fill="white"/>
<path d="M25.123 28.819C25.0745 28.8187 25.0264 28.8089 24.9817 28.79C24.937 28.7712 24.8964 28.7437 24.8623 28.7091C24.8282 28.6745 24.8013 28.6336 24.783 28.5886C24.7648 28.5436 24.7556 28.4955 24.756 28.447V22.879C24.756 22.7816 24.7947 22.6883 24.8635 22.6194C24.9323 22.5506 25.0257 22.512 25.123 22.512C25.2203 22.512 25.3137 22.5506 25.3825 22.6194C25.4513 22.6883 25.49 22.7816 25.49 22.879V28.447C25.4904 28.4955 25.4812 28.5436 25.463 28.5886C25.4447 28.6336 25.4178 28.6745 25.3837 28.7091C25.3496 28.7437 25.309 28.7712 25.2643 28.79C25.2195 28.8089 25.1715 28.8187 25.123 28.819Z" fill="white"/>
<path d="M23.656 31.632C23.6074 31.6318 23.5594 31.6221 23.5146 31.6034C23.4698 31.5847 23.4292 31.5573 23.395 31.5228C23.3608 31.4884 23.3338 31.4475 23.3154 31.4026C23.297 31.3576 23.2877 31.3095 23.288 31.261V26.807C23.2854 26.7571 23.2929 26.7072 23.3102 26.6604C23.3275 26.6135 23.3542 26.5707 23.3886 26.5345C23.4229 26.4982 23.4643 26.4694 23.5102 26.4497C23.5561 26.43 23.6055 26.4198 23.6555 26.4198C23.7054 26.4198 23.7548 26.43 23.8007 26.4497C23.8466 26.4694 23.888 26.4982 23.9224 26.5345C23.9568 26.5707 23.9834 26.6135 24.0007 26.6604C24.018 26.7072 24.0256 26.7571 24.023 26.807V31.258C24.0232 31.3064 24.014 31.3545 23.9957 31.3993C23.9774 31.4442 23.9504 31.485 23.9163 31.5195C23.8822 31.5539 23.8417 31.5813 23.797 31.6001C23.7524 31.6189 23.7044 31.6287 23.656 31.629V31.632Z" fill="white"/>
<path d="M22.186 32.8479C22.1375 32.8478 22.0895 32.838 22.0448 32.8193C22 32.8006 21.9595 32.7732 21.9253 32.7387C21.8912 32.7042 21.8643 32.6633 21.846 32.6184C21.8278 32.5735 21.8186 32.5254 21.819 32.4769V28.0239C21.8164 27.974 21.824 27.9241 21.8412 27.8773C21.8585 27.8304 21.8852 27.7876 21.9196 27.7514C21.954 27.7152 21.9953 27.6863 22.0412 27.6666C22.0871 27.6469 22.1365 27.6367 22.1865 27.6367C22.2364 27.6367 22.2858 27.6469 22.3317 27.6666C22.3776 27.6863 22.419 27.7152 22.4534 27.7514C22.4878 27.7876 22.5144 27.8304 22.5317 27.8773C22.549 27.9241 22.5566 27.974 22.554 28.0239V32.4769C22.5542 32.5254 22.5449 32.5736 22.5266 32.6185C22.5082 32.6634 22.4811 32.7043 22.447 32.7388C22.4128 32.7732 22.3721 32.8006 22.3273 32.8193C22.2826 32.8381 22.2345 32.8478 22.186 32.8479Z" fill="white"/>
<path d="M20.7169 33.458C20.6189 33.4575 20.5252 33.4181 20.4562 33.3486C20.3872 33.279 20.3486 33.185 20.3489 33.087V28.634C20.3463 28.5841 20.3539 28.5342 20.3712 28.4874C20.3885 28.4405 20.4151 28.3977 20.4495 28.3615C20.4839 28.3253 20.5253 28.2964 20.5711 28.2767C20.617 28.257 20.6664 28.2468 20.7164 28.2468C20.7663 28.2468 20.8158 28.257 20.8616 28.2767C20.9075 28.2964 20.9489 28.3253 20.9833 28.3615C21.0177 28.3977 21.0443 28.4405 21.0616 28.4874C21.0789 28.5342 21.0865 28.5841 21.0839 28.634V33.087C21.0842 33.1355 21.0749 33.1835 21.0566 33.2284C21.0383 33.2732 21.0113 33.3141 20.9772 33.3485C20.9431 33.383 20.9026 33.4104 20.8579 33.4291C20.8133 33.4479 20.7653 33.4577 20.7169 33.458Z" fill="white"/>
<path d="M19.2479 33.6429C19.1994 33.6427 19.1515 33.6329 19.1068 33.6141C19.0621 33.5953 19.0216 33.5679 18.9875 33.5334C18.9535 33.499 18.9265 33.4582 18.9082 33.4133C18.8899 33.3684 18.8806 33.3204 18.8809 33.2719V28.8189C18.8783 28.7691 18.8858 28.7192 18.9031 28.6723C18.9204 28.6255 18.9471 28.5826 18.9815 28.5464C19.0158 28.5102 19.0572 28.4814 19.1031 28.4616C19.149 28.4419 19.1984 28.4318 19.2484 28.4318C19.2983 28.4318 19.3477 28.4419 19.3936 28.4616C19.4395 28.4814 19.4809 28.5102 19.5153 28.5464C19.5497 28.5826 19.5763 28.6255 19.5936 28.6723C19.6109 28.7192 19.6185 28.7691 19.6159 28.8189V33.2719C19.6161 33.3699 19.5775 33.464 19.5086 33.5335C19.4396 33.6031 19.3458 33.6424 19.2479 33.6429Z" fill="white"/>
<path d="M17.7779 33.458C17.7294 33.4577 17.6815 33.4479 17.6368 33.4291C17.5922 33.4103 17.5516 33.3829 17.5176 33.3485C17.4835 33.314 17.4565 33.2732 17.4382 33.2283C17.4199 33.1835 17.4106 33.1354 17.4109 33.087V28.634C17.4109 28.5366 17.4496 28.4433 17.5184 28.3745C17.5872 28.3056 17.6806 28.267 17.7779 28.267C17.8752 28.267 17.9686 28.3056 18.0374 28.3745C18.1062 28.4433 18.1449 28.5366 18.1449 28.634V33.087C18.1452 33.1354 18.1359 33.1835 18.1176 33.2283C18.0993 33.2732 18.0723 33.314 18.0382 33.3485C18.0042 33.3829 17.9636 33.4103 17.919 33.4291C17.8743 33.4479 17.8264 33.4577 17.7779 33.458Z" fill="white"/>
<path d="M16.3079 32.8479C16.2594 32.8478 16.2114 32.838 16.1667 32.8193C16.122 32.8006 16.0814 32.7732 16.0473 32.7387C16.0132 32.7042 15.9862 32.6633 15.968 32.6184C15.9497 32.5735 15.9405 32.5254 15.9409 32.4769V28.0239C15.9383 27.974 15.9459 27.9241 15.9632 27.8773C15.9805 27.8304 16.0071 27.7876 16.0415 27.7514C16.0759 27.7152 16.1173 27.6863 16.1632 27.6666C16.2091 27.6469 16.2585 27.6367 16.3084 27.6367C16.3584 27.6367 16.4078 27.6469 16.4537 27.6666C16.4996 27.6863 16.541 27.7152 16.5753 27.7514C16.6097 27.7876 16.6364 27.8304 16.6537 27.8773C16.671 27.9241 16.6785 27.974 16.6759 28.0239V32.4769C16.6763 32.5255 16.6671 32.5737 16.6488 32.6187C16.6305 32.6636 16.6034 32.7046 16.5692 32.7391C16.535 32.7736 16.4943 32.8009 16.4495 32.8196C16.4046 32.8383 16.3565 32.8479 16.3079 32.8479Z" fill="white"/>
<path d="M14.8389 31.6319C14.7905 31.6317 14.7425 31.6219 14.6979 31.6031C14.6532 31.5843 14.6127 31.5569 14.5786 31.5224C14.5445 31.488 14.5176 31.4472 14.4993 31.4023C14.4809 31.3574 14.4717 31.3094 14.4719 31.2609V26.8069C14.4719 26.7096 14.5106 26.6163 14.5794 26.5474C14.6482 26.4786 14.7416 26.4399 14.8389 26.4399C14.9363 26.4399 15.0296 26.4786 15.0984 26.5474C15.1673 26.6163 15.2059 26.7096 15.2059 26.8069V31.2579C15.2062 31.3064 15.1969 31.3544 15.1786 31.3993C15.1603 31.4442 15.1333 31.485 15.0993 31.5194C15.0652 31.5539 15.0247 31.5813 14.98 31.6001C14.9353 31.6189 14.8874 31.6287 14.8389 31.6289V31.6319Z" fill="white"/>
<path d="M13.367 28.819C13.3185 28.8187 13.2705 28.8089 13.2257 28.79C13.181 28.7712 13.1404 28.7437 13.1063 28.7091C13.0722 28.6746 13.0453 28.6336 13.027 28.5887C13.0088 28.5437 12.9996 28.4955 13 28.447V22.879C12.9974 22.8291 13.005 22.7792 13.0223 22.7324C13.0396 22.6855 13.0662 22.6427 13.1006 22.6065C13.135 22.5703 13.1764 22.5414 13.2223 22.5217C13.2682 22.502 13.3176 22.4918 13.3675 22.4918C13.4175 22.4918 13.4669 22.502 13.5128 22.5217C13.5586 22.5414 13.6 22.5703 13.6344 22.6065C13.6688 22.6427 13.6955 22.6855 13.7127 22.7324C13.73 22.7792 13.7376 22.8291 13.735 22.879V28.447C13.7354 28.4956 13.7262 28.5438 13.7079 28.5889C13.6896 28.6339 13.6626 28.6749 13.6284 28.7095C13.5942 28.7441 13.5535 28.7716 13.5086 28.7903C13.4638 28.8091 13.4156 28.8189 13.367 28.819Z" fill="white"/>
<path d="M14.8479 24.7349C14.7495 24.7349 14.6552 24.6959 14.5856 24.6263C14.516 24.5567 14.4769 24.4623 14.4769 24.3639C14.4769 24.2655 14.516 24.1712 14.5856 24.1016C14.6552 24.032 14.7495 23.9929 14.8479 23.9929C14.9463 23.9929 15.0407 24.032 15.1103 24.1016C15.1798 24.1712 15.2189 24.2655 15.2189 24.3639C15.2189 24.4623 15.1798 24.5567 15.1103 24.6263C15.0407 24.6959 14.9463 24.7349 14.8479 24.7349Z" fill="white"/>
<path d="M16.3169 26.22C16.2185 26.22 16.1242 26.1809 16.0546 26.1114C15.985 26.0418 15.9459 25.9474 15.9459 25.849C15.9459 25.7506 15.985 25.6563 16.0546 25.5867C16.1242 25.5171 16.2185 25.478 16.3169 25.478C16.4153 25.478 16.5097 25.5171 16.5793 25.5867C16.6488 25.6563 16.6879 25.7506 16.6879 25.849C16.6879 25.9474 16.6488 26.0418 16.5793 26.1114C16.5097 26.1809 16.4153 26.22 16.3169 26.22Z" fill="white"/>
<path d="M17.7869 27.7049C17.6885 27.7049 17.5941 27.6658 17.5246 27.5963C17.455 27.5267 17.4159 27.4323 17.4159 27.3339C17.4159 27.2355 17.455 27.1411 17.5246 27.0716C17.5941 27.002 17.6885 26.9629 17.7869 26.9629C17.8853 26.9629 17.9797 27.002 18.0492 27.0716C18.1188 27.1411 18.1579 27.2355 18.1579 27.3339C18.1579 27.4323 18.1188 27.5267 18.0492 27.5963C17.9797 27.6658 17.8853 27.7049 17.7869 27.7049Z" fill="white"/>
<path d="M14.848 21.7659C14.7528 21.761 14.6631 21.7197 14.5975 21.6506C14.5318 21.5814 14.4952 21.4898 14.4952 21.3944C14.4952 21.2991 14.5318 21.2074 14.5975 21.1383C14.6631 21.0692 14.7528 21.0279 14.848 21.0229C14.9432 21.0279 15.0328 21.0692 15.0985 21.1383C15.1641 21.2074 15.2007 21.2991 15.2007 21.3944C15.2007 21.4898 15.1641 21.5814 15.0985 21.6506C15.0328 21.7197 14.9432 21.761 14.848 21.7659Z" fill="white"/>
<path d="M16.3169 23.2499C16.2185 23.2499 16.1242 23.2108 16.0546 23.1413C15.985 23.0717 15.9459 22.9773 15.9459 22.8789C15.9459 22.7805 15.985 22.6862 16.0546 22.6166C16.1242 22.547 16.2185 22.5079 16.3169 22.5079C16.4153 22.5079 16.5097 22.547 16.5793 22.6166C16.6488 22.6862 16.6879 22.7805 16.6879 22.8789C16.6879 22.9773 16.6488 23.0717 16.5793 23.1413C16.5097 23.2108 16.4153 23.2499 16.3169 23.2499Z" fill="white"/>
<path d="M17.7869 24.7349C17.6885 24.7349 17.5941 24.6959 17.5246 24.6263C17.455 24.5567 17.4159 24.4623 17.4159 24.3639C17.4159 24.2655 17.455 24.1712 17.5246 24.1016C17.5941 24.032 17.6885 23.9929 17.7869 23.9929C17.8853 23.9929 17.9797 24.032 18.0492 24.1016C18.1188 24.1712 18.1579 24.2655 18.1579 24.3639C18.1579 24.4623 18.1188 24.5567 18.0492 24.6263C17.9797 24.6959 17.8853 24.7349 17.7869 24.7349Z" fill="white"/>
<path d="M19.2559 26.22C19.1575 26.22 19.0631 26.1809 18.9935 26.1114C18.924 26.0418 18.8849 25.9474 18.8849 25.849C18.8849 25.7506 18.924 25.6563 18.9935 25.5867C19.0631 25.5171 19.1575 25.478 19.2559 25.478C19.3543 25.478 19.4486 25.5171 19.5182 25.5867C19.5878 25.6563 19.6269 25.7506 19.6269 25.849C19.6269 25.9474 19.5878 26.0418 19.5182 26.1114C19.4486 26.1809 19.3543 26.22 19.2559 26.22Z" fill="white"/>
<path d="M20.726 27.7049C20.6276 27.7049 20.5332 27.6658 20.4636 27.5963C20.3941 27.5267 20.355 27.4323 20.355 27.3339C20.355 27.2355 20.3941 27.1411 20.4636 27.0716C20.5332 27.002 20.6276 26.9629 20.726 26.9629C20.8244 26.9629 20.9187 27.002 20.9883 27.0716C21.0579 27.1411 21.097 27.2355 21.097 27.3339C21.097 27.4323 21.0579 27.5267 20.9883 27.5963C20.9187 27.6658 20.8244 27.7049 20.726 27.7049Z" fill="white"/>
<path d="M16.317 20.281C16.2218 20.276 16.1321 20.2347 16.0665 20.1656C16.0008 20.0965 15.9642 20.0048 15.9642 19.9095C15.9642 19.8141 16.0008 19.7224 16.0665 19.6533C16.1321 19.5842 16.2218 19.5429 16.317 19.538C16.4121 19.5429 16.5018 19.5842 16.5674 19.6533C16.6331 19.7224 16.6697 19.8141 16.6697 19.9095C16.6697 20.0048 16.6331 20.0965 16.5674 20.1656C16.5018 20.2347 16.4121 20.276 16.317 20.281Z" fill="white"/>
<path d="M17.7869 21.7659C17.6917 21.761 17.6021 21.7197 17.5364 21.6506C17.4708 21.5814 17.4342 21.4898 17.4342 21.3944C17.4342 21.2991 17.4708 21.2074 17.5364 21.1383C17.6021 21.0692 17.6917 21.0279 17.7869 21.0229C17.8821 21.0279 17.9718 21.0692 18.0374 21.1383C18.1031 21.2074 18.1396 21.2991 18.1396 21.3944C18.1396 21.4898 18.1031 21.5814 18.0374 21.6506C17.9718 21.7197 17.8821 21.761 17.7869 21.7659Z" fill="white"/>
<path d="M19.2559 23.2499C19.1575 23.2499 19.0631 23.2108 18.9935 23.1413C18.924 23.0717 18.8849 22.9773 18.8849 22.8789C18.8849 22.7805 18.924 22.6862 18.9935 22.6166C19.0631 22.547 19.1575 22.5079 19.2559 22.5079C19.3543 22.5079 19.4486 22.547 19.5182 22.6166C19.5878 22.6862 19.6269 22.7805 19.6269 22.8789C19.6269 22.9773 19.5878 23.0717 19.5182 23.1413C19.4486 23.2108 19.3543 23.2499 19.2559 23.2499Z" fill="white"/>
<path d="M20.726 24.7349C20.6276 24.7349 20.5332 24.6959 20.4636 24.6263C20.3941 24.5567 20.355 24.4623 20.355 24.3639C20.355 24.2655 20.3941 24.1712 20.4636 24.1016C20.5332 24.032 20.6276 23.9929 20.726 23.9929C20.8244 23.9929 20.9187 24.032 20.9883 24.1016C21.0579 24.1712 21.097 24.2655 21.097 24.3639C21.097 24.4623 21.0579 24.5567 20.9883 24.6263C20.9187 24.6959 20.8244 24.7349 20.726 24.7349Z" fill="white"/>
<path d="M22.195 26.22C22.0966 26.22 22.0022 26.1809 21.9326 26.1114C21.8631 26.0418 21.824 25.9474 21.824 25.849C21.824 25.7506 21.8631 25.6563 21.9326 25.5867C22.0022 25.5171 22.0966 25.478 22.195 25.478C22.2934 25.478 22.3877 25.5171 22.4573 25.5867C22.5269 25.6563 22.566 25.7506 22.566 25.849C22.566 25.9474 22.5269 26.0418 22.4573 26.1114C22.3877 26.1809 22.2934 26.22 22.195 26.22Z" fill="white"/>
<path d="M17.7869 18.796C17.6887 18.7957 17.5946 18.7565 17.5252 18.687C17.4558 18.6174 17.4169 18.5232 17.4169 18.425C17.4164 18.3765 17.4254 18.3284 17.4436 18.2835C17.4617 18.2386 17.4886 18.1977 17.5226 18.1632C17.5566 18.1287 17.5972 18.1013 17.6418 18.0826C17.6865 18.0638 17.7344 18.0541 17.7829 18.054C17.8813 18.054 17.9757 18.0931 18.0452 18.1626C18.1148 18.2322 18.1539 18.3266 18.1539 18.425C18.1539 18.5234 18.1148 18.6177 18.0452 18.6873C17.9757 18.7569 17.8813 18.796 17.7829 18.796H17.7869Z" fill="white"/>
<path d="M19.2559 20.281C19.1607 20.276 19.0711 20.2347 19.0054 20.1656C18.9398 20.0965 18.9032 20.0048 18.9032 19.9095C18.9032 19.8141 18.9398 19.7224 19.0054 19.6533C19.0711 19.5842 19.1607 19.5429 19.2559 19.538C19.3511 19.5429 19.4408 19.5842 19.5064 19.6533C19.572 19.7224 19.6086 19.8141 19.6086 19.9095C19.6086 20.0048 19.572 20.0965 19.5064 20.1656C19.4408 20.2347 19.3511 20.276 19.2559 20.281Z" fill="white"/>
<path d="M20.7259 21.7659C20.6307 21.761 20.541 21.7197 20.4754 21.6506C20.4098 21.5814 20.3732 21.4898 20.3732 21.3944C20.3732 21.2991 20.4098 21.2074 20.4754 21.1383C20.541 21.0692 20.6307 21.0279 20.7259 21.0229C20.8211 21.0279 20.9107 21.0692 20.9764 21.1383C21.042 21.2074 21.0786 21.2991 21.0786 21.3944C21.0786 21.4898 21.042 21.5814 20.9764 21.6506C20.9107 21.7197 20.8211 21.761 20.7259 21.7659Z" fill="white"/>
<path d="M22.195 23.2499C22.0966 23.2499 22.0022 23.2108 21.9326 23.1413C21.8631 23.0717 21.824 22.9773 21.824 22.8789C21.824 22.7805 21.8631 22.6862 21.9326 22.6166C22.0022 22.547 22.0966 22.5079 22.195 22.5079C22.2934 22.5079 22.3877 22.547 22.4573 22.6166C22.5269 22.6862 22.566 22.7805 22.566 22.8789C22.566 22.9773 22.5269 23.0717 22.4573 23.1413C22.3877 23.2108 22.2934 23.2499 22.195 23.2499Z" fill="white"/>
<path d="M23.664 24.7349C23.5656 24.7349 23.4712 24.6959 23.4016 24.6263C23.3321 24.5567 23.293 24.4623 23.293 24.3639C23.293 24.2655 23.3321 24.1712 23.4016 24.1016C23.4712 24.032 23.5656 23.9929 23.664 23.9929C23.7624 23.9929 23.8567 24.032 23.9263 24.1016C23.9959 24.1712 24.035 24.2655 24.035 24.3639C24.035 24.4623 23.9959 24.5567 23.9263 24.6263C23.8567 24.6959 23.7624 24.7349 23.664 24.7349Z" fill="white"/>
<path d="M20.726 18.796C20.6276 18.796 20.5332 18.7569 20.4636 18.6873C20.3941 18.6177 20.355 18.5234 20.355 18.425C20.355 18.3266 20.3941 18.2322 20.4636 18.1626C20.5332 18.0931 20.6276 18.054 20.726 18.054C20.8244 18.054 20.9187 18.0931 20.9883 18.1626C21.0579 18.2322 21.097 18.3266 21.097 18.425C21.097 18.5234 21.0579 18.6177 20.9883 18.6873C20.9187 18.7569 20.8244 18.796 20.726 18.796Z" fill="white"/>
<path d="M22.1949 20.281C22.0997 20.276 22.01 20.2347 21.9444 20.1656C21.8788 20.0965 21.8422 20.0048 21.8422 19.9095C21.8422 19.8141 21.8788 19.7224 21.9444 19.6533C22.01 19.5842 22.0997 19.5429 22.1949 19.538C22.2901 19.5429 22.3797 19.5842 22.4454 19.6533C22.511 19.7224 22.5476 19.8141 22.5476 19.9095C22.5476 20.0048 22.511 20.0965 22.4454 20.1656C22.3797 20.2347 22.2901 20.276 22.1949 20.281Z" fill="white"/>
<path d="M23.6639 21.7659C23.5687 21.761 23.479 21.7197 23.4134 21.6506C23.3478 21.5814 23.3112 21.4898 23.3112 21.3944C23.3112 21.2991 23.3478 21.2074 23.4134 21.1383C23.479 21.0692 23.5687 21.0279 23.6639 21.0229C23.7591 21.0279 23.8487 21.0692 23.9144 21.1383C23.98 21.2074 24.0166 21.2991 24.0166 21.3944C24.0166 21.4898 23.98 21.5814 23.9144 21.6506C23.8487 21.7197 23.7591 21.761 23.6639 21.7659Z" fill="white"/>
<path d="M24.025 15.458C23.9765 15.4577 23.9286 15.4479 23.8839 15.4291C23.8392 15.4103 23.7987 15.3829 23.7646 15.3485C23.7305 15.314 23.7036 15.2732 23.6853 15.2283C23.667 15.1835 23.6577 15.1354 23.658 15.087C23.645 14.1144 23.9837 13.1697 24.6117 12.4269C25.2397 11.6841 26.1148 11.193 27.076 11.0439C28.0372 10.8948 29.02 11.0979 29.8434 11.6156C30.6669 12.1334 31.2757 12.9311 31.558 13.862C31.5872 13.9555 31.5785 14.0568 31.5335 14.1438C31.4886 14.2309 31.4111 14.2967 31.3179 14.327C31.2718 14.3417 31.2232 14.347 31.1749 14.3428C31.1267 14.3385 31.0798 14.3248 31.0369 14.3023C30.994 14.2798 30.956 14.249 30.9252 14.2117C30.8943 14.1744 30.8711 14.1313 30.8569 14.085C30.6284 13.3214 30.1313 12.6664 29.4574 12.2409C28.7835 11.8154 27.9784 11.6481 27.1908 11.77C26.4031 11.8919 25.6863 12.2948 25.1725 12.9041C24.6588 13.5134 24.383 14.2881 24.3959 15.085C24.3962 15.1829 24.3576 15.277 24.2886 15.3465C24.2197 15.4161 24.1259 15.4555 24.0279 15.456L24.025 15.458Z" fill="white"/>
<path d="M27.698 19.167C26.8338 19.1671 25.9924 18.8893 25.2981 18.3747C24.6038 17.8601 24.0933 17.1359 23.842 16.309C23.8124 16.2154 23.821 16.1139 23.866 16.0266C23.911 15.9393 23.9886 15.8733 24.082 15.843C24.1282 15.8285 24.1769 15.8233 24.2251 15.8277C24.2734 15.832 24.3203 15.8459 24.3631 15.8685C24.406 15.8911 24.4439 15.922 24.4748 15.9593C24.5057 15.9966 24.5289 16.0397 24.543 16.086C24.7715 16.8496 25.2687 17.5046 25.9426 17.9301C26.6164 18.3556 27.4216 18.5229 28.2092 18.401C28.9968 18.2791 29.7137 17.8762 30.2274 17.2669C30.7412 16.6576 31.017 15.8829 31.004 15.086C31.0014 15.0362 31.009 14.9863 31.0263 14.9394C31.0436 14.8926 31.0702 14.8497 31.1046 14.8135C31.139 14.7773 31.1804 14.7484 31.2263 14.7287C31.2721 14.709 31.3216 14.6989 31.3715 14.6989C31.4215 14.6989 31.4709 14.709 31.5168 14.7287C31.5626 14.7484 31.604 14.7773 31.6384 14.8135C31.6728 14.8497 31.6994 14.8926 31.7167 14.9394C31.734 14.9863 31.7416 15.0362 31.739 15.086C31.7433 16.1629 31.3202 17.1976 30.5627 17.963C29.8051 18.7284 28.7749 19.1622 27.698 19.169V19.167Z" fill="white"/>
<path d="M24.026 15.458C23.9679 15.4588 23.9104 15.4457 23.8582 15.42C23.8061 15.3943 23.7608 15.3566 23.726 15.31L23.175 14.567C23.1163 14.4882 23.0912 14.3894 23.105 14.2922C23.1189 14.195 23.1707 14.1072 23.249 14.048C23.2875 14.0188 23.3314 13.9976 23.3782 13.9855C23.4249 13.9734 23.4736 13.9707 23.5215 13.9776C23.5693 13.9845 23.6152 14.0008 23.6567 14.0256C23.6982 14.0504 23.7343 14.0831 23.763 14.122L24.314 14.865C24.3727 14.9437 24.3978 15.0425 24.384 15.1397C24.3701 15.2369 24.3184 15.3248 24.24 15.384C24.1785 15.431 24.1034 15.4569 24.026 15.458Z" fill="white"/>
<path d="M24.026 15.458C23.9678 15.4588 23.9103 15.4458 23.8582 15.42C23.8061 15.3943 23.7607 15.3566 23.726 15.31C23.6673 15.2311 23.6421 15.1322 23.6559 15.0348C23.6698 14.9374 23.7216 14.8494 23.8 14.79L24.535 14.233C24.5734 14.2038 24.6173 14.1825 24.664 14.1704C24.7108 14.1584 24.7595 14.1558 24.8072 14.1628C24.855 14.1697 24.9009 14.1862 24.9422 14.2111C24.9836 14.2361 25.0195 14.269 25.048 14.308C25.1065 14.3867 25.1317 14.4854 25.118 14.5825C25.1043 14.6796 25.053 14.7675 24.975 14.827L24.24 15.384C24.1784 15.431 24.1034 15.4569 24.026 15.458Z" fill="white"/>
<path d="M31.924 16.198C31.8667 16.1979 31.8103 16.1844 31.7593 16.1585C31.7082 16.1326 31.6639 16.0951 31.63 16.049L31.079 15.307C31.0204 15.2281 30.9952 15.1294 31.0089 15.0321C31.0225 14.9348 31.0739 14.8467 31.152 14.787C31.1905 14.7578 31.2344 14.7365 31.2813 14.7244C31.3281 14.7123 31.3769 14.7097 31.4247 14.7167C31.4726 14.7237 31.5186 14.7401 31.56 14.7651C31.6014 14.79 31.6374 14.823 31.666 14.862L32.217 15.604C32.2757 15.6828 32.3008 15.7816 32.2869 15.8788C32.2731 15.976 32.2213 16.0638 32.143 16.123C32.0803 16.1716 32.0033 16.198 31.924 16.198Z" fill="white"/>
<path d="M30.638 16.012C30.5808 16.0121 30.5242 15.9987 30.4732 15.9728C30.4221 15.9469 30.3778 15.9093 30.344 15.863C30.2855 15.7843 30.2604 15.6857 30.274 15.5885C30.2877 15.4914 30.3391 15.4036 30.417 15.344L31.152 14.787C31.1905 14.7578 31.2345 14.7365 31.2813 14.7244C31.3282 14.7123 31.3769 14.7097 31.4248 14.7167C31.4726 14.7237 31.5186 14.7401 31.56 14.7651C31.6015 14.79 31.6375 14.823 31.666 14.862C31.7247 14.9408 31.7499 15.0396 31.736 15.1368C31.7221 15.234 31.6704 15.3218 31.592 15.381L30.858 15.938C30.7948 15.9862 30.7175 16.0122 30.638 16.012Z" fill="white"/>
</svg>
