<svg width="725" height="697" viewBox="0 0 725 697" fill="none" xmlns="http://www.w3.org/2000/svg">
<path d="M558.49 420.68C558.208 421.059 557.925 421.453 557.629 421.833C555.314 424.953 552.885 428.077 550.342 431.205C546.134 436.396 541.629 441.599 536.884 446.789C532.931 451.154 528.792 455.506 524.515 459.818C523.724 460.644 522.905 461.47 522.086 462.282C484.17 500.241 437.231 535.54 406.348 555.782L406.32 555.795C389.403 566.884 377.32 573.45 374.152 573.45C372.43 573.45 364.479 569.164 352.603 561.65C324.092 543.627 272.973 507.083 231.316 466.95C226.699 462.519 222.222 458.05 217.887 453.541C215.587 451.155 213.326 448.757 211.137 446.358C209.724 444.825 208.34 443.291 206.985 441.758C204.923 439.451 202.927 437.148 200.998 434.851C197.002 430.118 193.269 425.395 189.798 420.682C131.548 341.474 133.976 198.552 133.976 198.552C211.32 170.959 375.268 66.519 375.268 66.519C375.268 66.519 536.984 170.959 614.312 198.55C614.312 198.55 616.756 341.469 558.49 420.68Z" fill="#13B287"/>
<path d="M546.391 433.651C546.127 434.028 545.863 434.418 545.585 434.795C543.414 437.887 541.139 440.984 538.758 444.085C534.815 449.231 530.597 454.385 526.151 459.535C522.451 463.862 518.57 468.176 514.562 472.45C513.822 473.268 513.054 474.088 512.287 474.893C476.768 512.521 432.795 547.512 403.864 567.575L403.837 567.588C387.989 578.579 376.665 585.088 373.701 585.088C372.087 585.088 364.64 580.839 353.514 573.395C326.805 555.529 278.918 519.304 239.892 479.519C235.567 475.128 231.374 470.697 227.312 466.226C225.156 463.862 223.04 461.484 220.988 459.106C219.665 457.585 218.369 456.065 217.099 454.546C215.166 452.259 213.296 449.976 211.49 447.699C207.746 443.008 204.249 438.326 200.999 433.652C146.431 355.134 148.705 213.581 148.705 213.581C221.158 186.231 374.745 82.7 374.745 82.7C374.745 82.7 526.245 186.231 598.683 213.581C598.685 213.581 600.973 355.134 546.391 433.651Z" fill="#09916C"/>
<path d="M520.839 416.51C520.614 416.832 520.388 417.164 520.151 417.485C518.304 420.12 516.365 422.759 514.336 425.401C510.977 429.785 507.382 434.18 503.594 438.564C500.439 442.251 497.136 445.927 493.721 449.564C493.089 450.264 492.436 450.964 491.783 451.646C461.518 483.706 424.052 513.52 399.401 530.613L399.378 530.625C385.878 539.99 376.227 545.537 373.703 545.537C372.327 545.537 365.982 541.916 356.503 535.574C333.747 520.351 292.944 489.485 259.693 455.587C256.007 451.845 252.434 448.07 248.973 444.261C247.135 442.246 245.332 440.22 243.586 438.195C242.458 436.9 241.353 435.604 240.271 434.308C238.626 432.361 237.034 430.416 235.493 428.474C232.303 424.478 229.324 420.489 226.555 416.507C180.06 349.607 181.999 231.107 181.999 231.107C243.732 207.807 374.594 119.591 374.594 119.591C374.594 119.591 503.675 207.803 565.394 231.107C565.395 231.113 567.346 349.609 520.839 416.51Z" fill="#0A9A73"/>
<path d="M235.147 367.616L181.681 431.394L141.425 409.041L129.525 428.841C129.525 428.841 134.403 462.355 160.25 480.312C186.097 498.269 213.056 485.933 213.056 485.933L235.147 367.616Z" fill="#B6C6EF"/>
<path d="M272.779 317.219L271.998 325.157L271.698 328.262C271.698 328.262 244.406 369.789 230.86 408.171C225.992 421.971 222.923 440.719 220.991 459.104C219.668 457.583 218.372 456.063 217.102 454.544C215.169 452.257 213.299 449.974 211.493 447.697C213.393 422.438 217.048 396.607 223.915 380.314C241.255 339.138 272.779 317.219 272.779 317.219Z" fill="white"/>
<path d="M287.279 324.131L239.893 479.518C235.568 475.127 231.375 470.696 227.313 466.225C225.157 463.861 223.041 461.483 220.989 459.105C219.666 457.584 218.37 456.064 217.1 454.545C218.4 432.573 221.532 409.329 228.186 391.385C245.819 343.908 271.086 324.872 271.086 324.872C271.386 324.972 271.695 325.072 271.998 325.158C277.075 326.409 282.415 326.05 287.279 324.131Z" fill="#00486E"/>
<path d="M332.759 252.005C328.487 256.048 322.804 258.263 316.923 258.177L320.707 315.27C285.75 337.87 271.694 328.263 271.694 328.263L265.886 295.611C250.475 296.287 235.143 290.856 227.616 273.796C227.404 273.315 227.192 272.834 227.007 272.34C225.722 269.263 224.618 266.114 223.7 262.908C217.8 242.664 217.8 220.588 217.8 220.588C217.8 220.588 215.667 187.491 230.167 176.177C244.667 164.863 280.08 162.352 300.558 170.731C317.239 177.567 321.458 201.383 320.599 226.525C322.358 224.924 324.481 223.776 326.784 223.18C329.087 222.585 331.5 222.561 333.815 223.109C345.767 225.823 341.503 243.844 332.759 252.005Z" fill="#FFDDD3"/>
<path d="M243.556 237.087L245.547 256.638C245.547 256.638 239.718 256.498 237.728 260.268C235.738 264.038 248.533 265.575 250.808 263.201C253.083 260.827 246.969 236.389 245.12 234.992C243.271 233.595 243.556 237.087 243.556 237.087Z" fill="#D68583"/>
<path d="M261.312 267.931C261.312 267.931 257.901 273.797 251.502 275.193C245.103 276.589 241.265 273.793 241.265 273.793L261.312 267.931Z" fill="#E5A5A1"/>
<path d="M232.876 221.425C232.876 221.425 226.119 220.436 222.276 223.586C222.276 223.586 221.876 218.47 226.239 217.11C230.602 215.75 232.876 221.425 232.876 221.425Z" fill="#00486E"/>
<path d="M266.7 215.833C266.7 215.833 260.083 214.172 255.931 216.92C255.931 216.92 256.071 211.791 260.546 210.875C265.021 209.959 266.7 215.833 266.7 215.833Z" fill="#00486E"/>
<path d="M265.886 295.609C265.886 295.609 285.625 292.663 295.649 275.585C295.649 275.585 295.222 285.373 286.266 295.609C277.31 305.845 267.779 306.259 267.779 306.259L265.886 295.609Z" fill="#E5A5A1"/>
<path d="M353.516 573.395C326.808 555.529 278.916 519.304 239.894 479.518C235.569 475.127 231.376 470.696 227.314 466.225C231.719 429.78 239.26 385.94 251.284 366.801C260.835 351.637 274.606 336.501 287.284 324.13C297.499 314.141 308.224 304.686 319.416 295.805C319.416 295.805 355.584 325.741 360.703 366.384C365.822 407.027 353.516 573.395 353.516 573.395Z" fill="white"/>
<path d="M335.882 193.678C335.67 206.684 331.212 222.744 331.212 222.744C320.364 222.276 313.485 240.792 313.485 240.792C313.485 240.792 295.997 239.961 288.325 225.72C280.785 211.726 285.784 192.599 285.956 191.898C265.703 203.722 237.778 205.19 219.656 202.254C201.534 199.318 193.424 181.517 193.424 181.517C196.401 181.517 211.759 174.812 211.759 174.812C205.359 171.252 206.004 164.132 206.004 164.132C206.004 164.132 210.475 164.547 225.835 160.156C241.195 155.765 264.859 145.486 289.386 149.891C313.501 154.205 318.039 170.291 318.186 170.825V170.837C318.186 170.837 318.265 170.837 318.398 170.85H318.45C319.08 170.881 319.707 170.951 320.329 171.058C323.21 171.483 325.942 172.609 328.286 174.337C330.63 176.066 332.512 178.344 333.769 180.971C334.083 181.627 334.361 182.3 334.602 182.986C335.639 186.45 336.072 190.067 335.882 193.678Z" fill="#19313E"/>
<path d="M221.858 258.019C220.589 258.025 219.349 257.646 218.301 256.932C217.253 256.217 216.446 255.202 215.988 254.019L211.966 243.546L213.204 243.088L217.226 253.561C217.651 254.654 218.45 255.561 219.48 256.121C220.511 256.682 221.706 256.859 222.855 256.622L236.184 253.988C237.375 253.765 238.441 253.107 239.175 252.142C239.908 251.176 240.256 249.973 240.152 248.765L239.178 236.38L240.495 236.28L241.469 248.657C241.599 250.184 241.156 251.705 240.228 252.925C239.299 254.145 237.951 254.976 236.444 255.257L223.11 257.895C222.697 257.977 222.278 258.018 221.858 258.019Z" fill="#9C9B9B"/>
<path d="M261.033 250.15C259.765 250.156 258.525 249.777 257.477 249.062C256.43 248.348 255.624 247.333 255.166 246.15L251.143 235.675L252.38 235.218L256.403 245.691C256.828 246.784 257.626 247.691 258.656 248.251C259.686 248.811 260.881 248.989 262.03 248.752L275.36 246.118C276.551 245.895 277.617 245.237 278.35 244.271C279.084 243.306 279.432 242.103 279.327 240.895L278.354 228.51L279.673 228.41L280.646 240.787C280.775 242.314 280.332 243.835 279.404 245.054C278.475 246.274 277.127 247.105 275.621 247.387L262.292 250.021C261.877 250.105 261.456 250.148 261.033 250.15Z" fill="#9C9B9B"/>
<path d="M275.284 222.698C272.111 223.03 259.084 225.698 252.517 227.066C251.563 227.26 250.701 227.763 250.063 228.498C249.426 229.233 249.049 230.158 248.992 231.129C245.846 230.425 242.55 230.909 239.74 232.489C239.407 231.855 238.895 231.334 238.268 230.989C237.64 230.645 236.925 230.493 236.212 230.553C233.041 230.885 220.012 233.553 213.446 234.921C212.394 235.131 211.455 235.717 210.804 236.569C210.153 237.422 209.835 238.482 209.91 239.552L210.94 243.668L214.323 242.945C214.323 242.945 213.042 238.069 214.677 237.298C216.312 236.527 234.313 232.465 235.995 233.061C237.677 233.657 238.677 237.636 238.677 237.636L241.263 237.058C241.109 235.886 240.801 234.739 240.348 233.647C243.029 232.126 246.198 231.712 249.18 232.494L250.012 235.814L253.395 235.091C253.395 235.091 252.114 230.215 253.749 229.444C255.384 228.673 273.384 224.607 275.069 225.207C276.754 225.807 277.751 229.782 277.751 229.782L280.337 229.204C280.337 229.204 279.574 222.25 275.284 222.698Z" fill="#00486E"/>
<path d="M278.796 224.603C278.796 224.603 284.126 224.189 296.851 224.603C305.179 224.944 313.474 225.858 321.677 227.34L320.332 228.84C320.332 228.84 303.748 227.389 294.363 227.389C289.571 227.329 284.779 227.538 280.011 228.017C279.67 226.857 279.264 225.718 278.796 224.603Z" fill="#126489"/>
<path d="M290.35 257.149C290.805 259.891 287.685 262.668 283.384 263.356C279.083 264.044 275.227 262.378 274.773 259.638C274.319 256.898 277.438 254.119 281.74 253.432C286.042 252.745 289.897 254.409 290.35 257.149Z" fill="#FFC9C3"/>
<path d="M227.538 272.275C227.353 272.3 227.18 272.326 227.008 272.34C225.723 269.263 224.619 266.114 223.701 262.908C224.411 262.662 225.142 262.478 225.884 262.361C230.184 261.673 234.047 263.336 234.496 266.078C234.945 268.82 231.837 271.586 227.538 272.275Z" fill="#FFC9C3"/>
<path d="M105.405 331.175L48.7709 276.736L47.6559 281.091L98.7789 334.124L105.405 331.175Z" fill="white"/>
<path d="M131.622 341.432L100.61 320.202L89.1469 331.743L111.247 362.255L131.622 341.432Z" fill="#4570B4"/>
<path d="M299.157 479.414L296.957 481.622L275.95 502.828L248.227 530.79L228.727 509.858L226.915 507.908L175.402 452.608L173.602 450.684L118.302 391.317L116.515 389.408L105.647 377.728C102.575 374.454 100.874 370.128 100.891 365.639C100.908 361.149 102.643 356.837 105.74 353.586C106.018 353.286 106.295 353.002 106.6 352.73L123.585 337.047C126.999 333.909 131.473 332.178 136.11 332.202C140.747 332.226 145.204 334.003 148.585 337.176L299.157 479.414Z" fill="#8CB2FF"/>
<path d="M275.954 502.829L248.227 530.791L228.727 509.86L226.915 507.91L175.402 452.61L173.602 450.686L118.302 391.319L116.515 389.41L105.647 377.729C102.575 374.455 100.874 370.129 100.891 365.64C100.908 361.15 102.643 356.838 105.74 353.587C119.511 370.713 147.477 404.274 186.727 445.437C224.944 485.509 258.069 498.567 275.954 502.829Z" fill="#7AA5EA"/>
<path d="M299.158 479.415L296.958 481.623C292.394 483.023 284.523 483.598 274.284 477.296C257.554 466.993 140.134 348.64 140.134 348.64C135.464 340.948 135.042 334.985 138.308 332.347C142.162 332.82 145.764 334.514 148.587 337.18L299.158 479.415Z" fill="#ABCBFF"/>
<path d="M276.063 497.826L332.405 559.216L323.648 564.285L264.148 506.562L276.063 497.826Z" fill="#4570B4"/>
<path d="M326.311 555.755L342.256 547.165L346.232 552.204L316.332 578.329L310.776 572.921L326.311 555.755Z" fill="#8CB2FF"/>
<path d="M240.716 494.109L228.73 509.858L226.918 507.908L238.597 492.546C239.103 491.885 239.353 491.062 239.3 490.23C239.246 489.399 238.893 488.615 238.306 488.024L190.206 438.793L175.406 452.605L173.606 450.681L188.37 436.922L134.793 382.09C134.159 381.45 133.311 381.068 132.411 381.018C131.512 380.967 130.626 381.252 129.925 381.817L118.311 391.317L116.524 389.408L128.232 379.832C129.449 378.847 130.989 378.347 132.552 378.431C134.116 378.516 135.593 379.177 136.698 380.287L240.211 486.222C241.234 487.254 241.849 488.621 241.941 490.071C242.034 491.521 241.599 492.955 240.716 494.109Z" fill="#4570B4"/>
<path d="M140.14 393.211L147.335 386.111" stroke="#4570B4" stroke-linecap="round" stroke-linejoin="round"/>
<path d="M148.017 401.178L155.212 394.078" stroke="#4570B4" stroke-linecap="round" stroke-linejoin="round"/>
<path d="M155.895 409.145L163.09 402.045" stroke="#4570B4" stroke-linecap="round" stroke-linejoin="round"/>
<path d="M163.772 417.113L170.967 410.013" stroke="#4570B4" stroke-linecap="round" stroke-linejoin="round"/>
<path d="M171.649 425.08L178.844 417.98" stroke="#4570B4" stroke-linecap="round" stroke-linejoin="round"/>
<path d="M179.526 433.047L186.721 425.947" stroke="#4570B4" stroke-linecap="round" stroke-linejoin="round"/>
<path d="M186.645 440.513L193.84 433.413" stroke="#4570B4" stroke-linecap="round" stroke-linejoin="round"/>
<path d="M195.281 448.981L202.476 441.881" stroke="#4570B4" stroke-linecap="round" stroke-linejoin="round"/>
<path d="M203.158 456.949L210.353 449.849" stroke="#4570B4" stroke-linecap="round" stroke-linejoin="round"/>
<path d="M211.036 464.916L218.231 457.816" stroke="#4570B4" stroke-linecap="round" stroke-linejoin="round"/>
<path d="M218.913 472.883L226.108 465.783" stroke="#4570B4" stroke-linecap="round" stroke-linejoin="round"/>
<path d="M226.79 480.85L233.985 473.75" stroke="#4570B4" stroke-linecap="round" stroke-linejoin="round"/>
<path d="M234.667 488.818L241.862 481.718" stroke="#4570B4" stroke-linecap="round" stroke-linejoin="round"/>
<path d="M123.001 335.531L101.451 348.731L105.405 354.188L124.3 336.422L123.001 335.531Z" fill="#345B93"/>
<path d="M277.993 533.31L273.293 537.442C272.051 541.257 270.498 544.964 268.649 548.525C266.216 552.812 260.991 558.725 255.62 559.114C250.249 559.503 249.944 556.658 249.944 556.658C249.944 556.658 245.844 557.736 243.344 556.203C242.643 555.801 242.086 555.191 241.749 554.457C241.413 553.723 241.314 552.902 241.466 552.109C241.466 552.109 237.325 552.2 235.407 550.355C234.859 549.766 234.481 549.039 234.313 548.252C234.145 547.465 234.194 546.647 234.455 545.886C234.455 545.886 230.685 546.405 229.282 543.417C228.541 541.845 229.045 538.389 230.382 535.011C231.582 531.983 233.451 529.011 235.682 527.511C240.405 524.367 254.587 519.274 254.587 519.274L262.55 514.636L277.993 533.31Z" fill="#FFDDD3"/>
<path d="M371.599 466.811C363.662 516.341 287.279 551.511 287.279 551.511L280.611 543.832L255.355 514.795L327.266 447.308L297.342 368.908C296.241 363.458 296.307 357.837 297.536 352.415C298.765 346.993 301.129 341.893 304.473 337.451C315.73 322.419 337.783 319.551 352.173 331.734L352.267 331.825C353.581 332.905 354.747 334.155 355.732 335.542C356.064 336.033 356.365 336.545 356.632 337.074C364.155 351.587 379.231 419.26 371.599 466.811Z" fill="#D0DCFF"/>
<path d="M147.189 423.569C145.88 419.645 141.262 415.629 141.262 415.629C141.262 415.629 146.091 407.223 142.862 405.651C139.862 404.169 135.613 408.899 135.056 409.51C135.52 408.639 140.388 399.375 136.935 398.336C133.852 397.414 130.188 402.22 129.156 403.663C131.233 400.363 133.866 393.063 130.4 392.112C127.608 391.345 123.852 396.179 122.278 398.412C123.905 395.787 127.451 389.355 123.469 388.654C118.441 387.77 112.991 396.554 112.092 400.997C111.495 404.01 111.582 407.119 112.346 410.094C113.11 413.069 114.533 415.835 116.509 418.187C116.925 418.673 117.367 419.137 117.833 419.577C123.533 425.009 135.233 430.543 135.233 430.543C140.955 431.833 148.495 427.479 147.189 423.569ZM135.058 409.522V409.535L135.057 409.54L135.055 409.544L135.051 409.547L135.046 409.548C135.042 409.535 135.042 409.535 135.054 409.522H135.058Z" fill="#FFDDD3"/>
<path d="M256.583 236.676C256.583 236.676 259.192 229.163 264.221 228.402C269.25 227.641 273.834 230.056 276.797 234.241C276.797 234.241 277.174 240.758 273.936 245.206C269.96 246.277 265.859 246.81 261.742 246.79C261.742 246.79 256.949 242.375 256.583 236.676Z" fill="white"/>
<path d="M262.105 238.781C262.699 242.898 266.167 245.821 269.851 245.308C273.535 244.795 276.04 241.043 275.451 236.926C274.862 232.809 271.39 229.888 267.705 230.4C264.02 230.912 261.512 234.664 262.105 238.781Z" fill="#00486E"/>
<path d="M269.902 235.756C269.944 236.217 270.166 236.642 270.52 236.94C270.873 237.238 271.33 237.384 271.791 237.348C272.015 237.304 272.228 237.216 272.418 237.089C272.608 236.962 272.771 236.799 272.898 236.609C273.024 236.419 273.113 236.206 273.157 235.982C273.202 235.759 273.202 235.528 273.157 235.304C273.114 234.844 272.892 234.418 272.538 234.12C272.185 233.822 271.728 233.675 271.267 233.711C271.043 233.756 270.83 233.844 270.64 233.971C270.45 234.098 270.287 234.261 270.161 234.451C270.034 234.641 269.946 234.854 269.901 235.078C269.857 235.302 269.857 235.532 269.902 235.756Z" fill="white"/>
<path d="M221.37 244.437C221.37 244.437 223.251 237.546 227.715 236.567C232.179 235.588 236.436 237.484 239.348 241.067C239.348 241.067 240.083 246.888 237.448 251.067C233.947 252.262 230.302 252.981 226.61 253.205C226.61 253.205 222.046 249.525 221.37 244.437Z" fill="white"/>
<path d="M226.454 245.999C227.237 249.655 230.525 252.072 233.797 251.399C237.069 250.726 239.088 247.21 238.304 243.553C237.52 239.896 234.233 237.48 230.961 238.153C227.689 238.826 225.668 242.343 226.454 245.999Z" fill="#00486E"/>
<path d="M233.258 242.828C233.324 243.239 233.549 243.607 233.884 243.853C234.219 244.099 234.637 244.204 235.049 244.144C235.247 244.091 235.433 243.999 235.596 243.874C235.758 243.749 235.895 243.594 235.997 243.416C236.099 243.238 236.165 243.042 236.191 242.838C236.217 242.635 236.203 242.428 236.149 242.23C236.083 241.82 235.858 241.452 235.523 241.206C235.188 240.959 234.769 240.855 234.358 240.914C234.16 240.967 233.974 241.059 233.812 241.184C233.649 241.309 233.513 241.465 233.41 241.643C233.308 241.82 233.242 242.017 233.216 242.22C233.19 242.424 233.204 242.63 233.258 242.828Z" fill="white"/>
<path d="M332.274 228.383C329.055 229.488 326.127 232.573 323.557 236.805C323.557 236.805 326.178 237.014 326.037 240.494C325.896 243.974 320.58 246.272 320.58 246.272C320.58 246.272 318.454 250.449 322.493 250.379C324.525 250.346 326.463 249.519 327.894 248.075C329.324 246.631 330.133 244.685 330.147 242.653C330.266 241.41 330.046 240.158 329.509 239.031C328.972 237.904 328.139 236.944 327.099 236.253C327.099 236.253 328.942 232.772 331.351 231.867C333.76 230.962 332.13 238.759 333.902 239.037C335.674 239.315 337.966 226.427 332.274 228.383Z" fill="#E5A5A1"/>
<path d="M318.178 170.835L296.146 181.484C296.146 181.484 300.586 174.895 306.446 172.297C310.147 170.737 314.207 170.231 318.178 170.835Z" fill="#0A597C"/>
<path d="M335.881 193.678C335.141 193.99 334.306 194.328 333.381 194.678L329.715 188.194L330.455 195.744C327.324 196.822 324.129 197.707 320.89 198.395L319.117 193.873L318.906 198.785C317.821 198.979 316.722 199.162 315.611 199.304C314.5 199.446 313.481 199.564 312.503 199.668L310.836 195.445L310.651 199.863C301.734 200.747 299.076 200.136 299.076 200.136L298.415 193.275C299.988 193.446 301.574 193.463 303.15 193.328L304.937 197.356V193.184C307.57 192.911 310.185 192.481 312.768 191.898L314.915 196.38L314.77 191.417C315.682 191.196 316.609 190.949 317.6 190.677C319.222 190.213 320.812 189.645 322.362 188.977L324.704 193.877L324.532 187.965C328.026 186.243 331.16 183.87 333.765 180.974C334.079 181.63 334.357 182.303 334.598 182.989C335.636 186.452 336.07 190.068 335.881 193.678Z" fill="#0A597C"/>
<path d="M205.812 188.258C205.812 188.258 212.907 198.689 237.518 200.341C252.527 201.235 267.483 197.878 280.671 190.656C280.671 190.656 254.191 198.468 235.86 195.684C217.529 192.9 205.812 188.258 205.812 188.258Z" fill="#0A597C"/>
<path d="M318.181 170.824L316.396 170.624C316.396 170.624 301.182 153.477 283.112 152.804C265.042 152.131 240.392 160.974 225.659 164.132C210.926 167.29 206.001 164.132 206.001 164.132C206.001 164.132 210.472 164.547 225.832 160.156C241.192 155.765 264.856 145.486 289.383 149.891C313.498 154.204 318.036 170.29 318.181 170.824Z" fill="#0A597C"/>
<path d="M320.324 171.057L318.445 170.849C319.075 170.88 319.702 170.95 320.324 171.057Z" fill="#FFC9C3"/>
<path d="M193.421 181.517C193.421 181.517 195.985 182.593 203.733 180.97C208.306 180.043 212.586 178.021 216.207 175.079L211.756 174.812L193.421 181.517Z" fill="#0A597C"/>
<path d="M371.599 466.81C363.662 516.34 287.28 551.51 287.28 551.51L280.612 543.831C297.969 533.748 348.476 502.173 359.839 470.031C373.61 431.038 352.179 331.731 352.179 331.731L352.273 331.822C353.821 333.492 355.278 335.244 356.638 337.071C364.151 351.586 379.232 419.255 371.599 466.81Z" fill="#B6C6EF"/>
<path d="M328.509 451.095L353.597 467.304C353.597 467.304 353.314 446.64 328.509 451.095Z" fill="#B6C6EF"/>
<path d="M121.147 400.325L117.747 408.771C117.747 408.771 115.572 402.183 121.147 400.325Z" fill="#E5A5A1"/>
<path d="M128.917 404.097L125.517 412.543C125.517 412.543 123.342 405.952 128.917 404.097Z" fill="#E5A5A1"/>
<path d="M134.492 409.681L131.092 418.127C131.092 418.127 128.918 411.54 134.492 409.681Z" fill="#E5A5A1"/>
<path d="M256.243 518.316L272.43 539.93L273.298 537.438L274.289 536.565L257.689 517.475L256.243 518.316Z" fill="#E5A5A1"/>
<path d="M273.296 537.443C272.054 541.258 270.501 544.965 268.652 548.526C266.219 552.813 260.994 558.726 255.623 559.115C250.252 559.504 249.947 556.659 249.947 556.659C249.947 556.659 245.847 557.737 243.347 556.205C242.647 555.803 242.089 555.193 241.752 554.459C241.416 553.725 241.317 552.904 241.469 552.111C241.469 552.111 237.328 552.202 235.41 550.357C234.862 549.768 234.484 549.041 234.316 548.254C234.149 547.467 234.198 546.649 234.458 545.888C234.458 545.888 230.688 546.407 229.285 543.419C228.544 541.847 229.048 538.391 230.385 535.013C230.656 536.74 231.585 538.295 232.978 539.352C236.668 542.003 238.652 541.302 238.652 541.302C238.652 541.302 237.37 545.641 240.213 547.161C241.855 548.066 243.781 548.313 245.598 547.85C246.656 549.489 248.188 550.767 249.99 551.514C251.685 552.232 253.523 552.548 255.361 552.436C258.454 552.248 261.46 551.345 264.145 549.798C268.273 547.291 271.539 536.898 271.539 536.898L273.296 537.443Z" fill="#E5A5A1"/>
<path d="M135.227 430.545C135.227 430.545 123.532 425.011 117.827 419.579C122.47 422.204 128.992 425.205 134.481 425.205C144.244 425.205 143.107 420.463 143.107 420.463L139.575 415.733C139.575 415.733 142.975 409.743 141.983 407.233C141.044 404.868 135.594 409.104 135.05 409.533L135.049 409.538L135.047 409.542L135.043 409.545L135.038 409.546C135.038 409.533 135.038 409.533 135.05 409.52V409.508C135.607 408.897 139.85 404.167 142.856 405.649C146.084 407.221 141.256 415.627 141.256 415.627C141.256 415.627 145.873 419.643 147.183 423.567C148.493 427.491 140.955 431.832 135.227 430.545Z" fill="#E5A5A1"/>
<path d="M545.585 434.795C543.414 437.887 541.139 440.984 538.758 444.085C534.815 449.231 530.597 454.385 526.151 459.535C522.451 463.862 518.57 468.176 514.562 472.45C513.821 473.268 513.054 474.088 512.287 474.893L499.429 422.816L475.429 325.691L474.992 323.911L473.365 317.311L482.771 315.111C482.771 315.111 525.381 342.775 538.913 399.866C541.999 412.863 544.129 424.596 545.585 434.795Z" fill="white"/>
<path d="M544.064 301.874C537.806 310.787 525.014 308.839 525.014 308.839L526.152 295.989C523.48 300.85 519.55 304.902 514.774 307.722C507.961 311.594 496.36 309.294 489.745 307.476C486.703 306.631 484.705 305.891 484.705 305.891L485.472 304.643C489.691 297.678 510.272 262.726 515.62 233.712C516.956 226.476 515.965 218.576 513.411 210.624C504.548 182.974 476.861 154.624 462.732 150.854C462.732 150.854 474.572 141.499 497.432 147.684C527.99 155.961 540.518 166.603 552.556 203.555C568.47 252.37 550.32 292.96 544.064 301.874Z" fill="#19313E"/>
<path d="M538.758 444.086C534.815 449.232 530.597 454.386 526.151 459.536C522.451 463.863 518.57 468.177 514.562 472.451L499.429 422.817L469.329 324.132C471.288 324.908 473.338 325.432 475.429 325.692C475.905 325.757 476.407 325.821 476.937 325.847C479.835 326.099 482.754 325.767 485.522 324.872C485.522 324.872 510.803 343.908 528.422 391.385C534.036 406.497 537.144 425.377 538.758 444.086Z" fill="#00486E"/>
<path d="M525.013 308.839L526.151 295.989C523.479 300.85 519.55 304.902 514.774 307.722C507.961 311.594 496.36 309.294 489.745 307.476C488.252 306.639 486.824 305.692 485.472 304.643C489.691 297.678 510.272 262.726 515.62 233.712C516.956 226.476 515.965 218.576 513.411 210.624L535.345 190.289C535.345 190.289 545.795 215.679 547.489 253.93C549.183 292.181 525.013 308.839 525.013 308.839Z" fill="#003E54"/>
<path d="M538.812 220.592C538.812 220.592 538.812 241.147 533.507 260.78C532.859 263.21 532.119 265.626 531.284 267.991C530.584 269.979 529.83 271.916 528.995 273.8C521.468 290.86 506.135 296.291 490.738 295.615L488.813 328.267C488.813 328.267 476.482 335.273 435.904 315.274L439.704 258.181C433.818 258.267 428.132 256.053 423.855 252.009C415.111 243.848 415.443 228.634 422.798 223.109C424.661 221.613 426.978 220.799 429.367 220.801C431.756 220.803 434.073 221.622 435.933 223.121C435.073 197.979 439.372 177.567 456.067 170.732C476.545 162.352 511.946 164.873 526.445 176.178C540.944 187.483 538.812 220.592 538.812 220.592Z" fill="#FFDDD3"/>
<path d="M500.931 238.604C500.931 238.604 498.876 230.928 493.915 229.814C488.954 228.7 484.207 230.788 480.946 234.756C480.946 234.756 480.096 241.229 483.001 245.892C486.89 247.24 490.942 248.06 495.049 248.328C495.049 248.328 500.152 244.263 500.931 238.604Z" fill="white"/>
<path d="M523.399 209.063C507.881 227.774 478.474 224.356 478.474 224.356C478.474 224.356 473.818 234.972 466.316 240.556C458.814 246.14 452.863 244.756 452.863 244.756C452.863 244.756 450.442 231.62 442.651 225.382C441.228 224.167 439.476 223.402 437.617 223.185C435.759 222.967 433.878 223.307 432.213 224.161C429.435 225.668 426.855 228.878 427.451 235.712C427.795 239.494 428.985 243.15 430.934 246.409C432.883 249.668 435.54 252.447 438.708 254.54C441.283 256.336 444.224 257.539 447.32 258.061C447.69 258.114 448.074 258.152 448.458 258.178L446.183 295.806C446.183 295.806 438.973 299.106 426.393 295.806C413.813 292.506 411.22 286.919 411.22 286.919V270.729L406.047 285.529C406.047 285.529 393.122 284.412 385.357 273.797C383.459 271.234 382.113 268.306 381.402 265.197C379.324 256.206 382.354 245.59 388.175 232.997C396.496 214.988 412.375 202.371 412.375 202.371C413.851 194.198 416.376 186.25 419.888 178.723C422.881 172.108 426.909 166.011 431.82 160.663C437.767 154.13 445.559 149.558 454.163 147.552C488.823 139.731 529.763 173.604 536.539 183.089C536.535 183.09 538.916 190.352 523.399 209.063Z" fill="#19313E"/>
<path d="M514.357 235.115L512.366 254.665C512.366 254.665 518.196 254.525 520.187 258.296C522.178 262.067 509.38 263.603 507.107 261.229C504.834 258.855 510.944 234.421 512.793 233.021C514.642 231.621 514.357 235.115 514.357 235.115Z" fill="#D68583"/>
<path d="M495.304 267.932C495.304 267.932 498.717 273.798 505.115 275.194C511.513 276.59 515.352 273.794 515.352 273.794L495.304 267.932Z" fill="#E5A5A1"/>
<path d="M495.27 240.317C494.379 244.382 490.708 247.052 487.07 246.283C483.432 245.514 481.207 241.594 482.099 237.529C482.991 233.464 486.661 230.794 490.299 231.563C493.937 232.332 496.162 236.252 495.27 240.317Z" fill="#19313E"/>
<path d="M487.714 236.752C487.638 237.209 487.386 237.617 487.012 237.889C486.638 238.162 486.171 238.276 485.714 238.207C485.494 238.147 485.288 238.044 485.107 237.904C484.927 237.765 484.776 237.591 484.664 237.392C484.551 237.194 484.478 236.975 484.451 236.749C484.423 236.522 484.44 236.293 484.501 236.073C484.577 235.617 484.829 235.208 485.203 234.936C485.577 234.664 486.043 234.55 486.501 234.618C486.721 234.678 486.927 234.781 487.107 234.921C487.287 235.061 487.438 235.235 487.551 235.433C487.663 235.631 487.736 235.85 487.764 236.076C487.792 236.303 487.775 236.532 487.714 236.752Z" fill="white"/>
<path d="M533.373 244.236C533.373 244.236 531.749 237.818 527.825 236.887C523.901 235.956 520.145 237.701 517.567 241.019C517.567 241.019 516.894 246.432 519.193 250.33C522.257 251.454 525.465 252.14 528.721 252.367C528.721 252.367 532.756 248.967 533.373 244.236Z" fill="white"/>
<path d="M528.895 245.667C528.189 249.067 525.285 251.298 522.409 250.655C519.533 250.012 517.77 246.735 518.476 243.337C519.182 239.939 522.084 237.704 524.962 238.349C527.84 238.994 529.599 242.269 528.895 245.667Z" fill="#19313E"/>
<path d="M522.603 223.274C522.603 223.274 529.222 221.614 533.372 224.361C533.372 224.361 533.234 219.233 528.757 218.316C524.28 217.399 522.603 223.274 522.603 223.274Z" fill="#19313E"/>
<path d="M490.732 295.61C490.732 295.61 470.991 292.66 460.969 275.586C460.969 275.586 461.396 285.374 470.352 295.61C479.308 305.846 490.091 306.542 490.091 306.542L490.732 295.61Z" fill="#E5A5A1"/>
<path d="M526.151 459.534C522.451 463.861 518.57 468.175 514.562 472.449C513.821 473.267 513.054 474.087 512.287 474.892C476.768 512.52 432.795 547.511 403.864 567.574L403.837 567.587C403.837 567.587 390.807 407.034 395.932 366.386C401.057 325.738 437.206 295.807 437.206 295.807C451.03 303.403 463.746 312.86 475 323.912C475.649 324.548 476.3 325.198 476.945 325.848C487.66 336.672 498.245 350.353 505.334 366.803C513.623 386.071 520.926 425.194 526.151 459.534Z" fill="white"/>
<path d="M655.199 446.151L654.499 451.921L644.022 538.184L643.201 544.884C643.084 545.853 642.898 546.813 642.646 547.756C641.236 552.939 638.007 557.44 633.548 560.435C629.09 563.43 623.702 564.717 618.371 564.062L523.693 552.952C519.376 552.472 515.294 550.736 511.953 547.961C508.611 545.185 506.157 541.491 504.893 537.335C504.046 534.498 503.794 531.516 504.153 528.577L504.893 522.444L506.613 508.372L515.159 438.144L516.165 429.844C517.465 419.624 521.884 410.052 528.82 402.433C535.756 394.815 544.871 389.518 554.925 387.266L556.46 374.571L556.883 371.14L627.764 379.456L627.301 383.302L625.884 394.931C635.605 399.211 643.699 406.495 648.975 415.714C654.251 424.933 656.433 435.601 655.199 446.151Z" fill="#8CB2FF"/>
<path d="M643.28 368.738C643.063 370.481 642.572 372.178 641.826 373.767C640.443 376.639 638.275 379.061 635.573 380.754C632.872 382.446 629.747 383.339 626.559 383.33C625.887 383.329 625.215 383.29 624.548 383.213L561.037 375.767C558.859 375.532 556.749 374.868 554.828 373.815C552.908 372.762 551.214 371.339 549.845 369.629C548.475 367.92 547.457 365.956 546.849 363.852C546.241 361.748 546.054 359.544 546.3 357.367C546.531 355.426 547.109 353.543 548.006 351.806C549.446 349.074 551.606 346.788 554.253 345.196C556.9 343.605 559.932 342.768 563.021 342.777C563.693 342.777 564.364 342.816 565.032 342.893L628.544 350.339C630.721 350.576 632.83 351.24 634.75 352.293C636.67 353.347 638.363 354.769 639.732 356.479C641.101 358.188 642.119 360.151 642.728 362.255C643.337 364.358 643.524 366.562 643.28 368.738Z" fill="#4570B4"/>
<path d="M654.497 451.922L644.02 538.184C631.02 540.224 598.79 539.457 571.12 535.484C555.404 533.223 542.955 531.04 533.126 529.078C518.998 526.258 510.266 523.907 504.895 522.451L506.615 508.379L515.161 438.151C528.261 441.191 555.681 446.635 594.005 449.532C622.576 451.687 642.221 452.064 654.497 451.922Z" fill="#4570B4"/>
<path d="M609.03 481.78L587.471 495.375L589.403 504.887C589.403 504.887 559.215 519.387 533.128 529.08C519 526.26 510.268 523.909 504.897 522.453L506.617 508.381L610.424 478.12L609.03 481.78Z" fill="#345B93"/>
<path d="M616.423 471.918L615.154 472.463C611.622 473.944 608.407 475.205 606.86 475.802L606.926 476.647C606.988 476.55 607.059 476.458 607.138 476.374C609.701 475.113 612.354 474.044 615.075 473.174C616.754 472.681 618.249 472.447 619.016 472.797C621.424 473.889 619.704 477.097 615.154 479.034C610.604 480.971 607.323 482.581 607.323 482.581L590.151 486.349L577.264 489.159L575.253 489.6L566.153 469.006L568.759 468.265L572.133 467.316L574.289 466.705C574.289 466.705 576.498 457.623 578.972 453.154C581.407 448.788 591.195 442.745 594.727 444.354C594.815 444.389 594.899 444.433 594.979 444.484C598.286 446.51 590.971 452.748 589.741 453.424L587.809 456.541L605.324 453.151C605.324 453.151 607.414 452.125 610.019 451.046C613.526 449.616 617.983 448.096 619.637 448.846C622.537 450.17 620.457 454.029 614.98 456.368C614.345 456.641 613.711 456.902 613.102 457.161C610.073 458.422 607.347 459.486 605.802 460.098L605.868 461.163C607.495 460.409 610.485 459.063 613.435 457.98C616.662 456.78 619.851 455.901 621.081 456.46C623.981 457.786 621.914 461.645 616.424 463.983C615.961 464.183 615.498 464.373 615.049 464.568C611.08 466.231 607.561 467.609 606.349 468.077L606.415 469.142C606.534 468.987 606.64 468.842 606.772 468.701C609.49 467.381 612.281 466.218 615.133 465.219C617.62 464.401 619.974 463.88 621.086 464.388C623.977 465.72 621.914 469.579 616.423 471.918Z" fill="#FFDDD3"/>
<path d="M580.812 497.828C580.812 497.828 459.769 559.571 432.658 524.928C410.258 496.328 395.009 435.988 390.869 393.669C390.03 385.737 389.658 377.763 389.757 369.788C389.808 367.275 390.033 364.769 390.432 362.288C394.824 334.988 431.216 326.972 447.332 349.633C447.477 349.84 447.632 350.061 447.781 350.269C462.915 371.942 469.331 472.263 469.331 472.263L564.42 457.398L577.476 489.609L580.812 497.828Z" fill="#D0DCFF"/>
<path d="M475.704 259.536C479.109 259.536 481.87 257.028 481.87 253.933C481.87 250.839 479.109 248.33 475.704 248.33C472.298 248.33 469.538 250.839 469.538 253.933C469.538 257.028 472.298 259.536 475.704 259.536Z" fill="#FFC9C3"/>
<path d="M533.506 260.777C532.858 263.207 532.118 265.623 531.283 267.988C530.282 268.565 529.145 268.866 527.99 268.859C527.209 268.934 526.421 268.846 525.677 268.598C524.932 268.351 524.248 267.951 523.667 267.424C523.087 266.897 522.623 266.254 522.305 265.536C521.988 264.819 521.824 264.043 521.824 263.259C521.824 262.475 521.988 261.699 522.305 260.982C522.623 260.265 523.087 259.622 523.667 259.094C524.248 258.567 524.932 258.167 525.677 257.92C526.421 257.673 527.209 257.584 527.99 257.659C529.104 257.637 530.204 257.915 531.174 258.463C532.145 259.012 532.95 259.811 533.506 260.777Z" fill="#FFC9C3"/>
<path d="M522.776 242.983C522.715 243.35 522.512 243.677 522.212 243.896C521.912 244.115 521.537 244.207 521.17 244.152C520.993 244.104 520.828 244.021 520.683 243.909C520.539 243.796 520.418 243.656 520.327 243.497C520.237 243.338 520.178 243.162 520.156 242.981C520.133 242.799 520.147 242.615 520.196 242.438C520.256 242.071 520.459 241.743 520.759 241.524C521.06 241.306 521.434 241.214 521.802 241.269C521.979 241.317 522.144 241.4 522.289 241.512C522.433 241.625 522.554 241.764 522.645 241.924C522.735 242.083 522.794 242.259 522.816 242.44C522.839 242.622 522.825 242.807 522.776 242.983Z" fill="white"/>
<path d="M454.371 173.512L450.184 181.612L450.197 171.954C447.739 170.99 445.588 170.054 443.711 169.161L436.18 177.242L439.163 166.775C434.971 164.322 432.855 162.235 431.815 160.663C426.904 166.011 422.876 172.108 419.883 178.723C421.798 180.192 423.809 181.53 425.903 182.73L430.862 174.394L430.209 184.982C433.964 186.766 437.859 188.237 441.855 189.382C445.901 190.553 450.007 191.507 454.155 192.242L460.724 180.684L460.205 193.138C464.319 193.634 468.461 193.861 472.605 193.818L476.038 182.926L477.878 193.58C480.65 193.408 483.401 192.994 486.101 192.344L496.645 179.728C496.645 179.728 479.079 182.261 454.371 173.512Z" fill="#0A597C"/>
<path d="M560.149 549.475C535.149 546.427 520.76 540.469 512.841 535.692C518.769 534.153 525.783 531.808 533.122 529.075C518.994 526.255 510.262 523.904 504.891 522.448L504.151 528.581C504.061 529.327 504.009 530.078 503.997 530.829C503.997 531.091 504.018 531.348 504.024 531.61C504.033 532.094 504.033 532.578 504.075 533.055C504.087 533.188 504.115 533.317 504.13 533.455C504.193 534.055 504.265 534.655 504.378 535.235C504.387 535.288 504.405 535.335 504.416 535.392C504.546 536.047 504.7 536.692 504.89 537.329V537.344C506.154 541.5 508.609 545.194 511.95 547.969C515.291 550.745 519.373 552.48 523.69 552.961L618.368 564.071C623.699 564.726 629.088 563.438 633.547 560.442C638.005 557.446 641.235 552.944 642.643 547.76C615.359 552.171 587.593 552.748 560.149 549.475Z" fill="#7AA5EA"/>
<path d="M471.97 146.829C471.97 146.829 482.67 149.094 497.79 158.561C512.91 168.028 514.991 170.81 514.991 170.81C514.991 170.81 501.521 145.31 471.97 146.829Z" fill="#0A597C"/>
<path d="M480.832 217.076C480.832 217.076 497.226 217.494 510.832 210.533C524.438 203.572 527.082 192.433 527.082 192.433C527.082 192.433 512.768 210.811 480.832 217.076Z" fill="#0A597C"/>
<path d="M388.748 264.363C388.748 264.363 389.882 225.754 411.614 207.75L388.748 264.363Z" fill="#0A597C"/>
<path d="M448.458 258.178L446.183 295.806C446.183 295.806 438.973 299.106 426.393 295.806C413.813 292.506 411.22 286.919 411.22 286.919V270.729L406.047 285.529C406.047 285.529 393.122 284.412 385.357 273.797C383.459 271.234 382.113 268.306 381.402 265.197C394.233 268.159 418.932 270.797 447.321 258.064C447.691 258.114 448.075 258.152 448.458 258.178Z" fill="#19313E"/>
<path d="M435.166 230.093C438.386 231.198 441.313 234.283 443.883 238.516C443.883 238.516 441.262 238.724 441.403 242.205C441.544 245.686 446.86 247.981 446.86 247.981C446.86 247.981 448.986 252.158 444.947 252.088C442.915 252.055 440.976 251.229 439.545 249.785C438.115 248.341 437.306 246.395 437.293 244.362C437.173 243.119 437.394 241.867 437.931 240.74C438.468 239.613 439.301 238.653 440.341 237.962C440.341 237.962 438.498 234.481 436.089 233.577C433.68 232.673 435.31 240.468 433.538 240.746C431.766 241.024 429.474 228.139 435.166 230.093Z" fill="#E5A5A1"/>
<path d="M500.931 238.604C501.173 236.665 500.878 234.697 500.078 232.913C499.279 231.13 498.005 229.601 496.396 228.492C490.796 224.663 481.939 230.163 481.372 230.441C480.805 230.719 478.548 230.121 478.548 230.121C478.597 231.02 478.837 231.898 479.25 232.697C479.664 233.496 480.243 234.199 480.948 234.758C480.948 234.758 486.248 229.025 492.358 229.676C498.468 230.327 500.931 238.604 500.931 238.604Z" fill="#19313E"/>
<path d="M517.566 241.019C517.566 241.019 522.613 235.347 527.824 236.887C532.398 238.239 533.372 244.503 533.372 244.503C533.372 244.503 535.799 244.188 536.667 242.903L534.417 241.964C534.417 241.964 533.957 237.508 530.378 235.489C526.799 233.47 519.954 235.97 517.566 241.019Z" fill="#19313E"/>
<path d="M556.004 378.333C556.004 378.333 564.313 382.786 588.504 386.871C612.695 390.956 626.774 387.602 626.774 387.602L627.764 379.458L556.881 371.146L556.004 378.333Z" fill="#7AA5EA"/>
<path d="M580.809 497.827C580.809 497.827 459.609 559.339 432.509 524.699C410.109 496.099 394.86 435.759 390.72 393.44C400.562 431.84 421.529 501.04 447.365 514.34C483.516 532.966 577.309 489.366 577.309 489.366L577.322 489.379L580.809 497.827Z" fill="#B6C6EF"/>
<path d="M467.679 474.661C467.679 474.661 464.798 494.576 460.285 504.878C460.285 504.878 466.546 505.434 470.797 494.854C475.048 484.274 467.679 474.661 467.679 474.661Z" fill="#B6C6EF"/>
<path d="M615.155 479.038C610.603 480.987 607.324 482.585 607.324 482.585L590.152 486.353L577.267 489.159L577.201 488.913L577.135 488.926L568.76 468.267L568.654 468.019L572.014 467.07L572.133 467.318L576.392 476.36C577.717 479.13 579.945 481.367 582.71 482.703C585.476 484.039 588.613 484.395 591.607 483.712C592.669 483.473 593.806 483.21 595.018 482.923C604.966 480.571 610.563 479.142 614.068 477.829C618.218 476.013 619.015 472.8 619.015 472.8C621.425 473.893 619.701 477.103 615.155 479.038Z" fill="#E5A5A1"/>
<path d="M589.746 453.428L587.814 456.545C587.814 456.545 583.501 458.703 583.025 457.871C582.549 457.039 585.763 454.155 590.025 450.258C591.904 448.56 593.495 446.567 594.734 444.358C594.822 444.393 594.906 444.437 594.986 444.488C598.288 446.515 590.973 452.752 589.746 453.428Z" fill="#E5A5A1"/>
<path d="M604.542 462.233C603.726 463.29 602.577 464.04 601.281 464.36C599.297 464.74 598.092 464.96 597.596 464.36C597.1 463.76 602.982 462.093 604.542 462.233Z" fill="#E5A5A1"/>
<path d="M605.321 468.984C604.505 470.041 603.356 470.791 602.061 471.112C600.076 471.49 598.871 471.712 598.375 471.112C597.879 470.512 603.758 468.846 605.321 468.984Z" fill="#E5A5A1"/>
<path d="M606.175 476.873C605.359 477.93 604.21 478.68 602.915 479.001C600.93 479.379 599.725 479.601 599.229 479.001C598.733 478.401 604.612 476.733 606.175 476.873Z" fill="#E5A5A1"/>
<path d="M434.09 298.012L471.377 351.352L487.806 348.382L485.306 362.43L517.606 410.102C517.606 410.102 513.953 364.774 483.214 331.891C452.475 299.008 438.114 293.439 438.114 293.439L434.09 298.012Z" fill="#D0DCFF"/>
<path d="M641.824 373.767C640.441 376.639 638.273 379.061 635.571 380.754C632.87 382.446 629.745 383.339 626.557 383.33C625.885 383.329 625.213 383.29 624.546 383.213L561.035 375.767C558.857 375.532 556.747 374.868 554.826 373.815C552.906 372.762 551.212 371.339 549.843 369.629C548.473 367.92 547.455 365.956 546.847 363.852C546.239 361.748 546.052 359.544 546.298 357.367C546.529 355.426 547.107 353.543 548.004 351.806C552.291 356.017 561.18 362.785 577.346 367.568C598.01 373.663 628.252 375.248 641.824 373.767Z" fill="#345B93"/>
<path d="M589.636 349.376C589.636 349.376 627.436 351.976 632.723 354.388C638.01 356.8 633.858 360.513 604.943 356.057C576.028 351.601 584.939 349.031 589.636 349.376Z" fill="#6990C9"/>
<path d="M557.319 390.769C557.319 390.769 562.36 395.038 581.1 398.379C599.84 401.72 624.03 398.936 625.353 398.379C626.676 397.822 633.162 403.433 636.012 406.547C638.393 409.147 598.895 413.438 574.705 407.289C554.165 402.067 551.839 398.008 544.28 403.02C536.721 408.032 530.307 417.931 527.473 414.343C524.639 410.755 542.201 391.14 557.319 390.769Z" fill="#ABCBFF"/>
<path opacity="0.22" d="M122.013 249.524H107.767V235.53H88.383V249.523H74.137V268.561H88.384V282.555H107.767V268.562H122.014L122.013 249.524Z" fill="#0A9A73"/>
<path opacity="0.18" d="M662.03 303.513H650.841V292.523H635.618V303.513H624.428V318.465H635.617V329.455H650.84V318.465H662.029L662.03 303.513Z" fill="#0A9A73"/>
<g opacity="0.36">
<path d="M589.149 138.822C586.058 145.248 575.409 146.683 565.356 142.016C555.303 137.349 549.68 128.351 552.781 121.924C554.734 117.854 559.732 115.795 565.681 116.009C566.468 116.037 567.275 116.103 568.1 116.215C571.036 116.628 573.894 117.478 576.578 118.738C586.618 123.405 592.25 132.392 589.149 138.822Z" fill="#13B287"/>
<path d="M552.779 121.92L551.13 125.296C550.34 126.903 550.116 128.73 550.494 130.481C551.294 134.158 553.864 140.311 562.022 144.844C570.644 149.632 578.089 148.544 582.345 146.839C584.446 145.783 586.199 144.143 587.392 142.116L588.786 139.498C585.295 141.899 581.219 143.311 576.99 143.584C572.762 143.858 568.538 142.982 564.767 141.051C551.367 134.41 552.779 121.92 552.779 121.92Z" fill="#09916C"/>
<path d="M577.874 144.447H575.029L565.678 116.009C566.465 116.037 567.272 116.103 568.097 116.215L577.874 144.447Z" fill="#09916C"/>
</g>
<path d="M403.651 656.655C333.169 665.309 253.276 637.639 181.995 579.352C127.842 535.072 85.6785 483.15 60.0618 429.192C29.3753 364.567 22.3789 298.372 39.2636 232.448C48.1741 198.107 63.9053 165.91 85.5199 137.777C106.864 110.015 133.21 87.3619 161.713 72.2709C211.425 45.9472 264.861 43.929 312.17 66.5823C315.725 68.2868 319.333 70.1641 322.892 72.1683C325.212 73.4743 327.556 74.8691 329.849 76.3134C331.238 77.1926 332.617 78.0873 333.985 78.9973C340.432 83.2886 350.8 90.1905 360.015 99.3104C361.179 98.2195 362.301 97.1881 363.356 96.2152C397.106 65.1465 435.679 46.2086 475.005 41.3798C475.56 41.3117 476.108 41.2445 476.664 41.1853C531.728 34.9845 588.433 61.5972 628.348 112.373C653.603 144.499 670.748 187.38 677.931 236.385C684.305 281.511 682.599 327.411 672.893 371.939C658.637 436.214 625.332 500.51 579.11 552.997C531.39 607.184 474.26 643.166 418.244 654.315C413.432 655.273 408.567 656.053 403.651 656.655ZM224.711 56.0998C203.187 58.8819 182.355 65.586 163.249 75.8795C135.161 90.7524 109.192 113.082 88.1477 140.453C66.8587 168.157 51.3634 199.863 42.5847 233.681C25.9682 298.565 32.8619 363.735 63.0852 427.395C88.4414 480.798 130.23 532.236 183.935 576.15C254.502 633.85 333.522 661.262 403.155 652.715C408 652.12 412.796 651.351 417.542 650.407C472.89 639.393 529.393 603.781 576.635 550.133C622.438 498.124 655.43 434.45 669.537 370.844C679.126 326.85 680.812 281.501 674.516 236.916C667.445 188.681 650.602 146.515 625.809 114.975C586.653 65.1677 531.065 39.0556 477.112 45.1351C437.86 49.5103 399.297 68.2991 365.573 99.3434C364.65 100.193 363.671 101.088 362.662 102.037C372.554 112.597 380.425 125.824 379.399 141.173C378.6 153.143 371.719 163.375 362.667 166.066C357.265 167.663 351.172 166.312 345.941 162.345C340.713 158.381 337.24 152.531 336.263 146.042C333.612 127.639 346.466 112.419 357.361 101.842C348.498 93.1813 338.517 86.5371 332.32 82.4116C330.973 81.5151 329.619 80.6363 328.258 79.7751C326.014 78.363 323.723 76.9991 321.452 75.7203C317.958 73.7534 314.418 71.9091 310.928 70.2379C284.152 57.3154 254.212 52.4058 224.711 56.0998ZM360.023 104.543C349.641 114.573 337.286 128.929 339.676 145.529C340.511 150.925 343.421 155.781 347.786 159.062C352.177 162.392 357.245 163.543 361.7 162.226C369.402 159.94 375.265 151.104 375.958 140.738C376.887 126.76 369.428 114.472 360.024 104.543L360.023 104.543Z" fill="white"/>
</svg>
