<svg xmlns="http://www.w3.org/2000/svg" width="23" height="24" viewBox="0 0 23 24" fill="none">
    <path d="M17.91 14.656C17.7128 14.4329 17.4714 14.2531 17.2012 14.1279C16.931 14.0028 16.6377 13.9351 16.34 13.929C16.0402 13.9364 15.7451 14.0043 15.4722 14.1285C15.1994 14.2527 14.9544 14.4308 14.752 14.652L13.285 16.13C13.164 16.064 13.044 16.003 12.927 15.942C12.76 15.858 12.602 15.778 12.467 15.693C11.0098 14.7356 9.71882 13.5466 8.64498 12.173C8.14567 11.5609 7.72443 10.8891 7.39098 10.173C7.77198 9.82099 8.12498 9.45499 8.46798 9.10299C8.59798 8.97199 8.72798 8.83499 8.85798 8.70299C9.08801 8.49956 9.27219 8.24958 9.39834 7.96961C9.52448 7.68964 9.58972 7.38607 9.58972 7.07899C9.58972 6.77192 9.52448 6.46834 9.39834 6.18837C9.27219 5.9084 9.08801 5.65843 8.85798 5.45499L7.59198 4.17599C7.44798 4.03099 7.29898 3.87599 7.15998 3.72999C6.88098 3.43899 6.58898 3.13899 6.28698 2.85699C6.08691 2.64382 5.84612 2.47292 5.57886 2.3544C5.3116 2.23589 5.02329 2.17216 4.73098 2.16699C4.13425 2.17976 3.56672 2.42776 3.15198 2.85699L3.14298 2.86599L1.56398 4.47599C0.976565 5.0597 0.618774 5.83527 0.555981 6.66099C0.502138 7.85017 0.704719 9.03701 1.14998 10.141C1.97966 12.3275 3.18176 14.3538 4.70298 16.13C6.68916 18.5477 9.17058 20.5115 11.98 21.889C13.2521 22.5525 14.6393 22.9667 16.067 23.109C16.167 23.109 16.267 23.118 16.36 23.118C16.8643 23.1297 17.3652 23.0317 17.828 22.8307C18.2907 22.6297 18.7043 22.3306 19.04 21.954C19.04 21.945 19.054 21.94 19.059 21.931C19.3141 21.6332 19.5855 21.3498 19.872 21.082C20.072 20.89 20.272 20.688 20.472 20.477C20.9076 20.0473 21.1587 19.4648 21.172 18.853C21.1663 18.5505 21.1001 18.2522 20.9773 17.9757C20.8545 17.6992 20.6776 17.45 20.457 17.243L17.91 14.656ZM19.573 19.598C19.392 19.798 19.206 19.973 19.006 20.171C18.6896 20.4679 18.3892 20.7813 18.106 21.11C17.8879 21.3553 17.6183 21.5493 17.3164 21.6783C17.0146 21.8073 16.688 21.8679 16.36 21.856C16.29 21.856 16.216 21.856 16.146 21.856C14.8796 21.7234 13.6502 21.35 12.524 20.756C9.87857 19.4572 7.54161 17.6074 5.66998 15.331C4.23983 13.6617 3.10855 11.7581 2.32598 9.70399C1.93644 8.77379 1.7598 7.76826 1.80898 6.76099C1.84522 6.23363 2.07323 5.73777 2.44998 5.36699L4.03398 3.76699C4.21784 3.56948 4.47062 3.45024 4.73998 3.43399C5.00025 3.44936 5.24392 3.56689 5.41798 3.76099L5.43198 3.77499C5.71498 4.04299 5.98498 4.31899 6.26798 4.61499C6.41198 4.76499 6.56098 4.91499 6.70898 5.06999L7.97698 6.35099C8.09164 6.4345 8.18495 6.54394 8.24927 6.67037C8.3136 6.7968 8.34713 6.93664 8.34713 7.07849C8.34713 7.22035 8.3136 7.36019 8.24927 7.48662C8.18495 7.61305 8.09164 7.72248 7.97698 7.80599C7.84198 7.94199 7.71198 8.07799 7.57698 8.20599C7.18698 8.60599 6.81498 8.98499 6.41098 9.35099C6.40198 9.35999 6.39198 9.36499 6.38798 9.37399C6.24496 9.5064 6.14538 9.67903 6.10236 9.86913C6.05934 10.0592 6.0749 10.2579 6.14698 10.439L6.16098 10.481C6.54226 11.3717 7.04723 12.2043 7.66098 12.954C8.81883 14.4419 10.2146 15.7283 11.792 16.761C11.9768 16.8754 12.1674 16.9802 12.363 17.075C12.53 17.159 12.688 17.239 12.823 17.324C12.842 17.333 12.86 17.347 12.879 17.357C13.0676 17.4613 13.2864 17.4976 13.4986 17.4599C13.7109 17.4222 13.9037 17.3128 14.045 17.15L15.633 15.545C15.812 15.3415 16.0629 15.2153 16.333 15.193C16.4621 15.2012 16.5881 15.2359 16.7031 15.2949C16.8182 15.3539 16.92 15.436 17.002 15.536L17.011 15.545L19.57 18.131C19.681 18.2183 19.7708 18.3296 19.8326 18.4565C19.8944 18.5835 19.9266 18.7228 19.9268 18.864C19.927 19.0052 19.8951 19.1446 19.8337 19.2717C19.7722 19.3989 19.6828 19.5104 19.572 19.598H19.573Z" fill="#0A9A73"/>
    <path d="M12.411 6.16996C13.6279 6.37934 14.7477 6.96724 15.611 7.84996C16.4873 8.73104 17.0684 9.86246 17.274 11.088C17.2976 11.2348 17.3728 11.3685 17.4861 11.4649C17.5993 11.5613 17.7433 11.6142 17.892 11.614C17.9279 11.6133 17.9636 11.6103 17.999 11.605C18.1643 11.5759 18.3112 11.4826 18.4078 11.3453C18.5043 11.2081 18.5425 11.0383 18.514 10.873C18.2654 9.38999 17.5628 8.02071 16.503 6.95396C15.4552 5.88708 14.0987 5.17629 12.625 4.92196C12.4629 4.90055 12.2987 4.94266 12.1669 5.03946C12.035 5.13627 11.9457 5.28028 11.9175 5.44141C11.8894 5.60254 11.9246 5.76832 12.0158 5.90409C12.107 6.03986 12.2472 6.13512 12.407 6.16996H12.411Z" fill="#0A9A73"/>
    <path d="M22.498 10.6899C22.0894 8.24786 20.9324 5.99301 19.187 4.23689C17.4611 2.47894 15.2259 1.30837 12.798 0.89089C12.7168 0.87731 12.6337 0.879898 12.5536 0.898504C12.4734 0.91711 12.3977 0.951369 12.3308 0.999314C12.2639 1.04726 12.2071 1.10794 12.1637 1.17789C12.1204 1.24783 12.0912 1.32565 12.078 1.40689C12.0501 1.57214 12.0885 1.74174 12.1849 1.87881C12.2814 2.01588 12.428 2.10935 12.593 2.13889C14.7613 2.51378 16.7574 3.55956 18.3 5.12889C19.8602 6.69832 20.8939 8.71401 21.258 10.8969C21.2815 11.0438 21.3567 11.1774 21.47 11.2738C21.5833 11.3703 21.7272 11.4231 21.876 11.4229C21.9118 11.4222 21.9475 11.4192 21.983 11.4139C22.0648 11.4011 22.1432 11.3721 22.2136 11.3285C22.284 11.285 22.3449 11.2278 22.3929 11.1603C22.4409 11.0929 22.4749 11.0165 22.493 10.9357C22.511 10.8549 22.5127 10.7713 22.498 10.6899Z" fill="#0A9A73"/>
</svg>