<svg xmlns="http://www.w3.org/2000/svg" width="21" height="19" viewBox="0 0 21 19" fill="none">
    <path d="M10.5574 9.20909C11.8607 9.20897 13.1236 8.84608 14.131 8.18226C15.1384 7.51844 15.828 6.59477 16.0823 5.56856C16.3366 4.54234 16.1398 3.47708 15.5255 2.55427C14.9112 1.63146 13.9174 0.908155 12.7134 0.507612C11.5094 0.107068 10.1697 0.0540566 8.92245 0.357587C7.6752 0.661118 6.59762 1.30242 5.87327 2.17225C5.14892 3.04209 4.82261 4.08663 4.94993 5.12794C5.07725 6.16926 5.65033 7.14295 6.57153 7.8831C7.08836 8.31045 7.70851 8.64849 8.39392 8.87651C9.07934 9.10453 9.81555 9.21771 10.5574 9.20909ZM7.54558 2.26109C8.24262 1.70002 9.16043 1.35035 10.1426 1.27168C11.1248 1.19301 12.1106 1.39021 12.9319 1.82966C13.7533 2.26912 14.3595 2.92364 14.6471 3.68168C14.9347 4.43973 14.8861 5.2544 14.5094 5.98686C14.1327 6.71932 13.4513 7.32427 12.5813 7.69859C11.7113 8.07291 10.7065 8.19343 9.73825 8.03966C8.76996 7.88588 7.89805 7.46729 7.2711 6.85524C6.64415 6.24318 6.30095 5.47553 6.29999 4.68309C6.28778 4.23218 6.39216 3.78414 6.60655 3.36726C6.82094 2.95038 7.14068 2.57373 7.54558 2.26109Z" fill="#202834"/>
    <path d="M20.4088 14.6061C20.3715 14.208 20.3079 13.8118 20.2182 13.4191C20.1299 13.0151 20.0084 12.6162 19.8545 12.2251C19.6995 11.8382 19.4949 11.4652 19.2442 11.1121C18.9977 10.756 18.6876 10.4309 18.3237 10.1471C17.9412 9.8574 17.4918 9.63048 17.0009 9.47909C16.4628 9.312 15.89 9.22851 15.3131 9.23309C14.9766 9.26211 14.6584 9.37071 14.3989 9.5451C14.1236 9.6891 13.8035 9.8561 13.4448 10.0401C13.0576 10.2256 12.6434 10.372 12.2116 10.4761C11.2323 10.737 10.1742 10.737 9.19481 10.4761C8.76281 10.3724 8.34857 10.226 7.96168 10.0401C7.60669 9.8571 7.28533 9.6921 7.00756 9.5451C6.74755 9.37069 6.42895 9.2621 6.09206 9.23309C5.51514 9.22851 4.94239 9.312 4.40429 9.47909C3.91369 9.63099 3.46446 9.85784 3.08148 10.1471C2.71796 10.431 2.40825 10.7561 2.16223 11.1121C1.9115 11.4652 1.70696 11.8382 1.5519 12.2251C1.39823 12.6163 1.27673 13.0151 1.18818 13.4191C1.09772 13.812 1.0341 14.2086 0.99761 14.6071C0.967716 14.9651 0.951525 15.3391 0.951525 15.7171C0.927581 16.1533 1.01786 16.5888 1.21653 16.9953C1.4152 17.4018 1.71785 17.7703 2.10494 18.0771C2.91258 18.6709 3.98013 18.9841 5.07441 18.9481H16.3295C17.4241 18.9839 18.492 18.6708 19.3003 18.0771C19.6873 17.7703 19.9898 17.4018 20.1883 16.9953C20.3868 16.5887 20.4768 16.1533 20.4524 15.7171C20.4549 15.3371 20.44 14.9681 20.4088 14.6061ZM18.3586 17.2791C18.0841 17.4763 17.7637 17.628 17.4159 17.7255C17.0681 17.823 16.6998 17.8643 16.332 17.8471H5.07691C4.70933 17.8645 4.3411 17.8232 3.99349 17.7257C3.64588 17.6282 3.32575 17.4764 3.05158 17.2791C2.79987 17.0747 2.60491 16.8299 2.47954 16.5606C2.35416 16.2914 2.30121 16.0039 2.32416 15.7171C2.32416 15.3641 2.3391 15.0171 2.36775 14.6841C2.40092 14.3252 2.45788 13.9681 2.5384 13.6141C2.61634 13.2579 2.72327 12.9061 2.85851 12.5611C2.98552 12.2465 3.15248 11.9433 3.35675 11.6561C3.53809 11.3937 3.76592 11.1539 4.0331 10.9441C4.28803 10.7531 4.58667 10.6037 4.91249 10.5041C5.25735 10.3975 5.62292 10.3406 5.99241 10.3361C6.03974 10.3561 6.12569 10.3961 6.2627 10.4681C6.54545 10.6151 6.8693 10.7841 7.22803 10.9681C7.71303 11.2048 8.2332 11.3916 8.77629 11.5241C10.03 11.857 11.3839 11.857 12.6376 11.5241C13.1807 11.3916 13.7009 11.2048 14.1859 10.9681C14.5533 10.7791 14.8685 10.6151 15.15 10.4681C15.2882 10.3961 15.3729 10.3561 15.4215 10.3361C15.791 10.3407 16.1565 10.3976 16.5014 10.5041C16.827 10.6035 17.1253 10.7529 17.3796 10.9441C17.6479 11.1537 17.8762 11.3939 18.0572 11.6571C18.2613 11.9425 18.4283 12.2441 18.5554 12.5571C18.6906 12.9021 18.7976 13.2539 18.8755 13.6101C18.956 13.9641 19.0129 14.3212 19.0462 14.6801C19.0748 15.0121 19.0897 15.3601 19.0897 15.7131C19.1126 16.0008 19.0593 16.2891 18.9332 16.559C18.8072 16.8289 18.6114 17.0743 18.3586 17.2791Z" fill="#202834"/>
</svg>