<svg width="146" height="130" viewBox="0 0 146 130" fill="none" xmlns="http://www.w3.org/2000/svg">
<g opacity="0.07">
<path d="M128.795 38.4729C124.546 38.4746 120.463 40.1228 117.404 43.0712C114.345 46.0197 112.547 50.039 112.389 54.2849L105.625 55.3309C104.512 50.8567 102.505 46.6541 99.725 42.9759L106.894 36.4639C107.633 36.7439 108.416 36.8905 109.207 36.8969C110.543 36.8969 111.849 36.5007 112.96 35.7584C114.071 35.0162 114.937 33.9612 115.448 32.7269C115.959 31.4926 116.093 30.1344 115.832 28.824C115.572 27.5137 114.928 26.3101 113.983 25.3654C113.039 24.4207 111.835 23.7773 110.525 23.5167C109.214 23.256 107.856 23.3898 106.622 23.9011C105.388 24.4123 104.333 25.2781 103.59 26.389C102.848 27.4998 102.452 28.8058 102.452 30.1418C102.459 30.7165 102.54 31.2879 102.693 31.8419L95.522 38.3559C89.993 33.2586 82.9372 30.1272 75.448 29.4469V23.3569C78.1041 22.6027 80.3978 20.9135 81.9061 18.6008C83.4144 16.2881 84.0354 13.508 83.6547 10.7733C83.274 8.03867 81.9172 5.53393 79.8346 3.72116C77.752 1.9084 75.084 0.909912 72.323 0.909912C69.562 0.909912 66.894 1.9084 64.8114 3.72116C62.7288 5.53393 61.372 8.03867 60.9913 10.7733C60.6106 13.508 61.2316 16.2881 62.7399 18.6008C64.2482 20.9135 66.5419 22.6027 69.198 23.3569V29.4469C63.8278 29.9334 58.6497 31.687 54.089 34.5638L48.33 27.0069C48.4999 26.088 48.388 25.1392 48.009 24.285C47.63 23.4308 47.0016 22.7112 46.2063 22.2206C45.411 21.7299 44.486 21.4912 43.5526 21.5357C42.6192 21.5802 41.721 21.9058 40.976 22.4699C40.231 23.034 39.6739 23.8101 39.3779 24.6964C39.0819 25.5828 39.0607 26.5379 39.3172 27.4365C39.5738 28.335 40.0959 29.1351 40.8153 29.7316C41.5346 30.3281 42.4175 30.6931 43.348 30.7789L49.122 38.3569C45.464 41.6956 42.5701 45.7847 40.638 50.3448L33.265 48.0119C33.1314 46.0199 32.3063 44.137 30.9323 42.6886C29.5582 41.2401 27.7215 40.317 25.7393 40.0786C23.7571 39.8402 21.7539 40.3015 20.0756 41.3828C18.3973 42.4642 17.1493 44.0977 16.5472 46.0012C15.945 47.9047 16.0265 49.9587 16.7776 51.8086C17.5287 53.6584 18.9022 55.1879 20.6609 56.1328C22.4196 57.0778 24.4531 57.3789 26.4102 56.9841C28.3673 56.5894 30.1251 55.5236 31.38 53.9709L38.767 56.3089C37.3878 62.52 37.7867 68.994 39.918 74.9889L32.446 78.3958C30.832 76.0652 28.6769 74.1607 26.1654 72.8456C23.6539 71.5304 20.861 70.8439 18.026 70.8448C13.3683 70.8454 8.90164 72.696 5.60837 75.9897C2.3151 79.2833 0.464996 83.7502 0.464996 88.4079C0.464734 90.7143 0.918755 92.9981 1.80114 95.1291C2.68352 97.26 3.97698 99.1963 5.60767 100.827C7.23836 102.458 9.17434 103.752 11.3051 104.635C13.4358 105.518 15.7196 105.973 18.026 105.973C22.6838 105.973 27.1509 104.123 30.4446 100.829C33.7382 97.5356 35.5887 93.0687 35.589 88.4109C35.5836 86.953 35.3965 85.5014 35.032 84.0898L42.506 80.6808C45.3009 85.5574 49.2454 89.6769 53.996 92.6808L49.126 102.222C47.6795 102.266 46.289 102.791 45.1738 103.713C44.0586 104.636 43.2823 105.903 42.9672 107.315C42.6521 108.728 42.8162 110.205 43.4337 111.514C44.0512 112.822 45.0869 113.888 46.3773 114.543C47.6678 115.198 49.1396 115.405 50.5605 115.131C51.9814 114.857 53.2706 114.117 54.2246 113.029C55.1787 111.941 55.7433 110.566 55.8293 109.121C55.9154 107.677 55.5181 106.245 54.7 105.051L59.558 95.5338C63.6149 97.1678 67.9474 98.0087 72.321 98.0109C73.303 98.0109 74.268 97.9439 75.229 97.8639L76.49 104.952C73.5794 106.241 71.2413 108.55 69.9169 111.445C68.5926 114.339 68.3736 117.619 69.3013 120.664C70.229 123.708 72.2392 126.309 74.9525 127.973C77.6659 129.637 80.8946 130.251 84.0293 129.698C87.1641 129.145 89.9879 127.464 91.968 124.971C93.948 122.479 94.9472 119.348 94.777 116.169C94.6068 112.991 93.2789 109.984 91.044 107.718C88.8091 105.451 85.8219 104.081 82.646 103.866L81.383 96.7659C88.3071 94.8766 94.4654 90.8658 98.993 85.2968L104.885 89.2469C103.955 91.992 104.054 94.9815 105.163 97.6594C106.272 100.337 108.316 102.521 110.914 103.805C113.513 105.089 116.489 105.385 119.29 104.639C122.091 103.892 124.525 102.154 126.14 99.7473C127.755 97.3407 128.441 94.4292 128.071 91.5546C127.7 88.68 126.298 86.0379 124.125 84.1196C121.952 82.2013 119.157 81.1374 116.258 81.1259C113.36 81.1143 110.556 82.1559 108.368 84.0569L102.484 80.1118C105.246 75.0668 106.69 69.4065 106.684 63.6548C106.684 62.9338 106.62 62.2298 106.576 61.5208L113.344 60.4738C114.364 63.3038 116.141 65.7994 118.482 67.6886C120.823 69.5778 123.638 70.788 126.619 71.1874C129.601 71.5868 132.635 71.16 135.39 69.9535C138.146 68.747 140.517 66.8072 142.246 64.3455C143.975 61.8837 144.995 58.9946 145.194 55.9931C145.394 52.9916 144.766 49.993 143.378 47.324C141.991 44.655 139.897 42.4182 137.325 40.8574C134.754 39.2967 131.803 38.4718 128.795 38.4729Z" fill="#0A9A73"/>
</g>
</svg>
