<svg xmlns="http://www.w3.org/2000/svg" width="41" height="41" viewBox="0 0 41 41" fill="none">
    <path d="M37.9811 3.00792C37.2463 2.25919 36.3697 1.66444 35.4024 1.25843C34.4351 0.852425 33.3966 0.643311 32.3476 0.643311C31.2986 0.643311 30.2601 0.852425 29.2928 1.25843C28.3255 1.66444 27.4489 2.25919 26.7141 3.00792L20.5331 9.26592L14.3501 3.00792C13.6144 2.2609 12.7374 1.66766 11.7703 1.26274C10.8031 0.857811 9.7651 0.64928 8.7166 0.64928C7.66811 0.64928 6.63008 0.857811 5.66294 1.26274C4.69579 1.66766 3.81883 2.2609 3.0831 3.00792C1.58659 4.5293 0.747925 6.57787 0.747925 8.71192C0.747925 10.846 1.58659 12.8945 3.0831 14.4159L10.0831 21.5039C10.1901 21.6129 10.3178 21.6995 10.4587 21.7586C10.5996 21.8177 10.7508 21.8481 10.9036 21.8481C11.0564 21.8481 11.2076 21.8177 11.3485 21.7586C11.4894 21.6995 11.6171 21.6129 11.7241 21.5039L20.5301 12.5879L29.3361 21.5039C29.4431 21.6129 29.5708 21.6995 29.7117 21.7586C29.8526 21.8177 30.0038 21.8481 30.1566 21.8481C30.3094 21.8481 30.4606 21.8177 30.6015 21.7586C30.7424 21.6995 30.8701 21.6129 30.9771 21.5039L37.9771 14.4159C39.4705 12.8929 40.3071 10.845 40.3071 8.71192C40.3071 6.57889 39.4705 4.53093 37.9771 3.00792H37.9811ZM10.9071 19.0079L4.7261 12.7549C3.66773 11.6755 3.07488 10.2241 3.07488 8.71242C3.07488 7.20072 3.66773 5.74931 4.7261 4.66992C5.24726 4.14004 5.86868 3.71921 6.55414 3.43195C7.2396 3.14468 7.97538 2.99674 8.7186 2.99674C9.46182 2.99674 10.1976 3.14468 10.8831 3.43195C11.5685 3.71921 12.1899 4.14004 12.7111 4.66992L18.8921 10.9279L10.9071 19.0079ZM36.3401 12.7549L30.1591 19.0129L22.1731 10.9279L28.3501 4.66992C28.8713 4.13989 29.4928 3.71893 30.1783 3.43158C30.8639 3.14422 31.5998 2.99623 32.3431 2.99623C33.0864 2.99623 33.8223 3.14422 34.5079 3.43158C35.1934 3.71893 35.8149 4.13989 36.3361 4.66992C37.3945 5.74931 37.9873 7.20072 37.9873 8.71242C37.9873 10.2241 37.3945 11.6755 36.3361 12.7549H36.3401Z" fill="#0A9A73"/>
    <path d="M18.0571 23.201C17.3272 23.1918 16.611 23.4 15.9996 23.7988C15.3883 24.1977 14.9093 24.7694 14.6237 25.4411C14.338 26.1129 14.2585 26.8544 14.3953 27.5715C14.5321 28.2885 14.879 28.9487 15.3919 29.4681C15.9048 29.9875 16.5606 30.3427 17.2759 30.4885C17.9911 30.6343 18.7336 30.5641 19.4089 30.2869C20.0842 30.0097 20.6618 29.538 21.0684 28.9317C21.4749 28.3254 21.692 27.612 21.6921 26.882C21.6969 25.9122 21.3169 24.9801 20.6355 24.2901C19.9541 23.6 19.0268 23.2084 18.0571 23.201ZM18.0571 28.213C17.7932 28.2161 17.5343 28.1408 17.3133 27.9965C17.0923 27.8522 16.9192 27.6454 16.816 27.4025C16.7128 27.1596 16.6842 26.8915 16.7337 26.6322C16.7833 26.373 16.9087 26.1344 17.0942 25.9466C17.2797 25.7589 17.5168 25.6305 17.7755 25.5778C18.0341 25.5252 18.3025 25.5506 18.5467 25.6508C18.7908 25.7511 18.9996 25.9217 19.1466 26.1409C19.2936 26.3601 19.372 26.618 19.3721 26.882C19.3737 27.2327 19.2361 27.5697 18.9897 27.8192C18.7432 28.0687 18.4078 28.2103 18.0571 28.213Z" fill="#0A9A73"/>
    <path d="M26.7221 29.4659C25.9922 29.4567 25.2761 29.6648 24.6647 30.0637C24.0533 30.4626 23.5744 31.0343 23.2887 31.706C23.003 32.3778 22.9235 33.1193 23.0603 33.8364C23.1971 34.5534 23.544 35.2136 24.0569 35.733C24.5699 36.2524 25.2256 36.6076 25.9409 36.7534C26.6562 36.8992 27.3986 36.829 28.0739 36.5518C28.7492 36.2746 29.3269 35.8029 29.7334 35.1966C30.14 34.5903 30.3571 33.8768 30.3571 33.1469C30.3622 32.177 29.9823 31.2448 29.3008 30.5547C28.6194 29.8646 27.692 29.473 26.7221 29.4659ZM26.7221 34.4779C26.4582 34.481 26.1993 34.4057 25.9784 34.2614C25.7574 34.1171 25.5843 33.9103 25.4811 33.6674C25.3779 33.4245 25.3492 33.1564 25.3988 32.8971C25.4483 32.6379 25.5738 32.3992 25.7593 32.2115C25.9448 32.0238 26.1819 31.8954 26.4405 31.8427C26.6991 31.7901 26.9676 31.8155 27.2117 31.9157C27.4558 32.016 27.6647 32.1866 27.8116 32.4058C27.9586 32.625 28.0371 32.8829 28.0371 33.1469C28.0387 33.4976 27.9012 33.8346 27.6547 34.0841C27.4082 34.3336 27.0729 34.4752 26.7221 34.4779Z" fill="#0A9A73"/>
    <path d="M17.5671 19.7049C17.61 19.8518 17.6815 19.9887 17.7777 20.1077C17.8738 20.2267 17.9927 20.3255 18.1273 20.3982C18.2618 20.4709 18.4096 20.5162 18.5618 20.5315C18.714 20.5467 18.8678 20.5315 19.0141 20.4869C19.3102 20.3941 19.5575 20.188 19.7023 19.9136C19.8471 19.6392 19.8776 19.3187 19.7871 19.0219C19.7414 18.866 19.6633 18.7214 19.558 18.5977C19.4527 18.4739 19.3225 18.3737 19.1759 18.3036C19.0293 18.2335 18.8696 18.1951 18.7071 18.1908C18.5447 18.1866 18.3832 18.2166 18.2331 18.2789C17.9658 18.3927 17.75 18.6012 17.627 18.8644C17.5041 19.1276 17.4828 19.4269 17.5671 19.7049Z" fill="#0A9A73"/>
    <path d="M23.7551 22.8368C23.7979 22.9836 23.8695 23.1205 23.9656 23.2394C24.0616 23.3584 24.1803 23.4571 24.3148 23.5299C24.4492 23.6027 24.5968 23.6482 24.7489 23.6636C24.9011 23.6791 25.0547 23.6642 25.2011 23.6198C25.4973 23.5272 25.7449 23.3212 25.8899 23.0468C26.0349 22.7724 26.0655 22.4517 25.9751 22.1548C25.9295 21.9988 25.8515 21.8541 25.7463 21.7303C25.641 21.6065 25.5108 21.5062 25.3641 21.4361C25.2175 21.366 25.0577 21.3276 24.8952 21.3234C24.7327 21.3192 24.5711 21.3494 24.4211 21.4119C24.154 21.5256 23.9383 21.7339 23.8154 21.9969C23.6925 22.2599 23.671 22.559 23.7551 22.8368Z" fill="#0A9A73"/>
    <path d="M32.1901 39.1818C32.1597 39.022 32.0961 38.8704 32.0034 38.7368C31.9106 38.6032 31.7908 38.4906 31.6517 38.4063C31.5126 38.322 31.3574 38.2679 31.196 38.2474C31.0346 38.227 30.8708 38.2408 30.7151 38.2878C30.4191 38.3807 30.1717 38.5867 30.0269 38.8611C29.8821 39.1355 29.8516 39.456 29.9421 39.7528C29.9849 39.8996 30.0565 40.0364 30.1526 40.1553C30.2487 40.2742 30.3674 40.3729 30.5018 40.4457C30.6363 40.5184 30.7839 40.5637 30.936 40.579C31.0882 40.5943 31.2418 40.5793 31.3881 40.5348C31.6655 40.4485 31.901 40.2624 32.0491 40.0125C32.1973 39.7626 32.2475 39.4666 32.1901 39.1818Z" fill="#0A9A73"/>
    <path d="M23.5271 39.1818C23.4969 39.022 23.4334 38.8703 23.3407 38.7366C23.248 38.6029 23.1282 38.4902 22.989 38.4059C22.8499 38.3215 22.6946 38.2675 22.5332 38.2471C22.3717 38.2268 22.2078 38.2407 22.0521 38.2879C21.7562 38.3809 21.509 38.587 21.3643 38.8614C21.2195 39.1357 21.1889 39.4561 21.2791 39.7529C21.3222 39.8996 21.3939 40.0363 21.4901 40.1552C21.5863 40.2741 21.7051 40.3727 21.8397 40.4454C21.9742 40.5181 22.1218 40.5634 22.2739 40.5788C22.4261 40.5941 22.5798 40.5792 22.7261 40.5348C23.0033 40.4483 23.2386 40.2621 23.3866 40.0123C23.5345 39.7624 23.5846 39.4665 23.5271 39.1818Z" fill="#0A9A73"/>
    <path d="M19.8151 34.1698C19.7847 34.0101 19.7211 33.8585 19.6284 33.7248C19.5356 33.5912 19.4158 33.4786 19.2767 33.3943C19.1376 33.31 18.9824 33.2559 18.821 33.2355C18.6596 33.2151 18.4958 33.2288 18.3401 33.2758C18.0442 33.3689 17.797 33.575 17.6523 33.8494C17.5075 34.1237 17.4769 34.4441 17.5671 34.7409C17.6098 34.8878 17.6813 35.0248 17.7774 35.1439C17.8735 35.2631 17.9924 35.3619 18.127 35.4347C18.2616 35.5076 18.4093 35.553 18.5616 35.5683C18.7139 35.5836 18.8677 35.5685 19.0141 35.5239C19.2914 35.4371 19.5267 35.2507 19.6746 35.0007C19.8226 34.7506 19.8726 34.4546 19.8151 34.1698Z" fill="#0A9A73"/>
    <path d="M13.3092 33.351C13.5269 33.1293 13.649 32.8309 13.649 32.5201C13.649 32.2092 13.5269 31.9108 13.3092 31.689C13.1952 31.5732 13.0581 31.4827 12.9067 31.4237C12.7553 31.3646 12.5931 31.3383 12.4308 31.3464C12.2686 31.3545 12.1098 31.397 11.9651 31.4708C11.8204 31.5447 11.6929 31.6484 11.5912 31.775C11.3966 32.017 11.3046 32.3256 11.3349 32.6346C11.3652 32.9436 11.5153 33.2284 11.7532 33.428C11.9749 33.6128 12.2579 33.7074 12.5462 33.6932C12.8344 33.6789 13.1068 33.5568 13.3092 33.351Z" fill="#0A9A73"/>
    <path d="M15.4832 39.183C15.4528 39.0233 15.3892 38.8718 15.2965 38.7383C15.2038 38.6048 15.0841 38.4922 14.9451 38.4079C14.8062 38.3236 14.651 38.2695 14.4898 38.249C14.3285 38.2285 14.1648 38.2421 14.0092 38.289C13.7131 38.3818 13.4658 38.5879 13.321 38.8623C13.1762 39.1367 13.1457 39.4572 13.2362 39.754C13.279 39.9009 13.3506 40.0378 13.4467 40.1568C13.5429 40.2758 13.6617 40.3745 13.7963 40.4473C13.9309 40.52 14.0786 40.5653 14.2308 40.5805C14.3831 40.5958 14.5368 40.5806 14.6831 40.536C14.96 40.4491 15.195 40.2628 15.3427 40.0129C15.4904 39.7631 15.5404 39.4675 15.4832 39.183Z" fill="#0A9A73"/>
</svg>