<svg xmlns="http://www.w3.org/2000/svg" width="48" height="36" viewBox="0 0 48 36" fill="none">
    <path d="M1.66704 12.1698C1.85003 12.1691 2.02871 12.1142 2.18052 12.012C2.33234 11.9099 2.45048 11.765 2.52004 11.5958C2.58849 11.4215 2.6014 11.2304 2.55701 11.0485C2.51261 10.8666 2.41308 10.7029 2.27204 10.5798C2.12609 10.4565 1.94591 10.3809 1.75572 10.363C1.56552 10.3451 1.3744 10.3859 1.20804 10.4798C1.04333 10.5743 0.912279 10.7179 0.833209 10.8906C0.754139 11.0633 0.731005 11.2563 0.767041 11.4428C0.811662 11.6486 0.925178 11.833 1.08882 11.9656C1.25247 12.0981 1.45645 12.1709 1.66704 12.1718V12.1698Z" fill="#071C1F"/>
    <path d="M38.457 12.1318C38.646 9.71939 38.0396 7.31149 36.7304 5.2764C35.4213 3.2413 33.4816 1.69106 31.208 0.862787C26.928 -0.493213 23.268 1.55279 20.887 3.20979C20.5148 3.46713 20.073 3.60499 19.6205 3.60499C19.168 3.60499 18.7262 3.46713 18.354 3.20979C15.973 1.55279 12.312 -0.490213 8.033 0.862787C6.60915 1.34097 5.30528 2.12081 4.21042 3.14906C3.11556 4.1773 2.25551 5.42972 1.689 6.82078C1.64063 6.93027 1.61459 7.04831 1.6124 7.16799C1.6102 7.28766 1.63191 7.40657 1.67623 7.51776C1.72056 7.62894 1.78662 7.73018 1.87054 7.81552C1.95447 7.90086 2.05457 7.9686 2.165 8.01478C2.38781 8.1111 2.63962 8.11566 2.86578 8.02749C3.09193 7.93931 3.27419 7.7655 3.373 7.54378C3.83599 6.39154 4.54195 5.35266 5.44276 4.49792C6.34357 3.64319 7.41806 2.9927 8.593 2.59079C12.023 1.50379 15.111 3.19079 17.173 4.60779C17.8838 5.8752 19.0477 6.82687 20.431 7.27179C21.8948 7.75353 23.4897 7.63707 24.868 6.94779C24.9755 6.89537 25.0714 6.82206 25.1502 6.73215C25.229 6.64225 25.2891 6.53754 25.327 6.42415C25.3649 6.31076 25.3798 6.19096 25.3709 6.07174C25.3619 5.95252 25.3293 5.83627 25.275 5.72979C25.1633 5.51446 24.9713 5.35177 24.7405 5.27691C24.5098 5.20206 24.2589 5.22105 24.042 5.32979C23.0989 5.80133 22.0075 5.88078 21.006 5.55079C20.8224 5.49095 20.6433 5.41809 20.47 5.33278C20.999 5.22117 21.5002 5.00456 21.944 4.69578C24.004 3.26178 27.144 1.48378 30.644 2.59578C32.5074 3.29529 34.0958 4.57636 35.1742 6.24925C36.2525 7.92214 36.7633 9.89787 36.631 11.8838C36.3903 11.8691 36.148 11.8618 35.904 11.8618C33.5784 11.8484 31.3009 12.524 29.3588 13.8035C27.4166 15.0829 25.897 16.9089 24.9914 19.051C24.0858 21.1931 23.8349 23.5554 24.2703 25.84C24.7057 28.1245 25.808 30.2289 27.438 31.8878L26.923 32.9688C26.7655 33.2963 26.51 33.5665 26.1918 33.7421C25.8737 33.9177 25.5088 33.9898 25.1478 33.9485C24.7868 33.9071 24.4476 33.7543 24.1774 33.5114C23.9072 33.2685 23.7194 32.9474 23.64 32.5928L21.48 22.5268C21.48 22.5108 21.473 22.4948 21.469 22.4798C21.3548 22.0772 21.1123 21.7228 20.7785 21.4705C20.4446 21.2181 20.0375 21.0816 19.619 21.0816C19.2005 21.0816 18.7934 21.2181 18.4595 21.4705C18.1257 21.7228 17.8832 22.0772 17.769 22.4798C17.769 22.4958 17.761 22.5108 17.758 22.5268L15.598 32.5938C15.5186 32.9484 15.3308 33.2695 15.0606 33.5124C14.7904 33.7553 14.4512 33.9081 14.0902 33.9495C13.7292 33.9908 13.3643 33.9187 13.0462 33.7431C12.728 33.5676 12.4725 33.2973 12.315 32.9698C8.892 25.7698 6.733 21.5078 5.899 20.2968C4.77545 18.7013 3.88516 16.9537 3.255 15.1068C3.18022 14.8756 3.017 14.6833 2.80098 14.572C2.58496 14.4608 2.33368 14.4394 2.102 14.5128C1.98787 14.5486 1.88196 14.6066 1.7904 14.6836C1.69885 14.7606 1.62345 14.8549 1.56859 14.9612C1.51373 15.0675 1.48048 15.1836 1.47076 15.3028C1.46105 15.4221 1.47507 15.542 1.512 15.6558C2.19603 17.6665 3.16344 19.5693 4.385 21.3068C5.142 22.4068 7.37 26.8188 10.657 33.7308C10.9425 34.3422 11.3975 34.8589 11.9679 35.2194C12.5383 35.5799 13.2002 35.7692 13.875 35.7648C14.0194 35.7647 14.1636 35.7563 14.307 35.7398C15.0506 35.6648 15.751 35.355 16.3066 34.8551C16.8622 34.3552 17.2442 33.6914 17.397 32.9598L19.551 22.9238C19.559 22.8988 19.573 22.8818 19.624 22.8818C19.675 22.8818 19.689 22.8998 19.698 22.9238L21.852 32.9598C22.0157 33.6872 22.4017 34.3456 22.9565 34.8437C23.5113 35.3419 24.2073 35.655 24.9481 35.7397C25.6889 35.8245 26.4376 35.6766 27.0906 35.3166C27.7435 34.9567 28.2682 34.4024 28.592 33.7308L28.881 33.1238C30.2937 34.177 31.9242 34.9008 33.6529 35.2418C35.3817 35.5829 37.1649 35.5328 38.8717 35.095C40.5786 34.6572 42.1658 33.8429 43.517 32.7119C44.8682 31.5809 45.9491 30.1617 46.6805 28.5586C47.4118 26.9554 47.775 25.2089 47.7435 23.4471C47.712 21.6853 47.2866 19.9528 46.4984 18.3769C45.7102 16.8009 44.5793 15.4213 43.1885 14.3393C41.7977 13.2573 40.1824 12.5003 38.461 12.1238L38.457 12.1318ZM35.907 33.6218C33.9354 33.6159 32.0098 33.0258 30.3732 31.9262C28.7367 30.8266 27.4628 29.2668 26.7122 27.4436C25.9616 25.6205 25.7681 23.6158 26.1561 21.6827C26.544 19.7496 27.4961 17.9749 28.8921 16.5826C30.288 15.1902 32.0653 14.2428 33.9993 13.8598C35.9334 13.4769 37.9376 13.6756 39.7588 14.4309C41.58 15.1862 43.1365 16.4643 44.2319 18.1036C45.3272 19.743 45.9122 21.6702 45.913 23.6418C45.9066 26.2908 44.8494 28.8291 42.9735 30.6995C41.0975 32.5698 38.5561 33.6194 35.907 33.6178V33.6218Z" fill="#071C1F"/>
    <path d="M40.295 20.5307H39.038V19.2697C39.0353 18.7332 38.82 18.2197 38.4393 17.8418C38.0585 17.4638 37.5435 17.2523 37.007 17.2537H34.807C34.2705 17.2523 33.7554 17.4638 33.3747 17.8418C32.9939 18.2197 32.7786 18.7332 32.776 19.2697V20.5307H31.521C30.9844 20.5291 30.4692 20.7405 30.0884 21.1185C29.7076 21.4965 29.4924 22.0101 29.49 22.5467V24.7397C29.4926 25.2761 29.7079 25.7896 30.0887 26.1676C30.4694 26.5455 30.9845 26.757 31.521 26.7557H32.778V28.0167C32.7806 28.5531 32.9959 29.0667 33.3767 29.4446C33.7574 29.8225 34.2725 30.034 34.809 30.0327H37.009C37.5454 30.034 38.0605 29.8225 38.4413 29.4446C38.822 29.0667 39.0373 28.5531 39.04 28.0167V26.7557H40.297C40.8334 26.757 41.3485 26.5455 41.7293 26.1676C42.11 25.7896 42.3253 25.2761 42.328 24.7397V22.5467C42.3253 22.0099 42.1098 21.4961 41.7286 21.1181C41.3474 20.7401 40.8318 20.5288 40.295 20.5307ZM40.49 24.7387C40.49 24.7909 40.4696 24.841 40.4332 24.8783C40.3967 24.9157 40.3472 24.9374 40.295 24.9387H38.12C37.878 24.9373 37.6454 25.0321 37.4733 25.2022C37.3011 25.3723 37.2036 25.6037 37.202 25.8457V28.0137C37.202 28.0659 37.1816 28.116 37.1452 28.1534C37.1087 28.1907 37.0592 28.2124 37.007 28.2137H34.807C34.7548 28.2124 34.7052 28.1907 34.6688 28.1534C34.6324 28.116 34.612 28.0659 34.612 28.0137V25.8457C34.6104 25.6037 34.5128 25.3723 34.3407 25.2022C34.1686 25.0321 33.9359 24.9373 33.694 24.9387H31.521C31.4688 24.9374 31.4192 24.9157 31.3828 24.8783C31.3463 24.841 31.326 24.7909 31.326 24.7387V22.5457C31.326 22.4935 31.3463 22.4434 31.3828 22.406C31.4192 22.3686 31.4688 22.347 31.521 22.3457H33.696C33.938 22.347 34.1706 22.2522 34.3427 22.0822C34.5148 21.9121 34.6124 21.6806 34.614 21.4387V19.2707C34.614 19.2185 34.6343 19.1684 34.6708 19.131C34.7072 19.0936 34.7568 19.072 34.809 19.0707H37.009C37.0611 19.072 37.1108 19.0936 37.1472 19.131C37.1836 19.1684 37.204 19.2185 37.204 19.2707V21.4387C37.2056 21.6806 37.3032 21.9121 37.4753 22.0822C37.6474 22.2522 37.88 22.347 38.122 22.3457H40.297C40.3491 22.347 40.3987 22.3686 40.4352 22.406C40.4716 22.4434 40.492 22.4935 40.492 22.5457L40.49 24.7387Z" fill="#071C1F"/>
</svg>