<svg xmlns="http://www.w3.org/2000/svg" width="56" height="39" viewBox="0 0 56 39" fill="none">
    <path d="M28.034 38.9899C22.25 38.9899 16.4787 36.8919 10.72 32.6959C9.70919 31.8933 8.92571 30.8404 8.4472 29.6417C7.96869 28.4429 7.81176 27.14 7.99199 25.8619L9.57499 12.5859C9.61783 11.6927 9.98355 10.8455 10.6041 10.2017C11.2247 9.55796 12.058 9.16144 12.949 9.08589H14.506C15.4599 9.07173 16.4015 8.86909 17.2768 8.48964C18.152 8.11019 18.9436 7.56142 19.606 6.87489L23.667 2.81989C24.2371 2.23979 24.9171 1.77904 25.6672 1.46453C26.4174 1.15002 27.2226 0.988037 28.036 0.988037C28.8494 0.988037 29.6546 1.15002 30.4047 1.46453C31.1549 1.77904 31.8348 2.23979 32.405 2.81989L36.463 6.87489C37.1254 7.56142 37.917 8.11019 38.7922 8.48964C39.6675 8.86909 40.6091 9.07173 41.563 9.08589H43.115C44.006 9.1618 44.8393 9.55838 45.4601 10.202C46.081 10.8457 46.4473 11.6927 46.491 12.5859L48.075 25.8619C48.2543 27.1392 48.0969 28.4411 47.6185 29.6389C47.14 30.8367 46.357 31.8887 45.347 32.6909C39.601 36.8849 33.815 38.9849 28.031 38.9849L28.034 38.9899ZM12.953 11.8029C12.6562 11.8283 12.3786 11.9606 12.1721 12.1752C11.9655 12.3899 11.8439 12.6723 11.83 12.9699L10.243 26.2499C10.1375 27.0223 10.2353 27.8089 10.5268 28.532C10.8183 29.255 11.2933 29.8895 11.905 30.3729C22.757 38.3009 33.311 38.3039 44.164 30.3729C44.7767 29.8904 45.2524 29.256 45.544 28.5327C45.8356 27.8094 45.9328 27.0224 45.826 26.2499L44.238 12.9689C44.224 12.6713 44.1025 12.3889 43.8959 12.1742C43.6893 11.9596 43.4118 11.8273 43.115 11.8019H41.562C40.3358 11.7842 39.1252 11.5242 37.9998 11.0368C36.8745 10.5494 35.8567 9.84421 35.005 8.96189L30.944 4.90489C30.5642 4.51802 30.1111 4.21072 29.6112 4.00095C29.1113 3.79118 28.5746 3.68313 28.0325 3.68313C27.4904 3.68313 26.9537 3.79118 26.4538 4.00095C25.9539 4.21072 25.5008 4.51802 25.121 4.90489L21.063 8.96189C20.2114 9.84457 19.1937 10.5501 18.0684 11.0379C16.943 11.5256 15.7323 11.7859 14.506 11.8039L12.953 11.8029Z" fill="#071C1F"/>
    <path d="M9.07202 30.706C8.91683 30.7054 8.76398 30.668 8.62602 30.597L5.21602 28.856C3.8086 28.0347 2.65009 26.8474 1.8637 25.4202C1.0773 23.9931 0.69243 22.3794 0.750018 20.751C0.750018 20.411 0.775018 20.041 0.800018 19.701C0.895704 18.4011 1.27384 17.1377 1.90804 15.999C2.54225 14.8603 3.41725 13.8737 4.47202 13.108C5.41606 12.4328 6.52987 12.0346 7.68799 11.9583C8.84611 11.882 10.0025 12.1305 11.027 12.676C11.3184 12.8589 11.5368 13.1379 11.6443 13.4647C11.7519 13.7916 11.7419 14.1457 11.616 14.466C11.5767 14.6193 11.5039 14.762 11.4028 14.8839C11.3017 15.0057 11.1749 15.1036 11.0315 15.1705C10.888 15.2375 10.7315 15.2718 10.5732 15.271C10.4149 15.2702 10.2588 15.2343 10.116 15.166C9.40909 14.79 8.61122 14.6189 7.81229 14.6719C7.01335 14.7249 6.24509 14.9999 5.59402 15.466C4.86833 15.9912 4.26568 16.6681 3.82792 17.4497C3.39016 18.2313 3.12779 19.0988 3.05902 19.992C3.04102 20.204 3.02002 20.492 3.02002 20.745C2.98015 21.8712 3.24623 22.9872 3.78997 23.9743C4.33371 24.9615 5.13478 25.7828 6.10802 26.351L9.51702 28.092C9.80976 28.2723 10.0301 28.5495 10.1397 28.8754C10.2493 29.2014 10.2413 29.5554 10.117 29.876C10.0501 30.1053 9.9134 30.3082 9.72597 30.4564C9.53854 30.6046 9.30964 30.6907 9.07102 30.703L9.07202 30.706Z" fill="#071C1F"/>
    <path d="M46.9961 30.7059C46.7574 30.6936 46.5285 30.6074 46.3411 30.4593C46.1537 30.3111 46.017 30.1082 45.9501 29.8789C45.8258 29.5582 45.8178 29.2042 45.9274 28.8783C46.037 28.5524 46.2573 28.2752 46.5501 28.0949L49.9601 26.3539C50.9316 25.7857 51.7312 24.9651 52.274 23.9791C52.8168 22.9932 53.0825 21.8786 53.0431 20.7539C53.0431 20.4959 53.0231 20.2129 53.0021 19.9539C52.9291 19.0685 52.6651 18.2096 52.2281 17.4361C51.7912 16.6627 51.1917 15.9932 50.4711 15.4739C49.8206 15.0065 49.0522 14.7307 48.2529 14.6776C47.4537 14.6246 46.6556 14.7965 45.9491 15.1739C45.8063 15.242 45.6501 15.2778 45.4919 15.2784C45.3337 15.2791 45.1772 15.2448 45.0338 15.1779C44.8904 15.111 44.7636 15.0131 44.6625 14.8914C44.5614 14.7697 44.4885 14.6271 44.4491 14.4739C44.3226 14.1537 44.3123 13.7993 44.4199 13.4723C44.5275 13.1454 44.7462 12.8664 45.0381 12.6839C46.0623 12.1377 47.2189 11.8888 48.3772 11.9651C49.5354 12.0415 50.6493 12.44 51.5931 13.1159C52.6428 13.876 53.5146 14.8556 54.1478 15.9865C54.7811 17.1174 55.1606 18.3726 55.2601 19.6649C55.2871 20.0459 55.3121 20.4159 55.3121 20.7559C55.3694 22.383 54.985 23.9954 54.1995 25.4216C53.4141 26.8478 52.2569 28.0345 50.8511 28.8559L47.4421 30.5929C47.3046 30.6652 47.1514 30.7026 46.9961 30.7019V30.7059Z" fill="#071C1F"/>
    <path d="M28.034 25.3828C21.4086 25.2755 14.94 23.3505 9.33398 19.8178L10.35 17.3838C22.082 24.4008 33.98 24.4008 45.712 17.3838L46.728 19.8178C41.1228 23.3524 34.6537 25.2776 28.028 25.3828H28.034Z" fill="#071C1F"/>
</svg>