<svg xmlns="http://www.w3.org/2000/svg" width="41" height="40" viewBox="0 0 41 40" fill="none">
    <path fill-rule="evenodd" clip-rule="evenodd" d="M32.608 19.8748L37.523 15.1428C38.3428 14.3648 38.9956 13.4281 39.4417 12.3897C39.8878 11.3513 40.1179 10.2329 40.1179 9.10276C40.1179 7.9726 39.8878 6.85426 39.4417 5.81586C38.9956 4.77746 38.3428 3.84075 37.523 3.06276C35.8277 1.45862 33.5824 0.564697 31.2485 0.564697C28.9146 0.564697 26.6693 1.45862 24.974 3.06276L20.059 7.79476L15.144 3.06476C13.449 1.46207 11.2047 0.569062 8.87199 0.569062C6.53925 0.569062 4.29501 1.46207 2.6 3.06476C1.78023 3.84275 1.12741 4.77946 0.681297 5.81786C0.235188 6.85626 0.00512695 7.9746 0.00512695 9.10476C0.00512695 10.2349 0.235188 11.3533 0.681297 12.3917C1.12741 13.4301 1.78023 14.3668 2.6 15.1448L7.51 19.8748L2.6 24.6068C1.78023 25.3847 1.12741 26.3215 0.681297 27.3599C0.235188 28.3983 0.00512695 29.5166 0.00512695 30.6468C0.00512695 31.7769 0.235188 32.8953 0.681297 33.9337C1.12741 34.9721 1.78023 35.9088 2.6 36.6868C4.29527 38.2909 6.54056 39.1848 8.8745 39.1848C11.2084 39.1848 13.4537 38.2909 15.149 36.6868L20.064 31.9548L24.979 36.6868C26.6743 38.2909 28.9196 39.1848 31.2535 39.1848C33.5874 39.1848 35.8327 38.2909 37.528 36.6868C38.3478 35.9088 39.0006 34.9721 39.4467 33.9337C39.8928 32.8953 40.1229 31.7769 40.1229 30.6468C40.1229 29.5166 39.8928 28.3983 39.4467 27.3599C39.0006 26.3215 38.3478 25.3847 37.528 24.6068L32.608 19.8748ZM9.132 18.2368L18.357 9.35576L30.986 21.5128L21.761 30.3938L9.132 18.2368ZM26.636 4.66476C27.8823 3.48577 29.5329 2.8288 31.2485 2.8288C32.9641 2.8288 34.6146 3.48577 35.861 4.66476C36.4637 5.23673 36.9436 5.92539 37.2715 6.6888C37.5995 7.45221 37.7686 8.27439 37.7686 9.10526C37.7686 9.93614 37.5995 10.7583 37.2715 11.5217C36.9436 12.2851 36.4637 12.9738 35.861 13.5458L30.946 18.2748L21.721 9.39476L26.636 4.66476ZM4.257 4.66476C5.50335 3.48577 7.15386 2.8288 8.8695 2.8288C10.5851 2.8288 12.2356 3.48577 13.482 4.66476L16.7 7.75576L7.47 16.6368L4.257 13.5438C3.65433 12.9718 3.17441 12.2831 2.84645 11.5197C2.51849 10.7563 2.34936 9.93414 2.34936 9.10326C2.34936 8.27239 2.51849 7.45021 2.84645 6.6868C3.17441 5.92339 3.65433 5.23473 4.257 4.66276V4.66476ZM13.482 35.0888C12.2356 36.2677 10.5851 36.9247 8.8695 36.9247C7.15386 36.9247 5.50335 36.2677 4.257 35.0888C3.65433 34.5168 3.17441 33.8281 2.84645 33.0647C2.51849 32.3013 2.34936 31.4791 2.34936 30.6483C2.34936 29.8174 2.51849 28.9952 2.84645 28.2318C3.17441 27.4684 3.65433 26.7797 4.257 26.2078L9.172 21.4748L18.4 30.3558L13.482 35.0888ZM35.861 35.0888C34.6148 36.268 32.9642 36.9251 31.2485 36.9251C29.5328 36.9251 27.8822 36.268 26.636 35.0888L23.423 31.9958L32.648 23.1148L35.861 26.2078C36.4633 26.7797 36.943 27.4682 37.2708 28.2315C37.5986 28.9947 37.7676 29.8166 37.7676 30.6473C37.7676 31.4779 37.5986 32.2998 37.2708 33.0631C36.943 33.8263 36.4633 34.5148 35.861 35.0868V35.0888Z" fill="#071C1F"/>
    <path d="M18.411 16.1936C19.0599 16.1936 19.586 15.6873 19.586 15.0626C19.586 14.438 19.0599 13.9316 18.411 13.9316C17.762 13.9316 17.236 14.438 17.236 15.0626C17.236 15.6873 17.762 16.1936 18.411 16.1936Z" fill="#071C1F"/>
    <path fill-rule="evenodd" clip-rule="evenodd" d="M22.565 19.0608C22.674 18.9579 22.7607 18.8339 22.8201 18.6964C22.8794 18.5588 22.91 18.4106 22.91 18.2608C22.91 18.111 22.8794 17.9627 22.8201 17.8251C22.7607 17.6876 22.674 17.5636 22.565 17.4608C22.3407 17.2479 22.0433 17.1292 21.734 17.1292C21.4248 17.1292 21.1273 17.2479 20.903 17.4608C20.794 17.5636 20.7072 17.6876 20.6479 17.8251C20.5886 17.9627 20.558 18.111 20.558 18.2608C20.558 18.4106 20.5886 18.5588 20.6479 18.6964C20.7072 18.8339 20.794 18.9579 20.903 19.0608C21.1274 19.2735 21.4248 19.392 21.734 19.392C22.0432 19.392 22.3406 19.2735 22.565 19.0608Z" fill="#071C1F"/>
    <path fill-rule="evenodd" clip-rule="evenodd" d="M25.889 22.2607C25.9979 22.1579 26.0847 22.0339 26.1441 21.8963C26.2034 21.7588 26.234 21.6105 26.234 21.4607C26.234 21.3109 26.2034 21.1627 26.1441 21.0251C26.0847 20.8876 25.9979 20.7636 25.889 20.6607C25.6647 20.4478 25.3672 20.3291 25.058 20.3291C24.7487 20.3291 24.4513 20.4478 24.227 20.6607C24.118 20.7636 24.0312 20.8876 23.9719 21.0251C23.9126 21.1627 23.882 21.3109 23.882 21.4607C23.882 21.6105 23.9126 21.7588 23.9719 21.8963C24.0312 22.0339 24.118 22.1579 24.227 22.2607C24.4513 22.4736 24.7487 22.5923 25.058 22.5923C25.3672 22.5923 25.6647 22.4736 25.889 22.2607Z" fill="#071C1F"/>
    <path d="M15.06 19.4197C15.7089 19.4197 16.235 18.9133 16.235 18.2887C16.235 17.6641 15.7089 17.1577 15.06 17.1577C14.4111 17.1577 13.885 17.6641 13.885 18.2887C13.885 18.9133 14.4111 19.4197 15.06 19.4197Z" fill="#071C1F"/>
    <path fill-rule="evenodd" clip-rule="evenodd" d="M17.553 20.6887C17.4441 20.7915 17.3573 20.9155 17.2979 21.053C17.2386 21.1906 17.208 21.3389 17.208 21.4887C17.208 21.6385 17.2386 21.7867 17.2979 21.9243C17.3573 22.0619 17.4441 22.1858 17.553 22.2887C17.7773 22.5016 18.0748 22.6203 18.384 22.6203C18.6933 22.6203 18.9907 22.5016 19.215 22.2887C19.324 22.1858 19.4108 22.0619 19.4701 21.9243C19.5294 21.7867 19.56 21.6385 19.56 21.4887C19.56 21.3389 19.5294 21.1906 19.4701 21.053C19.4108 20.9155 19.324 20.7915 19.215 20.6887C18.9906 20.476 18.6932 20.3574 18.384 20.3574C18.0748 20.3574 17.7774 20.476 17.553 20.6887Z" fill="#071C1F"/>
    <path fill-rule="evenodd" clip-rule="evenodd" d="M22.538 23.8878C22.3137 23.6748 22.0163 23.5562 21.707 23.5562C21.3978 23.5562 21.1003 23.6748 20.876 23.8878C20.7671 23.9906 20.6803 24.1146 20.6209 24.2522C20.5616 24.3897 20.531 24.538 20.531 24.6878C20.531 24.8376 20.5616 24.9858 20.6209 25.1234C20.6803 25.2609 20.7671 25.3849 20.876 25.4878C21.1003 25.7007 21.3978 25.8194 21.707 25.8194C22.0163 25.8194 22.3137 25.7007 22.538 25.4878C22.647 25.3849 22.7338 25.2609 22.7931 25.1234C22.8524 24.9858 22.883 24.8376 22.883 24.6878C22.883 24.538 22.8524 24.3897 22.7931 24.2522C22.7338 24.1146 22.647 23.9906 22.538 23.8878Z" fill="#071C1F"/>
</svg>