<svg xmlns="http://www.w3.org/2000/svg" width="74" height="71" viewBox="0 0 74 71" fill="none" >
    <path d="M54.6848 10.589L43.1686 8.02637V26.2534H59.8301L60.4198 18.0662L54.6848 10.589ZM22.2751 32.5158C22.2751 35.3225 24.6512 37.6023 27.5766 37.6023H54.1587C57.0841 37.6023 59.4601 35.3225 59.4601 32.5158V29.0879H22.2751V32.5158Z" fill="white"/>
    <path d="M61.2639 26.6639C60.9979 26.4087 60.6279 26.2534 60.2175 26.2534H21.8473C21.0264 26.2534 20.3673 26.8858 20.3673 27.6734C20.3673 28.0617 20.5292 28.4167 20.7951 28.6774C21.0668 28.9326 21.4311 29.0934 21.8473 29.0934H60.2175C61.0326 29.0934 61.6975 28.4555 61.6975 27.6734C61.6975 27.274 61.5356 26.919 61.2639 26.6639Z" fill="white"/>
    <path d="M28.5768 49.6611C29.8776 49.6611 31.0916 50.005 32.1323 50.6041C34.1557 51.7634 35.5143 53.8879 35.5143 56.3174H50.9733C51.7596 54.8197 53.3783 53.788 55.2515 53.788C56.1996 53.788 57.0899 54.0543 57.8357 54.5202C58.5121 54.9362 59.0671 55.5075 59.4544 56.1843V49.6611H28.5768Z" fill="white"/>
    <path d="M32.138 50.6042C31.0974 50.0051 29.8776 49.6667 28.5768 49.6667C24.7496 49.6667 21.6393 52.6454 21.6393 56.323C21.6393 60.0006 24.7496 62.9792 28.5768 62.9792C32.4098 62.9792 35.5143 60.0006 35.5143 56.323C35.5143 53.8935 34.1615 51.769 32.138 50.6042ZM59.9112 57.3381C59.8302 56.9831 59.6973 56.6392 59.5296 56.323C59.5065 56.2786 59.4833 56.2342 59.4544 56.1899C59.0671 55.5132 58.5121 54.9363 57.8357 54.5203C57.0899 54.0599 56.1996 53.7936 55.2515 53.7936C53.3783 53.7936 51.7596 54.8198 50.9733 56.323C50.6496 56.9442 50.4646 57.6432 50.4646 58.3864C50.4646 60.9214 52.6037 62.9792 55.2515 62.9792C57.8935 62.9792 60.0383 60.9214 60.0383 58.3864C60.0383 58.0259 59.9979 57.6764 59.9112 57.3381Z" fill="white"/>
    <path d="M59.4602 29.0879V32.5159C59.4602 35.3226 57.0841 37.6024 54.1588 37.6024H27.5766C24.6512 37.6024 22.2751 35.3226 22.2751 32.5159V29.0879H59.4602Z" stroke="#231F20" stroke-width="1.30208" stroke-miterlimit="10" stroke-linecap="round" stroke-linejoin="round"/>
    <path d="M61.7034 27.6678C61.7034 28.4499 61.0386 29.0878 60.2234 29.0878H21.8474C21.437 29.0878 21.067 28.9269 20.7952 28.6718C20.5293 28.4166 20.3674 28.0616 20.3674 27.6678C20.3674 26.8857 21.0265 26.2478 21.8474 26.2478H60.2176C60.6281 26.2478 60.9981 26.4087 61.264 26.6638C61.53 26.919 61.7034 27.274 61.7034 27.6678Z" stroke="#231F20" stroke-width="1.30208" stroke-miterlimit="10" stroke-linecap="round" stroke-linejoin="round"/>
    <path d="M60.42 18.0662L59.8303 26.2478H43.1687V8.02075L54.685 10.589L60.42 18.0662Z" stroke="#231F20" stroke-width="1.30208" stroke-miterlimit="10" stroke-linecap="round" stroke-linejoin="round"/>
    <path d="M43.1687 26.2478L60.42 18.0662" stroke="#231F20" stroke-width="1.30208" stroke-miterlimit="10" stroke-linecap="round" stroke-linejoin="round"/>
    <path d="M54.685 10.5889L43.1687 26.2477" stroke="#231F20" stroke-width="1.30208" stroke-miterlimit="10" stroke-linecap="round" stroke-linejoin="round"/>
    <path d="M18.8874 13.8171H12.2968" stroke="#231F20" stroke-width="1.30208" stroke-miterlimit="10" stroke-linecap="round" stroke-linejoin="round"/>
    <path d="M57.8414 54.5202L59.4602 52.1017V45.6673L49.1811 37.6022L43.1686 32.8818L38.3355 29.0877L34.7222 26.2477L18.8873 13.8171" stroke="#231F20" stroke-width="1.30208" stroke-miterlimit="10" stroke-linecap="round" stroke-linejoin="round"/>
    <path d="M57.8415 54.5203L55.2515 58.3809" stroke="#231F20" stroke-width="1.30208" stroke-miterlimit="10" stroke-linecap="round" stroke-linejoin="round"/>
    <path d="M28.4958 56.4505L32.7219 49.6612L40.2318 37.6022L43.1687 32.8818" stroke="#231F20" stroke-width="1.30208" stroke-miterlimit="10" stroke-linecap="round" stroke-linejoin="round"/>
    <path d="M35.5143 56.3174C35.5143 59.995 32.4098 62.9737 28.5768 62.9737C24.7496 62.9737 21.6393 59.995 21.6393 56.3174C21.6393 52.6454 24.7496 49.6611 28.5768 49.6611C29.8834 49.6611 31.0974 50.005 32.138 50.6041C34.1615 51.7689 35.5143 53.8934 35.5143 56.3174Z" stroke="#231F20" stroke-width="1.30208" stroke-miterlimit="10" stroke-linecap="round" stroke-linejoin="round"/>
    <path d="M59.4603 49.6611V56.1843C59.0729 55.5075 58.5121 54.9307 57.8415 54.5202C57.0899 54.0543 56.2054 53.788 55.2515 53.788C53.3842 53.788 51.7596 54.8197 50.9734 56.3174H35.5143C35.5143 53.8879 34.1615 51.7689 32.138 50.6041C31.0974 50.005 29.8776 49.6611 28.5768 49.6611H59.4603Z" stroke="#231F20" stroke-width="1.30208" stroke-miterlimit="10" stroke-linecap="round" stroke-linejoin="round"/>
    <path d="M60.0384 58.3809C60.0384 60.9214 57.8993 62.9737 55.2515 62.9737C52.6094 62.9737 50.4646 60.9214 50.4646 58.3809C50.4646 57.6376 50.6496 56.9387 50.9734 56.3175C51.7596 54.8198 53.3841 53.7881 55.2515 53.7881C56.2054 53.7881 57.0957 54.0543 57.8415 54.5203C58.5121 54.9363 59.0729 55.5076 59.4602 56.1843C59.4834 56.2287 59.5065 56.2731 59.5296 56.3175C59.7031 56.6392 59.8302 56.9831 59.917 57.3381C59.9921 57.6765 60.0384 58.0259 60.0384 58.3809Z" stroke="#231F20" stroke-width="1.30208" stroke-miterlimit="10" stroke-linecap="round" stroke-linejoin="round"/>
</svg>