<svg xmlns="http://www.w3.org/2000/svg" width="41" height="42" viewBox="0 0 41 42" fill="none">
    <path d="M40.2209 24.4739C40.1979 24.4629 38.1719 23.3319 35.4319 17.1519L36.6379 15.9579C36.889 15.7093 37.0883 15.4134 37.2243 15.0873C37.3603 14.7611 37.4304 14.4113 37.4304 14.0579C37.4304 13.7046 37.3603 13.3548 37.2243 13.0286C37.0883 12.7025 36.889 12.4066 36.6379 12.1579C36.375 11.8968 36.0612 11.6926 35.7159 11.5579L36.6379 10.6449C36.8889 10.3962 37.0881 10.1003 37.224 9.77418C37.36 9.44807 37.4299 9.09826 37.4299 8.74495C37.4299 8.39164 37.36 8.04183 37.224 7.71571C37.0881 7.3896 36.8889 7.09365 36.6379 6.84495C36.3594 6.56865 36.0239 6.3564 35.6549 6.22295C35.9923 5.70663 36.141 5.08967 36.0759 4.47636C36.0109 3.86305 35.7361 3.29101 35.2979 2.85695C34.8547 2.42231 34.2774 2.15054 33.66 2.08589C33.0426 2.02125 32.4216 2.16754 31.8979 2.50095C31.7622 2.13441 31.5474 1.80223 31.2689 1.52795C30.758 1.02195 30.067 0.73959 29.3479 0.742949C28.6288 0.73959 27.9379 1.02195 27.4269 1.52795L26.9359 2.01395C26.1629 1.28494 25.2763 0.686769 24.3109 0.242949C24.1957 0.197808 24.0718 0.179134 23.9484 0.188308C23.825 0.197482 23.7052 0.234268 23.5979 0.295949C23.3192 0.46665 23.0831 0.698677 22.9076 0.974376C22.732 1.25007 22.6217 1.56218 22.5849 1.88695C22.4999 2.27395 22.4669 2.34795 22.3489 2.41495C22.2309 2.48195 22.1489 2.47395 21.7689 2.35295C21.4667 2.22258 21.1389 2.1619 20.81 2.17541C20.4811 2.18891 20.1595 2.27625 19.8689 2.43095C19.59 2.6008 19.3534 2.83201 19.1772 3.107C19.0009 3.38199 18.8897 3.69353 18.8519 4.01795C18.7669 4.40495 18.7339 4.47895 18.6169 4.54595C18.4999 4.61295 18.4169 4.60495 18.0369 4.48395C17.7347 4.35358 17.4069 4.2929 17.078 4.30641C16.7491 4.31991 16.4275 4.40725 16.1369 4.56195C15.8581 4.73186 15.6217 4.96309 15.4456 5.23809C15.2696 5.51309 15.1585 5.8246 15.1209 6.14895C15.0359 6.53595 15.0029 6.60995 14.8849 6.67695C14.7669 6.74395 14.6849 6.73595 14.3049 6.61495C14.0027 6.48458 13.6749 6.4239 13.346 6.43741C13.0171 6.45091 12.6955 6.53825 12.4049 6.69295C12.1283 6.8635 11.894 7.09456 11.7196 7.36875C11.5451 7.64294 11.4352 7.95312 11.3979 8.27595C11.3129 8.66295 11.2799 8.73695 11.1619 8.80395C11.0439 8.87095 10.9619 8.86295 10.5819 8.74195C10.2796 8.61165 9.95193 8.55101 9.62304 8.56452C9.29416 8.57802 8.97251 8.66532 8.68193 8.81995C8.40296 8.9898 8.16637 9.22101 7.99015 9.496C7.81393 9.77099 7.7027 10.0825 7.66493 10.4069C7.57993 10.7939 7.54693 10.8679 7.42893 10.9349C7.31093 11.0019 7.22893 10.9939 6.84893 10.8729C6.54667 10.7426 6.21894 10.6819 5.89004 10.6954C5.56114 10.7089 5.23949 10.7962 4.94893 10.9509C4.85232 11.0055 4.76804 11.0795 4.70138 11.1682C4.63472 11.257 4.58713 11.3585 4.56159 11.4665C4.53604 11.5745 4.5331 11.6866 4.55295 11.7958C4.5728 11.905 4.61501 12.0089 4.67693 12.1009C6.17566 14.4638 7.41612 16.981 8.37693 19.6089C7.88639 20.0334 7.56659 20.6215 7.47693 21.2639L0.97693 27.6939C0.90058 27.7685 0.839908 27.8575 0.798483 27.9558C0.757058 28.0541 0.735718 28.1598 0.735718 28.2664C0.735718 28.3731 0.757058 28.4788 0.798483 28.5771C0.839908 28.6754 0.90058 28.7644 0.97693 28.8389L10.4289 38.193C10.5831 38.345 10.7909 38.4302 11.0074 38.4302C11.2239 38.4302 11.4318 38.345 11.5859 38.193L14.1579 35.6469L15.0429 36.476V40.834C15.0435 40.9408 15.065 41.0466 15.1064 41.1452C15.1478 41.2437 15.2082 41.3332 15.2842 41.4084C15.3601 41.4836 15.4502 41.5431 15.5491 41.5835C15.6481 41.6239 15.754 41.6445 15.8609 41.644H31.0609C31.1678 41.6445 31.2738 41.6239 31.3727 41.5835C31.4717 41.5431 31.5617 41.4836 31.6377 41.4084C31.7136 41.3332 31.774 41.2437 31.8154 41.1452C31.8568 41.0466 31.8784 40.9408 31.8789 40.834V32.0589C32.2609 31.6973 32.5078 31.2161 32.5789 30.6949C32.6639 30.3079 32.6969 30.2339 32.8149 30.1669C32.9329 30.0999 33.0149 30.1079 33.3949 30.2289C33.6972 30.3593 34.0249 30.42 34.3538 30.4065C34.6827 30.393 35.0044 30.3057 35.2949 30.1509C35.5739 29.9811 35.8105 29.7499 35.9867 29.4749C36.1629 29.1999 36.2742 28.8884 36.3119 28.5639C36.3969 28.177 36.4299 28.1029 36.5479 28.0359C36.6659 27.969 36.7479 27.9769 37.1279 28.0979C37.4302 28.2283 37.7579 28.289 38.0868 28.2755C38.4157 28.262 38.7374 28.1747 39.0279 28.0199C39.3068 27.85 39.5432 27.6188 39.7192 27.3438C39.8953 27.0688 40.0063 26.7573 40.0439 26.4329C40.1289 26.0459 40.1619 25.9719 40.2799 25.9049C40.4084 25.8322 40.5144 25.7255 40.5864 25.5965C40.6583 25.4676 40.6935 25.3214 40.688 25.1738C40.6826 25.0263 40.6367 24.8831 40.5554 24.7598C40.474 24.6366 40.3604 24.538 40.2269 24.4749L40.2209 24.4739ZM35.7979 14.0579C35.7985 14.1985 35.7711 14.3378 35.7172 14.4676C35.6632 14.5974 35.584 14.7152 35.4839 14.8139L34.7519 15.5389C34.4766 14.8596 34.1963 14.1293 33.9109 13.3479L33.9569 13.3029C34.1613 13.1036 34.4354 12.992 34.7209 12.992C35.0064 12.992 35.2806 13.1036 35.4849 13.3029C35.585 13.4017 35.6643 13.5194 35.7182 13.6493C35.7722 13.7791 35.7996 13.9184 35.7989 14.0589L35.7979 14.0579ZM35.4819 7.98695C35.5815 8.08608 35.6604 8.2039 35.7143 8.33363C35.7682 8.46337 35.796 8.60247 35.796 8.74295C35.796 8.88343 35.7682 9.02253 35.7143 9.15226C35.6604 9.282 35.5815 9.39981 35.4819 9.49895L33.2759 11.6869C32.9739 10.9389 32.6649 10.2369 32.3489 9.58095L33.9489 7.99195C34.1523 7.78945 34.4274 7.67535 34.7144 7.67442C35.0014 7.67348 35.2772 7.78578 35.4819 7.98695ZM32.6119 4.00095C32.8163 3.80158 33.0904 3.68998 33.3759 3.68998C33.6614 3.68998 33.9356 3.80158 34.1399 4.00095C34.2395 4.10008 34.3184 4.2179 34.3723 4.34763C34.4262 4.47737 34.454 4.61647 34.454 4.75695C34.454 4.89743 34.4262 5.03653 34.3723 5.16626C34.3184 5.296 34.2395 5.41381 34.1399 5.51295L32.7979 6.84195L31.5709 8.05595C31.1939 7.36595 30.8139 6.73395 30.4359 6.15595L31.2699 5.33095L32.6119 4.00095ZM29.3479 2.36295C29.4895 2.36204 29.6298 2.38904 29.7609 2.44241C29.892 2.49577 30.0113 2.57445 30.1119 2.67395C30.2113 2.77307 30.2902 2.89082 30.344 3.02046C30.3978 3.1501 30.4255 3.28909 30.4255 3.42945C30.4255 3.56981 30.3978 3.70879 30.344 3.83844C30.2902 3.96808 30.2113 4.08583 30.1119 4.18495L29.4869 4.80395C29.053 4.22914 28.5894 3.67739 28.0979 3.15095L28.5809 2.67295C28.6816 2.57345 28.8009 2.49477 28.932 2.44141C29.0631 2.38804 29.2034 2.36104 29.3449 2.36195L29.3479 2.36295ZM11.0199 36.476L2.72493 28.2669L7.46093 23.5789V27.7789C7.45298 28.3485 7.58026 28.9117 7.83233 29.4225C8.0844 29.9332 8.45406 30.3769 8.91093 30.7169L12.9809 34.531L11.0199 36.476ZM30.2419 40.025H16.6919V36.125C16.6918 36.0146 16.669 35.9055 16.6249 35.8044C16.5809 35.7033 16.5166 35.6122 16.4359 35.5369L10.0169 29.5219L9.97493 29.4849C9.69736 29.2968 9.47156 29.0418 9.31831 28.7435C9.16506 28.4452 9.08928 28.1132 9.09793 27.7779V21.6239C9.09978 21.3391 9.21451 21.0666 9.41697 20.8662C9.61942 20.6658 9.89307 20.5539 10.1779 20.5549C10.4677 20.5678 10.7415 20.6913 10.9428 20.9001C11.1441 21.1088 11.2577 21.3869 11.2599 21.6769C11.3307 22.776 11.4599 23.8706 11.6469 24.9559C11.6656 25.0454 11.6994 25.1309 11.7469 25.2089C12.2579 26.0849 13.6679 26.5089 15.6189 27.0959L15.6409 27.1029C15.7631 27.1398 15.8922 27.1477 16.018 27.1262C16.1438 27.1047 16.2629 27.0543 16.3659 26.9789C16.4684 26.9041 16.5518 26.8061 16.6093 26.693C16.6668 26.5799 16.6968 26.4548 16.6969 26.3279V11.8069C16.6969 11.5205 16.8107 11.2458 17.0133 11.0433C17.2158 10.8407 17.4905 10.7269 17.7769 10.7269C18.0634 10.7269 18.3381 10.8407 18.5406 11.0433C18.7431 11.2458 18.8569 11.5205 18.8569 11.8069V16.6869C18.8569 16.9039 18.9431 17.112 19.0965 17.2654C19.2499 17.4188 19.458 17.5049 19.6749 17.5049C19.8919 17.5049 20.0999 17.4188 20.2533 17.2654C20.4067 17.112 20.4929 16.9039 20.4929 16.6869V9.92795C20.4929 9.64151 20.6067 9.36681 20.8093 9.16427C21.0118 8.96173 21.2865 8.84795 21.5729 8.84795C21.8594 8.84795 22.1341 8.96173 22.3366 9.16427C22.5391 9.36681 22.6529 9.64151 22.6529 9.92795V20.3339C22.6529 20.5509 22.7391 20.759 22.8925 20.9124C23.0459 21.0658 23.254 21.1519 23.4709 21.1519C23.6879 21.1519 23.8959 21.0658 24.0493 20.9124C24.2027 20.759 24.2889 20.5509 24.2889 20.3339V11.8069C24.2889 11.5204 24.4028 11.2456 24.6054 11.0429C24.808 10.8403 25.0829 10.7264 25.3694 10.7264C25.656 10.7264 25.9308 10.8403 26.1335 11.0429C26.3361 11.2456 26.4499 11.5204 26.4499 11.8069V20.3339C26.4499 20.5509 26.5361 20.759 26.6895 20.9124C26.8429 21.0658 27.051 21.1519 27.2679 21.1519C27.4849 21.1519 27.6929 21.0658 27.8463 20.9124C27.9997 20.759 28.0859 20.5509 28.0859 20.3339V15.5639C28.0859 15.2775 28.1997 15.0028 28.4023 14.8003C28.6048 14.5977 28.8795 14.4839 29.1659 14.4839C29.4524 14.4839 29.7271 14.5977 29.9296 14.8003C30.1321 15.0028 30.2459 15.2775 30.2459 15.5639V40.024L30.2419 40.025ZM38.4419 26.0889C38.3569 26.4759 38.3239 26.5499 38.2059 26.6169C38.0879 26.6839 38.0059 26.6759 37.6259 26.5549C37.3237 26.4246 36.9959 26.3639 36.667 26.3774C36.3381 26.3909 36.0165 26.4782 35.7259 26.6329C35.447 26.8028 35.2104 27.034 35.0341 27.309C34.8579 27.584 34.7467 27.8955 34.7089 28.2199C34.6239 28.6069 34.5909 28.681 34.4729 28.7479C34.3549 28.8149 34.2729 28.806 33.8929 28.6859C33.5907 28.5556 33.2629 28.4949 32.934 28.5084C32.6051 28.5219 32.2835 28.6092 31.9929 28.7639C31.9519 28.7879 31.9129 28.8119 31.8749 28.8369V15.5649C31.8698 15.1166 31.7541 14.6765 31.5379 14.2837C31.3217 13.891 31.0118 13.5577 30.6358 13.3136C30.2597 13.0694 29.8292 12.922 29.3824 12.8844C28.9356 12.8468 28.4865 12.9201 28.0749 13.0979V11.8069C28.0695 11.3536 27.9508 10.9088 27.7297 10.513C27.5087 10.1172 27.1922 9.78293 26.8091 9.54051C26.426 9.29809 25.9884 9.15523 25.536 9.12492C25.0837 9.09461 24.631 9.17781 24.2189 9.36695C24.0836 8.7633 23.7467 8.22375 23.2637 7.83712C22.7808 7.45049 22.1806 7.23983 21.5619 7.23983C20.9433 7.23983 20.3431 7.45049 19.8601 7.83712C19.3772 8.22375 19.0403 8.7633 18.9049 9.36695C18.4929 9.17781 18.0402 9.09461 17.5878 9.12492C17.1355 9.15523 16.6979 9.29809 16.3148 9.54051C15.9317 9.78293 15.6152 10.1172 15.3941 10.513C15.1731 10.9088 15.0544 11.3536 15.0489 11.8069V25.2299C14.6589 25.1059 14.3009 24.9849 13.9969 24.8639C13.7172 24.7675 13.4531 24.6307 13.2129 24.4579C13.0689 23.6279 12.9419 22.41 12.8869 21.5709C12.8597 20.8669 12.5625 20.2003 12.057 19.7095C11.5515 19.2187 10.8765 18.9414 10.1719 18.9349C10.0717 18.9349 9.97157 18.9402 9.87193 18.9509C9.0511 16.7371 8.04556 14.5962 6.86593 12.5509C7.3348 12.6509 7.82407 12.5732 8.23893 12.3329C8.5179 12.1631 8.75449 11.9319 8.93071 11.6569C9.10693 11.3819 9.21816 11.0704 9.25593 10.7459C9.34093 10.3589 9.37393 10.2849 9.49193 10.2179C9.60993 10.1509 9.69193 10.1589 10.0719 10.2799C10.3742 10.4103 10.7019 10.471 11.0308 10.4575C11.3597 10.444 11.6814 10.3567 11.9719 10.2019C12.252 10.0336 12.4899 9.80362 12.6677 9.52949C12.8455 9.25535 12.9584 8.94429 12.9979 8.61995C13.0829 8.23295 13.1159 8.15895 13.2339 8.09195C13.3519 8.02495 13.4339 8.03295 13.8139 8.15395C14.1162 8.28431 14.4439 8.34499 14.7728 8.33149C15.1017 8.31799 15.4234 8.23065 15.7139 8.07595C15.992 7.90523 16.2276 7.67342 16.4028 7.3981C16.5779 7.12278 16.6881 6.81119 16.7249 6.48695C16.8099 6.09995 16.8429 6.02595 16.9609 5.95895C17.0789 5.89195 17.1609 5.90095 17.5409 6.02095C17.8432 6.15131 18.1709 6.21199 18.4998 6.19849C18.8287 6.18499 19.1504 6.09765 19.4409 5.94295C19.7192 5.77287 19.9551 5.54167 20.1308 5.26688C20.3065 4.9921 20.4173 4.68092 20.4549 4.35695C20.5399 3.96995 20.5729 3.89595 20.6909 3.82895C20.8089 3.76195 20.8909 3.76995 21.2709 3.89095C21.5732 4.02131 21.9009 4.08199 22.2298 4.06849C22.5587 4.05499 22.8804 3.96765 23.1709 3.81295C23.4499 3.6431 23.6865 3.41189 23.8627 3.1369C24.0389 2.86191 24.1502 2.55037 24.1879 2.22595C24.2049 2.14695 24.2209 2.07995 24.2349 2.02595C25.119 2.57322 25.9287 3.23233 26.6439 3.98695C29.1927 6.77771 31.1165 10.0803 32.2869 13.6739C35.0239 21.2599 37.4459 24.2239 38.6779 25.3309C38.5683 25.5738 38.4884 25.829 38.4399 26.0909L38.4419 26.0889Z" fill="#071C1F"/>
    <path d="M19.67 19.5249C19.5101 19.5267 19.3544 19.5757 19.2224 19.6658C19.0904 19.7559 18.988 19.883 18.9281 20.0311C18.8681 20.1793 18.8534 20.3419 18.8856 20.4984C18.9179 20.6549 18.9957 20.7984 19.1094 20.9108C19.223 21.0232 19.3673 21.0994 19.5242 21.1299C19.6811 21.1605 19.8435 21.1439 19.991 21.0824C20.1385 21.0208 20.2644 20.917 20.353 20.784C20.4417 20.651 20.4889 20.4947 20.489 20.3349C20.4884 20.2279 20.4668 20.1221 20.4254 20.0235C20.3839 19.9249 20.3234 19.8354 20.2474 19.7601C20.1713 19.6849 20.0811 19.6254 19.9821 19.5851C19.883 19.5447 19.7769 19.5243 19.67 19.5249Z" fill="#071C1F"/>
</svg>