<svg xmlns="http://www.w3.org/2000/svg" width="35" height="38" viewBox="0 0 35 38" fill="none">
    <path d="M30.356 13.1129H25.756C26.3513 10.5154 26.6661 7.86157 26.695 5.1969V3.87691L25.488 4.1379C24.3084 4.39358 23.088 4.39674 21.907 4.14718C20.7261 3.89761 19.6113 3.40098 18.636 2.68991L17.719 2.03491C16.5663 1.19459 15.2544 0.598193 13.8634 0.282167C12.4724 -0.033859 11.0316 -0.0628709 9.629 0.196905L8.872 0.342905L8.644 2.78991C8.38793 6.19338 8.60975 9.61595 9.303 12.9579L9.334 13.1139H4.684L0.25 22.6229V37.0579H34.79V22.6229L30.356 13.1129ZM10.658 3.00591L10.73 2.23391C12.8136 2.03616 14.8978 2.60503 16.592 3.8339L17.509 4.4889C19.57 5.98881 22.1069 6.68632 24.645 6.4509C24.4102 10.2018 23.6629 13.9028 22.424 17.4509H20.556V15.2809H18.532V17.4509H16.508V10.9429H14.484V17.4539H12.621C11.0075 12.8175 10.3401 7.9047 10.658 3.00591ZM5.935 15.2829H9.835C10.044 16.0989 10.259 16.8339 10.461 17.4529H8.413V19.6229H26.628V17.4529H24.578C24.778 16.8529 25.001 16.1139 25.225 15.2829H29.105L32.141 21.7969H2.899L5.935 15.2829ZM32.767 23.9639V30.5469H2.274V23.9649L32.767 23.9639ZM2.274 34.8879V32.7179H32.767V34.8879H2.274Z" fill="#071C1F"/>
</svg>